<?xml version="1.0" standalone="no"?>
<!DOCTYPE svg PUBLIC "-//W3C//DTD SVG 1.1//EN" "http://www.w3.org/Graphics/SVG/1.1/DTD/svg11.dtd" >
<svg xmlns="http://www.w3.org/2000/svg" xmlns:xlink="http://www.w3.org/1999/xlink" version="1.1">
<metadata>
Created by FontForge 20201107 at Fri Feb 28 14:02:44 2025
 By 
Copyright (c) 2025 by IraDvilyuk &#38; Evgeny Kopytin. All rights reserved.
</metadata>
<defs>
<font id="PastryChefCyrillic-Script" horiz-adv-x="0" >
  <font-face 
    font-family="Pastry Chef Cyrillic Script"
    font-weight="400"
    font-stretch="normal"
    units-per-em="1000"
    panose-1="0 0 5 0 0 0 0 0 0 0"
    ascent="800"
    descent="-200"
    x-height="488"
    cap-height="700"
    bbox="-509.375 -370.111 955.762 955.231"
    underline-thickness="50"
    underline-position="-150"
    unicode-range="U+000A-2212"
  />
<missing-glyph horiz-adv-x="527" 
d="M50 0v700h427v-700h-427zM263 371l186 309h-371zM457 47v605l-181 -302zM71 49l180 301l-180 300v-601zM79 21h370l-185 308z" />
    <glyph glyph-name=".notdef" horiz-adv-x="527" 
d="M50 0v700h427v-700h-427zM263 371l186 309h-371zM457 47v605l-181 -302zM71 49l180 301l-180 300v-601zM79 21h370l-185 308z" />
    <glyph glyph-name=".null" 
 />
    <glyph glyph-name=".null" 
 />
    <glyph glyph-name="nonmarkingreturn" horiz-adv-x="333" 
 />
    <glyph glyph-name="controlLF" unicode="&#xa;" 
 />
    <glyph glyph-name="controlCR" unicode="&#xd;" 
 />
    <glyph glyph-name="space" unicode=" " horiz-adv-x="400" 
 />
    <glyph glyph-name="exclam" unicode="!" horiz-adv-x="228" 
d="M105 301q-25 0 -37 25q-4 9 -8 128q-5 156 -6 167q-4 37 -4 112q0 59 10 79q12 23 37 33q19 8 41.5 -1.5t30.5 -29.5q5 -12 5 -27t-7 -64q-18 -137 -14 -192q8 -112 1 -155t-17 -59t-32 -16zM60 96q-23 19 -19 49.5t31 44.5q18 9 42 2.5t36 -23.5q13 -17 7.5 -39
t-24.5 -34q-42 -27 -73 0z" />
    <glyph glyph-name="quotedbl" unicode="&#x22;" horiz-adv-x="327" 
d="M103 494q-16 -8 -49.5 96t-33.5 129q0 34 9 50q13 23 36 29q20 5 38.5 -7t25.5 -33q2 -7 12 -134q2 -28 -11.5 -76t-26.5 -54zM199 502q-8 2 -6.5 96t10.5 140q7 35 25 45q12 7 45.5 -8.5t33.5 -24.5q0 -17 -54 -192q-3 -10 -15.5 -24t-24.5 -23.5t-14 -8.5z" />
    <glyph glyph-name="numbersign" unicode="#" horiz-adv-x="1006" 
d="M214 -71q-19 16 -17.5 38t24.5 74q42 97 42 122q0 2 -2.5 3t-9.5 0t-18.5 -3t-30.5 -7q-80 -20 -114 -4q-38 18 -38 53q0 25 16.5 40.5t54.5 24.5q49 13 153 17l47 1l4 9q5 10 17 46.5t11 37.5q0 2 -51 0q-48 -2 -70 3q-22 6 -42 6q-56 0 -60 40q-2 24 12 38t52 27l32 10
l61 -4q13 -1 31 -2t29.5 -2t14.5 -1q12 0 14 4.5t9 44.5q6 29 14 46q16 35 28.5 53t45.5 52q79 82 104 89q11 4 21 4q8 -2 11 -2q2 0 14 -10q28 -23 1 -63q-6 -9 -18 -41q-9 -29 -26 -62q-30 -58 -42 -87.5t-7 -30.5q3 -1 70 -5l66 -4l6 8q16 19 69 123q21 40 30.5 53.5
t21.5 20.5q20 9 37 -1q19 -12 16 -38q-2 -17 -35 -73q-44 -72 -44 -81q0 -8 76 22q42 17 65 5q12 -6 18.5 -20t4.5 -26q-3 -16 -16.5 -26.5t-32.5 -10.5t-77.5 -5.5t-61.5 -7.5q-5 -5 -15 -35q-13 -33 -25 -59q-12 -29 -11 -31q3 -5 119 -5q97 -1 114 -3.5t25 -19.5
q10 -20 -1 -40q-8 -13 -28.5 -16t-123.5 -5q-126 -2 -129 -3q-4 -1 -10 -23q-13 -49 -55 -115q-26 -40 -29 -54q-11 -39 -20 -54t-24 -21q-25 -11 -48 6t-23 47q0 32 36 140q18 54 18 62q-2 2 -56.5 -3t-58.5 -7q-8 -7 -34 -78q-12 -34 -41 -97l-29 -62q-11 -26 -36 -32.5
t-45 10.5zM494 292l52 4q4 1 22 34q12 26 34 62q17 30 17 31t-3.5 1.5t-9.5 -0.5t-14 -3l-52 -9q-44 -8 -45 -8q-4 -2 -26 -52.5t-22 -57.5q0 -3 47 -2z" />
    <glyph glyph-name="dollar" unicode="$" horiz-adv-x="529" 
d="M315 -161q-25 -8 -42 10q-6 6 -11 24.5t-5 33.5q0 12 -4.5 15.5t-21.5 6.5q-14 2 -52.5 21t-57.5 33q-25 19 -38.5 44.5t-27.5 79.5q-11 41 1.5 67.5t43.5 28.5q28 3 46 -18q12 -13 35 -76q5 -15 9 -19.5t16 -10.5q36 -17 41 -9q6 10 4.5 120t-7.5 121q-3 7 -29 17
q-92 38 -117 118q-13 42 -14.5 108t9.5 112q15 60 68 84q19 8 43 6l27 -1l1 42q1 59 21 70t36 -5q10 -8 12.5 -18t6.5 -49l5 -57l2 -17l26 -9q53 -19 79 -45q27 -26 41 -64.5t9 -71.5q-7 -36 -25 -57q-14 -15 -30 -17.5t-27 8.5q-6 7 -5 45q1 43 -8 66.5t-34 41.5
q-16 12 -19 5q-2 -7 -1 -41q0 -45 -4 -63q-3 -16 2 -40l6 -29q1 -6 28 -23q68 -41 91 -78t30 -116q10 -98 1 -154q-11 -55 -42.5 -92t-78.5 -50l-20 -5l1 -16q0 -20 3 -33q3 -32 -23 -44zM215 518q4 -4 8 15q13 60 8 121q0 4 -9 9q-14 8 -18.5 3t-4.5 -29q0 -22 6.5 -69
t9.5 -50z" />
    <glyph glyph-name="percent" unicode="%" horiz-adv-x="729" 
d="M213 -71q-29 -30 -66 -22.5t-48 45.5q-10 34 26 76q42 48 123 261l30 78q17 43 17 48q-1 1 -17 -1q-62 -11 -80 -12t-43 3q-60 12 -86 68q-24 51 -18 103q5 41 26 85q47 101 150 76q26 -6 54 -19.5t41 -26.5q18 -19 24.5 -41t-1.5 -38q-15 -32 -52 -2q-17 15 -60 26
q-30 8 -40.5 7.5t-16.5 -8.5q-16 -20 -16 -61q0 -17 7 -35t14 -21q4 -1 49 -5q21 -4 33.5 -0.5t15 6t12.5 18.5q11 17 27 23q16 9 22 20q7 12 40 47q69 72 103 115q32 39 60 51q33 17 53 -2q9 -9 9 -26q0 -11 -4.5 -20t-24.5 -40q-54 -81 -54 -93q0 -14 -41 -80
q-32 -50 -51 -90.5t-90 -208.5q-24 -55 -35 -76q-40 -83 -48 -102t-10 -35q-9 -65 -34 -91zM533 -33q-35 1 -59 13q-52 24 -76 74q-8 16 -9.5 24.5t-1.5 41.5q0 43 7 72q21 78 65 119q31 28 63 35q17 5 23 5q30 0 56 -15q24 -14 30 -41.5t-11 -45.5q-13 -16 1 -16
q29 0 45 -45q18 -47 10 -85q-7 -39 -33 -76t-56 -52q-19 -9 -54 -8zM543 63q11 -2 20 8q10 10 15 24q4 10 3 15t-8 21q-25 60 5 90q8 7 4 10q-4 2 -7 2q-22 -4 -30 -10q-30 -28 -43 -106q-3 -19 9 -35t32 -19z" />
    <glyph glyph-name="ampersand" unicode="&#x26;" horiz-adv-x="659" 
d="M197 -60q-46 8 -89 51q-58 59 -58 134q0 72 40 125q32 40 92 102q34 36 34 39q0 4 -18 40q-39 79 -39 114q0 42 28 103q21 43 58.5 75.5t78.5 43.5q32 9 55 4t49 -25q18 -13 44 -43t40 -52q22 -37 22 -81q0 -43 -21 -85q-23 -42 -104 -97q-49 -32 -70 -53l-19 -20l14 -19
l32 -47q15 -22 34 -44.5t23 -22.5t18 37t25 74q11 41 44 47q31 4 51 -15.5t17 -50.5q-2 -24 -22 -78.5t-37 -82.5q-10 -15 -10 -21q0 -4 22 -26t37 -32q49 -35 39 -63q-5 -19 -27 -24q-11 -4 -33 3q-35 12 -74 52l-24 25l-22 -17q-45 -34 -116 -56t-114 -14zM268 433
q4 0 17 10q12 8 38 21.5t30 13.5q7 0 28 12.5t25 19.5q5 10 6.5 30.5t-2.5 31.5q-3 9 -22 35t-35 43q-13 13 -25 12t-34 -15q-38 -27 -60 -83q-8 -19 -8.5 -30t5.5 -29q5 -16 19.5 -44t17.5 -28zM245 79l22 2q75 8 101 32l7 6l-10 13q-36 44 -57 81q-22 36 -27 41l-7 8
l-19 -23q-38 -46 -41 -87q-1 -22 2.5 -34.5t17.5 -26.5z" />
    <glyph glyph-name="quotesingle" unicode="'" horiz-adv-x="145" 
d="M80 501q-21 6 -46 100.5t-8 149.5q3 10 12.5 22.5t17.5 15.5q24 9 46 -5q16 -10 21 -43.5t1 -74t-11.5 -79t-17 -63.5t-15.5 -23z" />
    <glyph glyph-name="parenleft" unicode="(" horiz-adv-x="317" 
d="M221 -162q-18 -3 -32 6.5t-43 44.5q-41 50 -53 74.5t-28 87.5l-15 60l2 75q0 15 0.5 93.5t1.5 106.5q4 182 6.5 219.5t14.5 75.5q13 43 41 84q18 27 65 70q26 23 35 39q7 14 13 18q14 8 27.5 -1.5t16.5 -29.5q3 -23 -2 -39t-27 -51q-33 -53 -54 -115q-15 -43 -18 -95
q-3 -54 -6 -203t-1 -190q2 -36 17 -97q11 -45 19 -64.5t31 -58.5q21 -36 26 -50q6 -22 -5 -39t-32 -21z" />
    <glyph glyph-name="parenright" unicode=")" horiz-adv-x="350" 
d="M130 -177q-7 -2 -11.5 -3t-8 0t-5.5 1.5t-3.5 5t-2 7t-2 10.5t-2.5 13q-1 6 0.5 16t6 25.5t8.5 28.5t11.5 36t11.5 37q28 89 38.5 217t6.5 221.5t-13 138.5q-13 64 -70 179q-41 84 -44 102q-5 37 15 49q26 16 68 -13q49 -34 78.5 -84t46.5 -130q67 -309 15 -578
q-19 -94 -59 -179.5t-85 -99.5z" />
    <glyph glyph-name="asterisk" unicode="*" horiz-adv-x="352" 
d="M80 606q-20 -2 -23 2t10 17q2 2 5 4.5t5 4.5t4.5 3.5t3.5 2.5q8 7 3 8q-3 0 -9 -2q-20 -6 -34 10q-5 6 -5 17t6 19q8 15 42 28q6 2 9 4t2 4q-1 4 -4 4q-4 0 -24 20.5t-24 29.5q-17 36 9 58q28 25 75 -11q23 -19 24 -14q0 1 -1 3q-10 26 -7 35q7 21 28 21q13 0 21 -9
q2 -2 4.5 -5t4 -5.5t2.5 -3.5q3 -5 23 16q19 21 33 24q26 5 41 -13t5 -42q-14 -26 -37 -49q-16 -16 -16 -21q2 -2 8 -2q8 0 23 -7t15 -10q0 -4 -10.5 -15t-19.5 -17l-7 -5l4 -13q8 -25 0 -42q-10 -20 -33 -19.5t-42 20.5l-10 11l-15 -15q-43 -42 -89 -46z" />
    <glyph glyph-name="plus" unicode="+" horiz-adv-x="529" 
d="M271 96q-20 0 -32 10q-11 12 -13.5 30.5t-0.5 82.5q2 40 2 78q-3 4 -38 4q-139 0 -139 62q0 14 10 25q28 32 124 36l46 2l2 15l9 63q5 41 10 63q4 13 14.5 25.5t19.5 14.5q22 3 35 -10t13 -38q0 -20 -5 -70t-3 -57q2 -4 48 -5q51 -4 63 -7q29 -8 39 -34.5t-7 -48.5
q-10 -13 -30 -18.5t-63 -7.5q-48 -2 -50 -4q-3 -5 -6 -62q-5 -56 -1 -81q5 -37 -15 -57q-8 -8 -12.5 -9.5t-19.5 -1.5z" />
    <glyph glyph-name="comma" unicode="," horiz-adv-x="172" 
d="M96 -60q0 6 0.5 29.5t0.5 38t-2.5 32t-7.5 25.5q-19 6 -28.5 21t-5.5 33q2 9 17 27.5t24 22.5q7 4 21 3.5t23 -4.5q22 -10 27 -42.5t-4 -58.5q-3 -10 -11.5 -53t-19.5 -65q-15 -28 -28 -22q-6 2 -6 13z" />
    <glyph glyph-name="hyphen" unicode="-" horiz-adv-x="435" 
d="M168 220q-55 1 -67 2t-22 7q-29 17 -29 43q0 48 79 56q8 1 17.5 2t15.5 2t7 1q79 0 111 -8q30 -7 31 -7q15 0 34.5 -9.5t31.5 -21.5t7 -18q-8 -10 -119 -43q-24 -7 -97 -6z" />
    <glyph glyph-name="period" unicode="." horiz-adv-x="198" 
d="M68 91q-30 15 -30 52q0 32 23 48q22 16 48.5 -2.5t26.5 -50.5q0 -29 -21.5 -44t-46.5 -3z" />
    <glyph glyph-name="slash" unicode="/" horiz-adv-x="540" 
d="M78 -167q-17 9 -24.5 30.5t-0.5 43.5q9 30 39 105q13 30 37 106q22 64 53 150q27 71 35 97l22 55q23 57 42 123q15 55 48 151q19 58 47 114.5t42 65.5q9 7 28 6q47 -3 44 -56q-1 -21 -30 -81q-31 -67 -42 -97l-19 -51q-6 -15 -35.5 -106.5t-34.5 -111.5l-14 -53
q-21 -79 -31 -107l-16 -53q-24 -85 -58 -170q-21 -49 -34 -87q-14 -38 -21.5 -51t-19.5 -21q-10 -7 -27.5 -7.5t-29.5 5.5z" />
    <glyph glyph-name="zero" unicode="0" horiz-adv-x="595" 
d="M214 -10q-47 10 -65 17.5t-37 26.5q-26 25 -44 77.5t-18 106.5q0 61 19 149q8 35 11 56q7 33 17 57l27 70q27 70 60 112q35 45 87 58q5 2 34 2q24 -1 35 -8q18 -11 23 -29.5t-5 -34.5q-11 -17 -27 -24q-23 -11 -39.5 -32.5t-42.5 -72.5q-34 -63 -44 -78q-21 -35 -26 -72
q-2 -13 4 -67t12 -83q16 -74 28 -86q17 -13 86 -28l38 -7l11 7q32 19 58 57q25 38 48.5 110.5t20.5 104.5q-1 8 -12 50q-10 33 -18 73q-7 32 -14.5 47t-25.5 35q-17 17 -20 29q-6 32 20 48.5t57 0.5q19 -9 36.5 -35t24.5 -55q3 -14 5 -75q2 -63 5 -85q4 -30 -8 -98
q-30 -148 -84 -228q-45 -67 -101 -90t-136 -6z" />
    <glyph glyph-name="one" unicode="1" horiz-adv-x="338" 
d="M207 -1q-12 3 -22 13q-13 15 -15.5 34.5t-3.5 100.5q-1 102 -8 138q-6 44 -6 49q0 10 -7 49q-8 49 4 113q2 8 3.5 16t1.5 11.5v4.5q-1 1 -9.5 -5.5t-26 -22t-42.5 -37.5q-19 -17 -27 -21.5t-18 -4.5q-17 0 -26 13t-3 29q4 11 14 19q18 18 48 54q38 45 45 48q11 8 40 46
q39 49 57 57q7 4 21.5 2.5t21.5 -6.5q9 -5 21 -32t16 -49q3 -26 2 -101q-2 -80 -10 -117q-7 -29 -12 -69q-4 -34 -7 -45q-3 -23 -5 -126q-2 -93 -5.5 -114t-17.5 -36q-12 -12 -24 -11z" />
    <glyph glyph-name="two" unicode="2" horiz-adv-x="409" 
d="M59 -29q-24 0 -41.5 16.5t-17.5 39.5q0 11 6.5 24.5t14.5 18.5q22 16 28 38q18 59 27 73q53 93 66 135q15 53 36 95q18 36 21 93q3 50 -9 89q-3 10 -9 17.5t-9 5.5q-5 -2 -15 -23q-12 -22 -18 -59q-5 -32 -10 -42t-20 -14q-14 -4 -28.5 6.5t-22.5 30.5q-11 29 -12 64
t8 55q31 74 94 94q12 5 41 3q30 -1 49 -11q45 -24 70.5 -79.5t25.5 -129.5q0 -136 -87 -201q-67 -53 -103 -108q-51 -76 -53 -106v-14l64 -1q64 0 87 8q38 13 59 12.5t38 -15.5q20 -17 20 -43q0 -25 -19 -44q-17 -15 -35.5 -16.5t-53.5 10.5q-31 11 -63 11q-46 0 -88 -21
q-25 -12 -41 -12z" />
    <glyph glyph-name="three" unicode="3" horiz-adv-x="534" 
d="M259 -26q-62 -10 -110 26q-11 9 -30 34.5t-28 44.5q-28 58 -34 80.5t-2 49.5q8 49 25 63q16 14 35 7.5t27 -28.5q6 -15 3 -41l-4 -26l13 -25q20 -37 41 -61q13 -17 23.5 -22t29.5 -4q66 7 75 14q5 5 13.5 61t8.5 85q0 22 -8 31t-37 20q-32 12 -42 22q-40 41 -42 53
q-4 25 16.5 44t52.5 19q29 0 60.5 18t42.5 40q25 60 11 92q-6 13 -18 29.5t-18 20.5q-20 13 -94 2q-62 -8 -87 -36q-7 -7 -8 -13t0 -29q1 -22 -0.5 -28t-8.5 -15q-28 -36 -70 -18q-40 19 -44.5 75t30.5 100q19 24 59.5 45.5t78.5 28.5q16 3 55 1t53 -6q58 -15 82 -51
q8 -11 23 -56q12 -36 14 -54.5t-4 -45.5q-6 -25 -28 -79q-7 -19 -21 -32t-44 -29q-23 -11 -23 -15t22 -6q32 -3 64 -23.5t45 -48.5q31 -61 26.5 -129t-43.5 -126q-26 -37 -51 -51q-13 -7 -36 -6q-59 3 -94 -2z" />
    <glyph glyph-name="four" unicode="4" horiz-adv-x="532" 
d="M319 -13q-30 -5 -50 17q-21 23 -17 65q2 19 0.5 50.5t-4.5 33.5q-3 3 -19 0q-16 -2 -55 -2q-41 -1 -55 -9q-18 -8 -32 -8q-15 0 -27 12q-11 11 -9 27l5 46q4 45 19 94l6 22q26 87 32 163q7 82 27 142q22 65 68 76q15 4 32 0q30 -7 46 -36t9 -63q-4 -11 -2 -13q1 -1 15 3
q14 5 29 0q26 -11 34 -38q9 -28 -7 -142q-4 -31 -8 -115.5t-2 -89.5q2 -3 26.5 -0.5t37.5 6.5q25 9 44.5 -2.5t19.5 -34.5q0 -16 -13 -28.5t-29 -12.5q-5 0 -27 10q-42 20 -55 13q-6 -4 -7 -25q-5 -47 4 -71q13 -37 2 -60q-5 -10 -16.5 -19.5t-21.5 -10.5zM139 206
q4 -4 52 -3.5t53 4.5q16 12 9 148q-4 96 5 148q2 10 -1 10t-19 -30t-23 -50l-20 -52q-23 -66 -41 -123l-14 -41q-4 -8 -1 -11z" />
    <glyph glyph-name="five" unicode="5" horiz-adv-x="531" 
d="M161 -4q-63 19 -82 62q-22 53 -22 100q0 25 21.5 37.5t41.5 -0.5q14 -8 18 -19t4 -38q1 -46 12 -59t51 -12q61 0 80 16q9 7 27.5 31t23.5 35q4 10 11 43q15 73 -8 140q-12 37 -13 46q-2 11 -8 17q-8 7 -31 6.5t-47 -8.5q-76 -25 -104 -51q-19 -19 -33 -11.5t-24 43.5
q-26 86 -28.5 124.5t13.5 105.5q13 59 18 65q12 24 34 27q10 2 23 -4.5t17 -15.5q8 -14 33 -10l38 4q59 5 97 24q30 14 40 16q13 4 32 1t29 -10q27 -19 26 -55q-1 -21 -11 -33q-9 -12 -24 -20q-13 -7 -36 -6q-22 1 -48 15l-26 13l-21 -4q-19 -3 -57 1q-20 2 -29.5 3t-16 1
t-7.5 -1t-1 -3q3 -12 -5 -89t-13 -86l-5 -16q-1 -7 -0.5 -8.5t4.5 -0.5l43 15q63 23 128 23q32 0 54 -8q40 -16 60 -42q61 -79 31 -227q-12 -57 -19 -74.5t-27 -39.5q-23 -24 -44 -36t-63 -22q-26 -7 -81.5 -8.5t-75.5 3.5z" />
    <glyph glyph-name="six" unicode="6" horiz-adv-x="572" 
d="M271 -8q-120 5 -161 89q-20 42 -51 157q-23 86 9.5 205t96.5 180q38 36 82 58q26 14 94 32q37 9 67 -13q13 -11 41 -25q31 -14 43 -25q42 -37 27 -104q-11 -44 -27 -60q-16 -17 -37.5 -18t-38.5 14q-15 14 -19.5 28.5t-3.5 51.5q0 42 -7 50q-18 24 -62 14
q-46 -10 -61 -23t-29 -56l-14 -39l-1 -60q-2 -60 1 -60t16 13q14 15 28 20t40 5q29 0 47 -5l30 -8q11 -2 43.5 -15t40.5 -18q6 -4 16 -18l9 -13v-70q0 -71 -7.5 -103.5t-34.5 -80.5q-17 -31 -27.5 -42.5t-39.5 -30.5q-31 -21 -51 -26.5t-59 -3.5zM310 90q15 -8 24 -7t21 12
q15 14 29 22q23 17 43 62l11 27v62q0 60 -5 68q-4 6 -29 14q-36 11 -74.5 9t-61.5 -15q-12 -7 -31 -6l-19 1l1 -35q1 -29 16 -92l20 -69q5 -11 22.5 -28t32.5 -25z" />
    <glyph glyph-name="seven" unicode="7" horiz-adv-x="564" 
d="M248 7q-11 0 -15.5 3t-8.5 13q-6 14 -3 29.5t19 64.5l31 90q9 26 18.5 63t7.5 39q-1 1 -23 -3q-95 -25 -107 28q-3 16 6 30.5t26 21.5q21 8 89 13l38 2l5 31q5 32 9 74q3 41 11 65l10 29q2 5 -5 5t-41 -7q-106 -24 -144 -29q-67 -8 -92 5q-22 12 -27.5 34t6 42t35.5 27
t79 0q47 -6 102 5q47 9 128 14q39 2 57.5 -6t36.5 -35q15 -24 18 -38q5 -38 -25 -89q-24 -41 -46 -101q-6 -16 -9 -25t-4 -15t0 -8t4 -2q4 0 15 -9q19 -20 2 -37q-7 -8 -24 -8t-19 -4q-5 -8 -49 -116q-12 -28 -31 -72q-19 -37 -26 -58q-15 -37 -27 -51.5t-27 -14.5z" />
    <glyph glyph-name="eight" unicode="8" horiz-adv-x="534" 
d="M251 -43q-55 11 -82 28.5t-37 46.5q-5 17 -9.5 65.5t-3.5 71.5q1 34 21 64q13 20 16 28q5 10 17 26q11 14 9 16l-3 1q-3 1 -8.5 2.5t-9.5 2.5q-41 8 -69.5 34.5t-37.5 65.5q-2 9 -4 87q-1 61 3 83t21 55q48 94 217 115l39 5q7 1 22 -4.5t21 -10.5q18 -18 7 -41
q-4 -7 -13 -13.5t-14 -6.5q-6 0 -48 -22.5t-65 -37.5q-33 -22 -41.5 -36t-11.5 -52q-4 -40 -2 -72q1 -34 7 -41q6 -6 31 -19t28 -12q4 3 31.5 40.5t31.5 46.5q6 11 14 38q6 24 11 33q5 12 6 24q4 28 11 39.5t23 14.5q39 8 59 -53q12 -37 2 -66t-51 -76l-46 -52l-13 -15
l11 -5q6 -3 26 -8q32 -8 53.5 -33t42.5 -78q20 -52 21 -126q1 -47 -7 -62q-20 -41 -79 -67q-53 -21 -82 -26t-65 2zM276 29q18 0 27 3t39 18q39 20 50 30.5t13 30.5q5 39 -7 74q-4 12 -23 51t-24 45q-4 4 -20 10q-15 5 -35 5h-19l-37 -41q-36 -41 -48 -47q-24 -11 -24 -53
q1 -26 7 -61t12 -42q6 -9 33.5 -16t55.5 -7z" />
    <glyph glyph-name="nine" unicode="9" horiz-adv-x="562" 
d="M227 -8l-51 7q-70 9 -83 77q-7 37 5.5 60.5t39.5 23.5q14 0 22 -5q12 -9 16.5 -18.5t10.5 -41.5q1 -6 16 -12q15 -5 33 -14q18 -7 29 -9q9 -2 27 2t25 9q31 27 55 174l15 90q2 16 5.5 83t2.5 82q-1 32 -32 63q-25 23 -35.5 25.5t-30.5 -9.5q-25 -15 -58 -30
q-36 -17 -50 -29t-22 -29q-9 -19 -8 -70l1 -52l10 -17q10 -16 25.5 -30.5t25.5 -16.5q12 -2 68 11q28 9 40 33q5 11 20 -2q19 -16 11 -32q-22 -47 -81 -80q-46 -25 -78 -20q-46 7 -83 33.5t-56 66.5l-12 25v79q0 63 3 87t16 63q25 75 85 114q26 15 68 24q27 6 49 5
q30 -2 44 -8.5t67 -45.5q20 -14 43 -38.5t34 -44.5q12 -21 22 -75q5 -36 13 -55q16 -44 17 -111q2 -55 -4 -110q-9 -75 -29 -117q-22 -44 -56.5 -74.5t-71.5 -37.5q-22 -5 -62 -6t-61 3z" />
    <glyph glyph-name="colon" unicode=":" horiz-adv-x="265" 
d="M144 405q-32 -8 -57 22q-20 25 -1 65q11 23 32 29q11 4 23 0q9 -2 22.5 -13.5t18.5 -19.5q11 -22 -4 -51q-12 -26 -34 -32zM144 36q-27 2 -42.5 18t-10.5 40q2 8 17 26.5t24 23.5q7 4 21 3.5t23 -4.5q22 -11 27 -35t-11 -46q-18 -28 -48 -26z" />
    <glyph glyph-name="semicolon" unicode=";" horiz-adv-x="271" 
d="M120 398q-10 3 -19.5 13.5t-8.5 18.5q5 27 15.5 45.5t22 26t24.5 10t21.5 1.5t12.5 -3q28 -13 28 -40.5t-26 -52.5q-34 -32 -70 -19zM110 -124q-6 4 -6 26q0 16 12 66q13 53 16 58q5 10 5 15q0 3 -10 8q-15 8 -24 23.5t-6 30.5q7 34 49 46q19 5 20 6q24 11 40 -8
q11 -13 11 -24q0 -16 -9 -34q-10 -20 -10 -26q0 -4 -7 -23q-8 -24 -25 -57q-6 -12 -6 -15q0 -2 -11 -24q-4 -8 -10 -25.5t-7 -19.5q-6 -16 -11 -21.5t-11 -1.5z" />
    <glyph glyph-name="less" unicode="&#x3c;" horiz-adv-x="387" 
d="M310 114q-14 -7 -25.5 -2t-31.5 28q-24 28 -38 39q-55 47 -78 82q-18 26 -26.5 33.5t-23.5 11.5q-46 12 -35 55q1 9 15.5 24.5t74.5 74.5q85 85 99 103q21 28 34 32q18 6 37 -4q20 -10 24.5 -32t-8.5 -46q-20 -43 -148 -151l-10 -7l15 -22q11 -17 23 -38q9 -16 49 -56
q70 -68 72 -89q3 -25 -19 -36z" />
    <glyph glyph-name="equal" unicode="=" horiz-adv-x="607" 
d="M175 393q-51 -1 -64.5 0.5t-24.5 8.5q-48 27 -32 59t82 39q38 4 196 -4q239 -11 224 -46q-1 -2 -4 -5q-4 -4 -44.5 -19.5t-74.5 -24.5q-19 -5 -258 -8zM432 258q-239 3 -258 8q-15 4 -39 -1t-40 -8.5t-28 8.5t-12 45t104.5 46.5t194.5 12.5t117 -4q67 -7 82.5 -38.5
t-32.5 -60.5q-10 -6 -23 -7.5t-66 -0.5z" />
    <glyph glyph-name="greater" unicode="&#x3e;" horiz-adv-x="500" 
d="M134 82q-21 5 -29.5 26t3.5 40q22 34 137 172q31 38 29 40t-30 13q-79 32 -133 84q-25 24 -43 53.5t-18 45.5q0 18 13 36t30 25q33 10 64 -7q13 -7 39 -35q47 -51 68.5 -67.5t63.5 -34.5q98 -41 114 -75q18 -36 -7 -72t-104 -88q-66 -44 -127 -110q-29 -32 -41.5 -40.5
t-28.5 -5.5z" />
    <glyph glyph-name="question" unicode="?" horiz-adv-x="412" 
d="M186 250q-20 -14 -39.5 -7t-31.5 31q-7 14 -7 41q0 90 62 124q21 11 24 16q6 8 20 45q24 64 23 146q-1 41 -6 55t-22 25q-30 19 -45 13q-9 -4 -21 -15.5t-17 -22.5q-6 -12 -6 -41.5t5 -54.5q15 -71 -17 -93q-23 -15 -48 -2q-29 16 -47 72.5t-11 109.5q3 24 16 50
q12 25 41 54q43 43 79 53q12 3 47 3q29 0 52 -10q31 -14 58 -35.5t37 -40.5q12 -24 15 -41t5 -64q2 -69 -15 -133q-20 -72 -90 -136q-6 -5 -12 -11l-11 -11l-5 -6q-15 -15 -15 -61q0 -40 -18 -53zM172 54q-26 0 -42 16.5t-16 44.5q0 20 12 37t32 25q25 11 48 1
q24 -10 32 -41q4 -15 -1 -30q-7 -24 -25 -38.5t-40 -14.5z" />
    <glyph glyph-name="at" unicode="@" horiz-adv-x="958" 
d="M542 -63q-38 -7 -87.5 -6.5t-67.5 7.5q-49 20 -78 24q-105 16 -112 18q-25 9 -55 39q-33 33 -47.5 60.5t-27.5 78.5q-17 70 -17 117t17 110q8 29 16 64q9 43 27.5 92.5t34.5 72.5q11 17 37.5 42.5t48.5 39.5q90 62 181 75l32 5l29 -4q87 -15 111 -18q67 -9 108.5 -21.5
t95.5 -39.5q50 -25 69.5 -51.5t36.5 -90.5q14 -58 13.5 -83.5t-17.5 -83.5q-13 -42 -30 -123q-9 -44 -30 -75q-18 -28 -50.5 -57t-52.5 -36q-9 -3 -31 -3q-80 0 -105 93q-4 17 -3 63q1 11 1.5 21.5t0.5 16.5t-1 6q-3 0 -10 -18q-7 -13 -46.5 -62t-65.5 -77
q-47 -49 -97 -56.5t-88 29.5q-34 32 -38.5 85t18.5 142q25 100 73 172q47 72 110 97q32 13 66 5q43 -8 66 -50q9 -19 8 -56q0 -38 -7.5 -53t-29.5 -17q-21 -2 -34 12.5t-13 41.5q0 17 -3 19q-5 4 -19.5 -14.5t-27.5 -44.5q-42 -83 -48 -104q-8 -28 -11.5 -71.5t1.5 -57.5
q5 -10 14 -13q12 -5 23 2q12 8 41 47.5t51 76.5q34 58 58 74q12 8 18 28q15 56 50 93q44 49 80 18q10 -9 10 -29t-13 -41q-14 -24 -36 -75l-13 -28q-25 -55 -12 -117q3 -17 13 -41.5t15 -29.5q6 -5 15 -1q8 4 30 26t26 30q11 21 23 72l8 38q2 14 9 37q5 17 12 53l5 30
l-13 54q-16 60 -20 66q-16 31 -95 71q-53 26 -164 39q-57 8 -74 7t-44 -14q-38 -17 -88 -68.5t-67 -90.5q-19 -41 -46 -152q-12 -50 -13 -79.5t8 -73.5l13 -68q7 -39 30 -78q9 -13 95 -44q22 -8 47 -20q21 -10 40 -14q45 -8 109 2q43 7 51.5 7t16.5 -7q9 -8 10 -20t-7 -19
q-12 -13 -67 -23z" />
    <glyph glyph-name="A" unicode="A" horiz-adv-x="557" 
d="M167 -74q-18 -38 -60.5 -35.5t-59.5 42.5q-10 26 -5 56q3 23 4 52q1 27 6 46.5t36 114.5l6 17l-12 12q-43 43 -28 80q7 17 22.5 23.5t33.5 0.5q12 -5 16 -5q2 0 11 27q10 33 35 73q12 17 28 44.5t16 30.5q0 1 8 13q7 10 28 48q54 101 98 144q24 24 36 28q19 8 39.5 3.5
t32.5 -18.5q17 -19 31 -64q14 -39 16 -77q9 -112 -20 -238q-10 -46 -11.5 -69t1.5 -101q3 -96 11 -115q7 -23 7 -33q1 -15 -10 -26t-26 -11q-16 0 -26 9t-14 18q-20 52 -24 156q0 44 -2 44l-2 -1l-5 -2.5t-6 -2.5q-18 -8 -104 -16q-54 -4 -56 -7q-2 -1 -15 -59
q-15 -67 -17 -74q-4 -21 -3 -26q0 -17 -6 -54t-10 -48zM394 265q1 0 9 52q2 12 5 32t5 31q5 28 -1 110.5t-15 106.5q-6 17 -9 17q-2 1 -14.5 -14t-27.5 -36.5t-27 -40.5q-58 -105 -72 -143q-8 -22 -14 -57t-2 -38q2 -2 55 -6t80 -5q10 0 20 -5z" />
    <glyph glyph-name="B" unicode="B" horiz-adv-x="528" 
d="M112 -25q-10 10 -11 36q-3 21 -5 60q0 18 -5 68q-2 38 -2 69q0 26 -8 118t-10 97q-3 5 -15 55q-16 58 -28 142l-5 33q-5 22 1 37q7 32 33 46q41 20 72 -5q27 -19 34 -54q2 -11 4 -11t20 22q33 37 89 65q76 41 119 29q41 -11 65 -40t38 -85q15 -49 3 -93
q-19 -62 -123 -142q-37 -30 -37 -32q0 -4 13 -7q42 -18 74 -85q40 -90 65 -174q20 -74 -15 -103q-57 -46 -142 -6q-25 11 -62 36t-47 37q-18 22 -17 43t20 24q10 3 17 -0.5t23 -18.5q13 -12 30 -20q13 -5 33 -16q19 -10 45.5 -17.5t35.5 -5.5q10 2 11 8t-6 26
q-9 26 -21.5 46t-61.5 87q-40 53 -70 82q-28 25 -34.5 33.5t-9.5 22.5q-3 17 4.5 30.5t36.5 45.5q23 24 64 74q32 40 41 59.5t8 47.5q-2 20 -9 26q-11 8 -39 0t-53 -27q-27 -20 -66 -64t-40 -57q-2 -7 0 -58.5t4 -68.5q8 -41 3 -160q0 -11 -2 -35q-2 -46 -1 -84
q-1 -68 -4 -93t-13 -38q-8 -10 -21.5 -11.5t-22.5 6.5z" />
    <glyph glyph-name="C" unicode="C" horiz-adv-x="578" 
d="M293 -34q-34 -4 -56 0t-52 20q-43 25 -90 63q-45 36 -67 114q-8 30 -8 109q0 64 3.5 92t15.5 67q18 51 56 118q38 68 68 105q25 29 59.5 52.5t62.5 29.5q16 3 46 1t47 -8q78 -27 109 -58q51 -51 51 -118q0 -22 -10 -38q-12 -21 -33.5 -28t-42.5 4q-28 14 -34 55
q-2 22 -6 31q-7 14 -54 36q-29 14 -42.5 14.5t-29.5 -11.5q-50 -41 -87 -120q-28 -60 -36 -96t-8 -102t6 -89q10 -35 25 -58t54 -63l31 -32l25 -3q27 -5 44 1q40 10 58 26q12 12 43.5 56t36.5 56q11 26 29 26q23 0 23 -30q0 -14 -9.5 -32t-48.5 -78q-26 -37 -43.5 -54
t-45.5 -30q-48 -23 -90 -28z" />
    <glyph glyph-name="D" unicode="D" horiz-adv-x="666" 
d="M407 -25q-39 0 -99 21q-29 10 -50 25q-12 10 -31 13q-14 0 -30 7q-12 5 -17 2q-29 -21 -55 -22q-62 -3 -81 54q-8 25 0 55t29 51q12 13 22 20q6 2 5 26q0 94 11 149q4 19 8 89q5 108 16 127q14 25 34 33q9 3 0 5l-5 1q-15 2 -36 -1q-39 -4 -58 17q-11 11 -11 27
q0 29 21 41q11 6 45 12q12 2 70 0.5t67 -3.5q3 -1 11 -3t21 -5.5t22 -5.5q44 -11 54 -16q40 -20 120 -94q39 -37 56.5 -62.5t25.5 -57.5q4 -15 13 -45q27 -83 34 -113t7 -65t-4.5 -54t-22.5 -56q-13 -28 -13 -30q0 -13 -27 -51q-13 -18 -44.5 -44t-54.5 -37q-22 -11 -53 -10
zM397 84q19 0 29.5 5t23.5 21q34 44 52 139q18 94 5 145q-12 45 -18 59t-20 30q-41 48 -141 118q-13 8 -44 15l-45 12q-27 6 -33 0q2 -4 6 -4q6 0 17 -10.5t16 -21.5q13 -30 12.5 -68t-16.5 -118q-10 -51 -16 -100q-10 -105 -16 -127q-1 -5 3 -8.5t12 -5.5q9 -2 27 -16
q4 -2 11 -7t12.5 -8.5t9.5 -5.5q6 -3 27 -15q42 -29 86 -29z" />
    <glyph glyph-name="E" unicode="E" horiz-adv-x="555" 
d="M455 -28q-21 -9 -47 12q-17 13 -34 20q-13 5 -18.5 5.5t-24.5 -3.5q-53 -11 -85 -6q-30 5 -54 0q-52 -10 -82 1.5t-30 41.5q0 12 3 21q13 39 19 123q1 9 8 51q7 33 5 37q-3 3 -11 3q-30 0 -48.5 21t-11.5 47q5 19 24 32t41 13q10 0 14 6q2 4 0 61.5t-5 66.5q-3 6 -18 9
q-35 9 -52 41q-9 18 -8 39.5t11 36.5q25 36 91 45q22 3 79 2t90 -4q53 -6 101 -35l81 -44q37 -20 49.5 -32.5t12.5 -30.5q0 -27 -25 -32q-38 -8 -136 31q-43 17 -115 12q-45 -3 -53 -6q-6 -5 -6 -17q0 -15 -7 -34q-6 -20 -6 -65l1 -45l15 -7q21 -10 47 -12.5t95 -3.5
q88 0 99 -6q25 -13 32.5 -30.5t-6.5 -31.5q-17 -17 -44 -5q-13 7 -119 10q-106 4 -117 -1l-12 -4v-82q0 -107 4 -111q6 -6 63 -8q48 -2 70.5 -6.5t46.5 -15.5q19 -9 52 -37t36 -38q8 -25 -15 -35z" />
    <glyph glyph-name="F" unicode="F" horiz-adv-x="520" 
d="M206 -39q-6 -1 -7 1t-1 15q-1 19 -14 69q-13 49 -18 164q-4 72 -5 75q-2 5 -18 9q-38 9 -50 33q-13 27 -1 49.5t43 31.5l19 5l-2 31q-2 31 -9 84l-7 54l-22 -1q-45 -3 -73 24q-36 37 -13.5 84t80.5 53q20 2 63 2q33 0 40.5 -1.5t19.5 -8.5q34 -22 100 -34q26 -6 29 -7
q5 -2 39 -5.5t54 0.5q38 10 52 10q16 0 26 -11t8 -22q-2 -13 -10 -19t-27 -7q-14 -1 -48 -9l-80 -21q-51 7 -81 4q-33 -4 -34 -5q-4 -4 -9 -60t-5 -90q0 -51 6 -56q8 -7 60 -4t90 14q82 23 91 -21q2 -11 -3.5 -22.5t-15.5 -16.5q-10 -4 -59 -7q-49 -2 -72 -10
q-5 -2 -14 -5.5t-20 -7.5t-17 -6l-29 -10l-2 -13q-3 -24 -5 -85q-5 -111 -20 -166q-1 -3 -3 -12.5t-3 -13.5q-5 -22 -11 -44q-4 -10 -12 -11z" />
    <glyph glyph-name="G" unicode="G" horiz-adv-x="529" 
d="M147 -55q-69 0 -107 83q-15 32 -17.5 52t-2.5 101q0 223 8 296t38 129q27 48 63 78q40 33 104 53q65 19 152 -50q41 -31 58 -59q27 -42 39 -100q15 -72 -15 -102q-20 -21 -47 -15t-40 33q-12 29 -4 65q3 33 3 36q0 37 -21 60q-25 25 -66 42q-15 7 -26.5 5.5t-33.5 -11.5
q-21 -9 -37 -26q-16 -19 -23 -49q-14 -51 -19 -105q-1 -10 -2 -23t-2 -19.5t-1 -7.5q-11 -42 -11 -153q0 -59 9 -99q16 -82 29.5 -101t62.5 -26q21 -3 30 -1t33 15q4 1 33 16q20 9 24.5 13t13.5 18q15 22 16 59l1 21l-21 -1q-18 -1 -32 -10q-21 -17 -45 -17q-43 0 -57 44
t17 80q15 14 28 17q13 4 24.5 1.5t47.5 -13.5l29 -8q5 -1 23 -10q13 -7 43 -8q22 0 28 -1.5t18 -9.5q17 -11 17 -20q0 -19 -20 -12q-21 6 -39 1q-5 -1 -5 -47q1 -39 -2.5 -52t-19.5 -36q-11 -16 -22 -25t-39 -26q-50 -31 -61.5 -36.5t-29.5 -7.5q-21 -1 -51 -12
q-51 -19 -73 -19z" />
    <glyph glyph-name="H" unicode="H" horiz-adv-x="543" 
d="M456 -74q-13 5 -28 45q-24 70 -48 185q-22 111 -27 164q0 3 -5.5 3t-8.5 -3q-7 -7 -20 -12q-15 -9 -33 -18q-42 -26 -94 -31l-30 -1l-1 -21q-9 -152 13 -212q20 -55 -10 -68q-22 -9 -39 16t-33 90q-15 64 -25 175q-7 80 -11 92q-11 30 -14.5 93.5t2.5 110.5
q13 97 24 134.5t31 51.5q11 7 28.5 5.5t28.5 -10.5q23 -18 32 -62q5 -21 -1 -118l-9 -120q-4 -23 -3 -30t9 -10q13 -5 102 1l59 4l8 71q16 150 42 234q10 35 38 48t54 -6q24 -20 30 -59q2 -21 -9 -49q-23 -61 -25 -78q-1 -4 -10 -76q-7 -66 -8 -73q-15 -132 -13 -231
q1 -50 10.5 -110.5t20.5 -77.5q13 -21 3.5 -38.5t-30.5 -8.5z" />
    <glyph glyph-name="I" unicode="I" horiz-adv-x="383" 
d="M264 -21q-77 0 -90 3q-24 6 -31 6q-46 0 -69 14q-9 5 -4 10q3 2 1 7.5t1.5 12.5t10.5 13.5t29 11t56 4.5q6 0 26 2l-6 25q-16 69 -19.5 94.5t-5.5 99.5l-2 92l-34 146v96q-44 1 -58 9q-29 17 -29 42q0 48 79 56q8 1 17.5 2t15.5 2t7 1q79 0 111 -8q26 -6 31 -6
q15 0 34.5 -9.5t31.5 -21.5t7 -18q-1 -1 -2.5 -6.5t-6 -10.5t-13.5 -11t-28.5 -10.5t-47.5 -5.5v-12q0 -29 3 -74q3 -25 -2 -73q-14 -124 -4 -185q9 -48 -6 -122q-6 -24 -15 -89h13q74 -1 89 -9q29 -16 29 -42q0 -10 -2.5 -15.5t-10 -8t-14 -3.5t-23.5 -2t-29 -2
q-8 -1 -17.5 -2t-15.5 -2t-7 -1z" />
    <glyph glyph-name="J" unicode="J" horiz-adv-x="405" 
d="M316 622q2 -47 6 -82q4 -22 0 -93q-5 -65 -5 -195q0 -114 -3.5 -144t-21.5 -65q-20 -40 -52 -61q-18 -11 -44 -11q-50 0 -78 28q-24 23 -35.5 45.5t-19.5 58.5q-10 50 -4.5 70.5t28.5 21.5q25 0 30 -33q12 -102 35 -128q9 -10 16 -10.5t25 7.5q8 3 10 5.5t2 12.5
q0 15 -7 45q-12 61 -13 192q0 120 -16 285q-5 70 -4 87q-38 0 -49 3q-24 6 -31 6q-46 0 -69 14q-7 6 -4 10q3 2 1 7.5t1.5 12.5t10.5 13.5t29 11t56 4.5q4 0 31 3t66 2q74 -1 89 -9q29 -16 29 -42q0 -18 -13 -24q3 -13 4 -48z" />
    <glyph glyph-name="K" unicode="K" horiz-adv-x="496" 
d="M429 -22q-30 -16 -38 32q-4 30 -28 70q-17 30 -53 60l-44 37q-12 11 -34 24t-39.5 21t-18.5 5t-5 -53q-9 -120 -16 -150q-8 -39 -40 -33q-42 7 -33 155q4 57 5 60t5 32q2 35 -21 42q-23 8 -37.5 31t-10.5 45q4 36 51 64q5 3 0 54q-5 50 -3 69q3 27 3 68q0 51 6 67
q16 44 56 52q31 6 54 -12t32 -54q5 -20 0.5 -94t-12.5 -106q-2 -8 5 -8q6 0 26 7q44 15 71 35q43 36 80 108q40 79 55 101.5t27 22.5q7 0 16 -7q11 -8 8 -22.5t-24 -56.5l-12.5 -25t-11.5 -24l-6 -11q-39 -100 -154 -212q-30 -26 -30 -31q0 -3 19 -16q25 -16 58.5 -54.5
t52.5 -71.5q24 -45 42 -154q4 -22 8 -28q7 -10 4 -22t-13 -17z" />
    <glyph glyph-name="L" unicode="L" horiz-adv-x="474" 
d="M171 1q-96 0 -122 38q-14 22 -6 47.5t33 36.5q13 6 13 10l6 46q8 74 -2 177q-4 32 -4 64q0 31 -4 81q-19 188 34 203q24 7 48.5 -10t35.5 -48q13 -36 2 -167q-5 -45 -7 -99q-4 -49 -9 -67q-26 -93 -26 -156v-24l63 -2q80 -3 151 -18q15 -2 35 -12q20 -8 37 -12
q25 -4 25 -23q0 -16 -14 -21.5t-48 -3.5q-45 4 -120 -20q-63 -21 -121 -20z" />
    <glyph glyph-name="M" unicode="M" horiz-adv-x="664" 
d="M121 -128q-15 -10 -32.5 -9t-30.5 13q-15 13 -17 32.5t3 80.5q6 66 6 87q0 44 15 139q11 69 38 136q13 34 30 84q2 7 5.5 18.5t6 19l3.5 10.5q6 21 15 57q28 110 62 126q13 6 19 11q40 30 64 10q19 -15 29 -57q11 -44 5 -119q-4 -59 -3 -116.5t6 -59.5q2 -1 6 15
q3 9 22 85q19 74 44 122q8 16 32 48q25 32 37 57q15 29 39 54.5t49 37.5q15 8 36 5q19 -2 33 -17.5t19 -37.5q6 -30 -15 -92q-13 -36 -20 -75q-8 -36 -24 -74q-3 -6 -8 -18t-6.5 -15.5t-5 -12t-4.5 -11.5t-3 -9.5t-3 -12t-2 -12.5t-3 -17q-9 -58 -10 -86t4 -86q7 -69 16 -93
q11 -27 7 -40q-7 -26 -33 -29q-37 -4 -57 56q-7 21 -13 89.5t-2 91.5q5 28 3 64q-2 40 3 65q5 21 2 48q-1 17 -0.5 24l2 28t2.5 34q1 19 -15 -14q-7 -16 -18 -43q-22 -54 -51 -116q-30 -65 -37 -82q-8 -22 -5 -67q3 -43 -2 -54q-12 -25 -35 -29q-9 -1 -22.5 3.5t-21.5 11.5
q-21 20 -28 58q-9 48 10 155q9 47 5 87q-4 43 -28 126q-2 5 -5 5q-3 -2 -22 -43t-25 -56q-8 -24 -11 -138q-2 -100 -10 -155q-4 -27 -6 -91q-4 -106 -13 -148.5t-31 -58.5z" />
    <glyph glyph-name="N" unicode="N" horiz-adv-x="460" 
d="M375 -39q-22 -1 -38 6.5t-26 25.5t-15.5 32t-13.5 42.5t-12 41.5q-7 19 -10 23q-16 37 -23 75q-1 10 -10 55q-24 132 -48 187q-3 12 -3 14q0 5 -2 6t-4 -4l-2 -4q-2 -7 2 -58q4 -47 2 -134.5t-8 -126.5q-5 -50 -5 -82v-46l-9 -8q-11 -8 -19 -6q-17 3 -24.5 24.5
t-8.5 70.5q0 48 -11 93q-2 10 -19 111q-4 25 -1 70q4 65 -7 114q-5 31 -8 62q-1 27 -7 62q-12 49 4.5 87.5t55.5 51.5q45 16 79 -18q21 -23 21 -37q0 -4 10 -18q12 -19 23 -66q1 -4 6.5 -23.5t8.5 -30.5l16 -62q16 -72 16 -122q0 -11 3 -13q1 -1 1.5 22.5t-0.5 72.5
q-2 91 3 145q8 58 18 97q3 10 5 25q5 28 31 28q13 0 22 -9q7 -8 7 -32q2 -27 5 -36q5 -11 6 -122q3 -111 8 -145q9 -64 10 -192q0 -80 1 -97t7 -32q18 -50 1 -81q-23 -38 -38 -39z" />
    <glyph glyph-name="O" unicode="O" horiz-adv-x="548" 
d="M250 -46q-61 0 -100 42q-34 35 -61 102q-32 79 -42 132q-7 34 -7 124q0 126 14 182q15 62 43 97q62 77 106 28q18 -19 18 -53q0 -21 -14 -56q-36 -90 -37 -264q-1 -71 1.5 -96.5t13.5 -51.5q22 -54 77 -42q21 4 32 19q26 34 56.5 85.5t45.5 86.5q2 5 29 100q10 34 6 112
q-3 73 -23 92q-24 22 -55 29t-54 -5q-22 -11 -36 -3q-25 15 -9 58q15 43 55 58q9 3 33 1t40 -7q16 -4 40 -19.5t38 -29.5q25 -25 39 -81l9 -36l-1 -126q-1 -131 -5 -155q-7 -56 -8 -62q-5 -33 -13 -56q-19 -53 -67 -101q-63 -63 -74 -69l-28 -16q-34 -19 -62 -19z" />
    <glyph glyph-name="P" unicode="P" horiz-adv-x="542" 
d="M78 -50q-11 0 -16 7t-9 27q-4 29 -7 39q-3 12 -5 62q-2 51 8 248q3 45 -2 116q-6 82 10 222q3 25 27 41q12 8 29.5 7.5t30.5 -9.5q16 -12 27.5 -41t13.5 -63q0 -8 1.5 -14.5t2.5 -9.5t2 -3q2 0 34 28q35 30 89.5 70.5t75.5 51.5q20 11 43 17q27 7 51 1q43 -13 69 -63
q7 -13 8 -22.5t1 -50.5q0 -57 -8 -82q-10 -29 -21 -47q-25 -43 -80 -88q-3 -2 -47 -39q-38 -34 -93 -52q-18 -4 -45 -17q-37 -17 -59 -17.5t-39 16.5q-10 10 -13 5q-3 -6 -3 -52q0 -126 -29 -202q-2 -7 -12 -35q-3 -9 -7 -25q-8 -26 -28 -26zM178 369q8 6 25 12q4 1 10 3.5
t14 6t11 4.5q24 11 33 12q29 8 80 68q41 50 57 64q22 24 26 32.5t4 27.5q-2 24 -3 25q-3 3 -39 -17q-33 -18 -63 -31q-40 -20 -68 -37q-13 -7 -37 -20.5t-29 -16.5q-19 -11 -22 -19t-7 -59q-4 -46 -6 -53q-2 -10 5 -7z" />
    <glyph glyph-name="Q" unicode="Q" horiz-adv-x="531" 
d="M370 -89q-14 3 -21 22t-9 39l-2 21q-2 4 -29 4q-85 4 -164 66q-23 19 -52.5 65.5t-38.5 79.5q-6 24 -10.5 87t-3.5 108t7 68.5t31 84.5q52 123 84 155q41 42 82 51q25 5 48 -7.5t30 -34.5q3 -11 -6 -25t-28 -35t-27 -31q-22 -29 -48 -112q-17 -54 -23 -71q-9 -26 -11 -41
t-7 -78q-6 -80 -4 -98t15 -41q22 -37 27 -36l7 -2q48 -16 47 1q0 4 -3 10q-1 1 -5.5 10t-5.5 11.5t-3.5 11.5t2.5 11q13 22 40 22q16 0 21 -0.5t17 -2.5t19.5 -9t13.5 -19q9 -16 11 -16q3 0 13.5 23.5t14.5 41.5q16 60 23 130q5 35 -6 144q-4 36 -10.5 55.5t-25.5 46.5
q-12 19 -8 38t23 29q18 10 41 0q22 -10 29 -38q7 -21 11 -27q20 -37 30 -148q5 -56 4.5 -87.5t-10.5 -111.5q-9 -83 -39 -158q-16 -41 -33 -62l-12 -15l4 -34q8 -59 -1.5 -81.5t-48.5 -14.5z" />
    <glyph glyph-name="R" unicode="R" horiz-adv-x="501" 
d="M338 -30q-64 1 -95 83q-15 37 -21 73q-1 7 -25 44.5t-38 53.5q-6 7 -7 -7q-2 -21 5 -137q2 -41 0.5 -56.5t-10.5 -25.5q-14 -19 -39 -12q-24 6 -30 46q-9 45 0 114q3 48 3 75q1 46 -10 85q-15 65 -22 168l-7 85q-5 46 2 88t23 60q17 20 43.5 20.5t44.5 -19.5q7 -7 14 -24
t7 -26q0 -18 15 -1q51 61 106 77q37 10 71 -6q15 -6 38 -27.5t32 -36.5q31 -49 21 -119q-7 -48 -27 -99t-43 -77q-16 -17 -61.5 -51t-64.5 -43q-20 -9 -20 -12t25 -39q23 -36 41 -45q27 -13 63 -61q28 -37 34.5 -55.5t-0.5 -40.5q-15 -52 -68 -52zM185 382q1 -5 28.5 18
t58.5 53.5t41 44.5q37 57 15 96q-12 18 -14 19q-14 11 -38 3q-13 -5 -42.5 -24t-43.5 -32l-12 -12l3 -37q3 -30 3 -82q1 -24 1 -47z" />
    <glyph glyph-name="S" unicode="S" horiz-adv-x="525" 
d="M387 -62q-39 -3 -118 28q-32 12 -56 12q-17 0 -23 2t-24 14q-19 12 -45 39.5t-33 42.5q-5 11 -5.5 46.5t4.5 54.5q5 23 21 31.5t32 -3.5q14 -10 20 -53q4 -28 12 -53q6 -23 29 -42q10 -7 68 -8q60 0 63 5q7 7 19.5 42.5t12.5 46.5q0 19 -15.5 54t-34.5 61
q-11 14 -14.5 16.5t-11.5 1.5q-61 -11 -85.5 -10.5t-58.5 11.5q-28 9 -38 11q-20 4 -39 21t-30 40q-17 37 -17 98.5t16 116.5q12 41 39 95q20 37 53 67t65 41q31 11 91 1q69 -9 104 -30q24 -15 52 -49t39 -60q12 -31 2 -93t-29 -76q-7 -5 -22 -5q-20 0 -31 21q-3 7 -3.5 27
t2.5 32q3 10 7 34q4 23 -3 37q-17 36 -51 52q-18 8 -48 8q-39 -1 -52.5 -6.5t-36.5 -28.5q-28 -30 -34 -42q-15 -33 -15 -94q0 -47 20 -92l9 -20l28 -2q75 -5 104 -20q25 -13 42 -41q13 -21 56 -100q32 -60 35 -65q36 -65 20 -127q-22 -85 -92 -90z" />
    <glyph glyph-name="T" unicode="T" horiz-adv-x="540" 
d="M310 -47q-15 1 -21 10t-8 34q-4 27 0 67q5 55 -11 133t-19.5 132t2.5 132q4 53 -3 81q-8 32 -8 35q0 9 -5 11t-23 0q-25 -3 -66.5 -1.5t-52.5 6.5q-31 13 -46 42.5t-6 58.5q13 43 55 59q27 10 95 -9q81 -24 150 -32q37 -4 97 -24q24 -9 68 -10q45 -2 54 -10
q19 -19 -3 -44q-20 -23 -60 -23q-17 0 -53 -6l-33 -5l-7 -35q-7 -33 -15 -55q-7 -20 -6 -93q2 -74 -4 -118q-5 -41 -7 -76q-2 -27 -4 -43q-3 -12 -7 -52q-2 -25 -8 -65l-11 -57q-4 -28 -10.5 -36t-23.5 -7z" />
    <glyph glyph-name="U" unicode="U" horiz-adv-x="430" 
d="M279 -17q-75 -28 -149 51q-33 36 -48 73.5t-25 108.5q-7 48 -13 123.5t-4 97.5q2 12 6 89q4 93 16 133q16 54 60 68q8 3 23 0.5t24 -8.5q11 -5 18 -20q6 -10 7 -22.5t3 -74.5q2 -82 -2 -131q-13 -194 -10 -236q11 -127 42 -148q8 -6 27 -11q27 -7 40 4t27 54
q19 60 23 189q4 93 7 124q8 86 -3 119q-2 5 -4 13t-5 18t-4 15q-5 25 -11 37q-6 11 -5 26t8 25q16 20 39 19.5t38 -22.5q6 -8 6 -17t-5 -60q-2 -29 1 -51q3 -40 0 -92q-3 -103 -4 -177q-3 -106 -9.5 -149t-26.5 -82q-10 -22 -39.5 -50.5t-47.5 -35.5z" />
    <glyph glyph-name="V" unicode="V" horiz-adv-x="556" 
d="M274 -30q-13 -12 -40 0.5t-41 37.5q-5 9 -20 43q-16 39 -23 54q-10 18 -17 40q-7 18 -13 32q-27 58 -40 105q-11 38 -15 184q-3 92 -21 170q-15 72 28 99q9 5 27.5 5.5t28.5 -4.5q9 -5 19 -16.5t13 -21.5q4 -10 2 -34q-2 -32 -4 -88q-4 -130 24 -201q14 -34 18 -60
t11 -130q3 -40 8 -73q11 -52 19 -52q3 0 14 36q18 51 22 60q15 41 24 126q7 64 31 151q13 43 28 119q17 85 40 138q22 47 64 44q32 -3 48 -34q8 -17 6 -41q-2 -35 -15 -75t-55 -141q-25 -60 -40 -112q-13 -43 -33 -96q-15 -39 -15 -42q0 -5 -18 -64t-26 -80q-24 -66 -39 -79
z" />
    <glyph glyph-name="W" unicode="W" horiz-adv-x="718" 
d="M456 -24q-22 9 -43.5 36.5t-34.5 61.5q-4 12 -11 56q-5 38 -8 38t-12 -21q-10 -22 -13 -31q-2 -3 -19 -48q-20 -54 -37 -72q-15 -16 -39 -17.5t-46 12.5q-32 19 -56 58q-30 49 -47 104q-27 90 -37 164q-12 92 -12.5 136.5t13.5 103.5q15 57 51 114t65 70q37 16 69 -2.5
t32 -55.5q0 -18 -12 -43q-13 -27 -21.5 -63t-11.5 -58.5t-11 -84.5q-6 -51 -12 -93q-11 -77 3 -147q7 -33 24 -69q17 -33 20 -35q2 -1 6.5 4.5t16.5 26.5q2 3 3.5 6t3.5 6q21 35 33 75q15 49 17.5 67t1.5 74q-2 72 1 85q9 46 39 57q22 8 42.5 -2t32.5 -33q7 -14 7 -79
q0 -63 5 -98q5 -30 7 -66q4 -62 19 -98q5 -12 9 -15t9 2t13 21q22 42 28 81q8 52 12 138.5t1 119.5q-3 30 -8 47t-19 49q-18 40 -21 49q-8 25 -30 56q-42 61 0 98q16 14 24 17q11 4 28 2.5t27 -6.5q21 -11 42.5 -43.5t29.5 -66.5l16 -69l12 -48v-67q0 -166 -12 -278
q-6 -56 -32 -117q-63 -145 -158 -109z" />
    <glyph glyph-name="X" unicode="X" horiz-adv-x="583" 
d="M165 -13q-36 0 -52 8q-33 14 -42 44t11 54q19 22 62 18l24 -2l10 11q23 26 44 89q21 66 16 142q-3 40 -24 118.5t-42 102.5l-18 20l-12 -13q-22 -24 -51 -24q-21 0 -39 12.5t-26 32.5q-16 39 5 79q21 38 67 61q22 11 47 12q33 2 58.5 -11.5t66.5 -53.5q52 -51 65 -124
q5 -30 6 -30q6 0 38 145q11 53 42 82q24 23 54 32q36 11 68.5 -8.5t38.5 -55.5t-14 -58t-46 -8l-11 6l-12 -14q-18 -21 -32 -68q-2 -7 -14 -57q-4 -19 -13.5 -97t-12.5 -94q-2 -7 -8 -63q-5 -45 -2 -90q5 -72 17 -91l7 -11l28 2q23 1 46 4q12 1 15.5 0t12.5 -9
q33 -34 -29 -64q-54 -26 -88 -26t-62 26q-25 22 -37 55q-8 18 -10 18q-1 1 -5 -3.5t-9 -12.5q-16 -22 -40 -44.5t-42 -30.5q-23 -11 -56 -11z" />
    <glyph glyph-name="Y" unicode="Y" horiz-adv-x="466" 
d="M195 -83q-25 -3 -37 12q-13 16 -6.5 34.5t36.5 54.5q55 65 88 180q12 42 20 107q8 54 4 54q-1 0 -3 -1q-25 -11 -85 -19q-44 -6 -72 -6q-39 2 -70 30.5t-45 74.5q-6 22 -4 62q8 125 20 174.5t39 65.5q16 10 36.5 7t33.5 -17q11 -11 14 -34q3 -24 -5 -56q-12 -46 -14 -67
t2 -58q5 -37 14 -53.5t33 -27.5q15 -7 39 -4l25 3l12 17q9 14 21.5 47.5t13.5 47.5q2 9 -6 32q-7 22 -11 63.5t-2 58.5t10 34q7 14 22 25t29 12q13 1 30.5 -5t26.5 -15q18 -18 27 -54t4 -70q-4 -26 -4 -49q-1 -50 -14 -97q-23 -89 -25 -195q-2 -58 -11.5 -96.5t-37.5 -94.5
q-22 -44 -41 -71t-62 -74q-27 -29 -45 -32z" />
    <glyph glyph-name="Z" unicode="Z" horiz-adv-x="478" 
d="M373 -35q-17 0 -29.5 5.5t-38.5 24.5q-35 28 -54 18q-9 -6 -127 -6q-23 -1 -41 18q-40 42 5 133q0 1 4 11.5t11.5 29t18 44.5t26.5 61.5t35 76t45.5 92t55.5 104.5q9 17 9 22q0 1 -40 3q-42 2 -61 7t-40 0q-21 -6 -47 -3q-41 2 -63 20t-22 49q0 56 71 68q26 4 32 4
q33 2 63 -19q17 -12 34 -15t64 -4q53 0 65 -4q12 -5 31 -3q23 2 35 -6.5t18 -32.5q8 -30 -17 -92q-18 -43 -32.5 -72.5t-28 -52t-48 -87.5t-80.5 -157q-12 -24 -14.5 -47t0.5 -33.5t6 -13.5q2 -2 17 3q44 11 115 -1q32 -6 44 -11.5t22 -17.5q32 -35 16.5 -76t-60.5 -40z" />
    <glyph glyph-name="bracketleft" unicode="[" horiz-adv-x="368" 
d="M194 -136q-54 0 -73 4t-39 19q-25 17 -22 50q2 21 -3 47q-6 29 -7 149t4 194q15 215 12 378q-1 56 1.5 73.5t12.5 29.5q11 14 22 19t36 9q32 4 82 3t60 -6q24 -13 28 -36t-15 -39q-21 -17 -76 -27l-23 -4l2 -90q0 -93 -5 -137q0 -3 -3.5 -42t-4.5 -56q-2 -29 -8 -92
q-5 -37 -8 -172t-7 -155q-4 -23 -2 -25q1 -1 56 -3q56 -2 68 -5t22.5 -12.5t13.5 -19.5q5 -22 -15 -39q-22 -15 -109 -15z" />
    <glyph glyph-name="backslash" unicode="\" horiz-adv-x="397" 
d="M281 -84q-19 8 -32 28.5t-25 61.5q-8 29 -22 70q-13 39 -27 91l-19 72q-15 55 -23 95q-10 51 -40 162q-19 65 -34 141q-9 41 -9 80t8 52q8 15 18 22q16 11 37 6t31 -22q11 -20 17 -71q12 -95 23 -151q19 -91 28 -125q4 -14 16 -73q14 -67 23 -99l16 -60q44 -159 69 -204
q18 -33 6 -55q-8 -17 -25.5 -22.5t-35.5 1.5z" />
    <glyph glyph-name="bracketright" unicode="]" horiz-adv-x="382" 
d="M115 -138q-53 9 -63.5 51.5t34.5 68.5q17 9 57 9l42 2q1 1 -3 33q-4 36 -6 118q-2 89 -7 134q-6 61 2 174q1 15 6 141q3 98 8 118l6 31l3 10h-41q-66 0 -82 20q-8 9 -8.5 22.5t6.5 22.5q9 11 21.5 15t46.5 6q31 3 54 6q11 3 32 1q22 -2 47 -2q29 -1 40 -10
q18 -15 21.5 -33t-6.5 -49q-12 -35 -15.5 -62t-5.5 -97q-2 -86 -4 -104q0 -3 -1 -15t-2.5 -30.5t-2.5 -33.5q-3 -58 2 -134q5 -63 5 -138q0 -63 4 -129q3 -59 -2 -77q-14 -47 -73 -61q-21 -5 -61 -7.5t-54 -0.5z" />
    <glyph glyph-name="asciicircum" unicode="^" horiz-adv-x="396" 
d="M270 540q-21 10 -35 36t-36 92q-14 43 -17 43q-2 0 -15 -33q-17 -42 -25 -57q-19 -35 -19 -41q0 -3 -13 -16q-11 -11 -27 -11q-26 0 -32 27q-2 11 1.5 21t24.5 53q45 92 59 143q7 24 19 36t28 12q27 0 54 -23.5t45 -63.5q19 -43 21 -47q42 -87 43 -129q1 -27 -22 -41
q-26 -15 -54 -1z" />
    <glyph glyph-name="underscore" unicode="_" horiz-adv-x="521" 
d="M108 225q-32 6 -45 18t-13 35q0 32 29 46q37 18 153 25q56 4 58 6q3 2 58.5 -0.5t66.5 -6.5q40 -14 51 -39q6 -14 2 -26q-13 -38 -64 -48q-33 -7 -152.5 -11t-143.5 1z" />
    <glyph glyph-name="grave" unicode="`" horiz-adv-x="600" 
d="M299 712q-15 0 -48 29q-18 16 -30 22q-26 14 -32 27q-7 14 -1.5 30t19.5 23q21 11 55 -9q40 -23 56 -73q7 -22 2 -35q-5 -14 -21 -14z" />
    <glyph glyph-name="a" unicode="a" horiz-adv-x="493" 
d="M49 30q-49 45 -49 157q0 42 4 62q6 30 25.5 76t36.5 69q43 59 102 73q16 4 64 3t61 -5q12 -3 25.5 -15t19.5 -24q7 -15 7 -43.5t-7 -41.5q-14 -24 -38 -24q-37 0 -47 48l-4 19h-29q-30 0 -38 -8q-22 -22 -34 -75q-10 -40 -14 -55q-9 -31 -10 -73.5t7 -52.5q3 -4 26 7
q24 11 55 47q35 39 65 64q44 36 55 55q7 17 24 67q21 63 24 68q12 20 33.5 18t28.5 -24q4 -12 0 -34q-3 -17 -9 -43.5t-15 -63t-14 -59.5q-5 -24 -10 -59q-2 -15 -5 -45q-2 -19 1 -20q4 -2 4 -19t-11 -27q-16 -14 -34.5 -8.5t-28.5 26.5t-6 86q2 32 -1 35q-2 2 -7 -5
q-2 -4 -11 -20q-11 -20 -19 -34q-26 -45 -42 -65.5t-39 -35.5q-85 -57 -146 -1z" />
    <glyph glyph-name="b" unicode="b" horiz-adv-x="434" 
d="M179 19q-21 5 -31.5 23t-8.5 40q1 16 14 27q14 13 36 17q29 6 38 13.5t11 29.5q2 20 0 59q-1 32 -6.5 48t-27.5 57q-8 15 -12.5 21.5t-6.5 5.5q-7 -3 -18.5 -23t-17.5 -39q-10 -34 -24 -38l-9 -3l2 -29q11 -151 4 -172q-8 -22 -28.5 -30t-41.5 2q-41 20 -40 113v240
q0 62 8 91q8 30 10 74t-4 70q-9 38 10 59q9 11 18 13q22 5 39 -8q20 -17 20 -130v-24v-22t0.5 -19.5t0.5 -16.5v-12.5v-8.5v-3q2 -2 22 19q35 35 73 32q30 -3 51 -24q24 -23 67 -112q18 -35 21 -52t3 -70q0 -100 -17.5 -137.5t-75.5 -67.5q-43 -22 -79 -13z" />
    <glyph glyph-name="c" unicode="c" horiz-adv-x="348" 
d="M155 37q-32 0 -53 9q-43 21 -65 69q-36 75 -36 189q0 130 61 192q24 25 65 34h56q35 0 43.5 -1t24.5 -8q39 -19 57 -51q7 -13 9.5 -38.5t-1.5 -41.5q-6 -20 -26 -33.5t-40 -11.5q-45 6 -53 54q-4 18 -11 22.5t-32 4.5q-23 0 -33 -9q-9 -9 -28 -70q-6 -17 -7 -59
q-3 -72 33 -128q19 -29 43 -34q43 -8 83 34q35 35 56 7q11 -14 3 -32t-37 -47q-27 -27 -52 -40q-18 -8 -25.5 -9.5t-34.5 -1.5z" />
    <glyph glyph-name="d" unicode="d" horiz-adv-x="478" 
d="M180 8q-45 -7 -84 11.5t-61 56.5q-12 20 -15.5 40t-3.5 67q0 63 -3 93q-9 101 40 172q40 60 97 60q21 0 27 4q7 3 31 2.5t35 -4.5q12 -5 15 -5q1 0 0.5 7.5t-2.5 19.5q-6 68 5 103q16 53 44 63q12 4 27 0q10 -3 19.5 -13.5t11.5 -21.5q3 -18 4 -21q2 -10 -1 -15
q-3 -6 -4 -98t2 -132q7 -106 15 -173q7 -63 15 -88.5t26 -41.5l11 -10l9 6q8 6 17 6q9 -1 10 -13t-6.5 -30.5t-17.5 -28.5q-22 -24 -54 -16q-52 15 -80 51q-3 4 -6.5 9t-5.5 8l-2 3q-3 2 -16 -9q-40 -36 -57.5 -47t-41.5 -15zM196 102l17 2q18 2 26 2q10 0 24 14l14 15
l-3 55q-4 62 -4 109q0 74 -7 98q-2 4 -17 3q-28 -3 -46 22q-13 19 -19 10q-4 -6 -18 -66q-4 -17 -8 -77.5t-4 -98.5q0 -32 4 -43.5t23 -27.5z" />
    <glyph glyph-name="e" unicode="e" horiz-adv-x="421" 
d="M210 42q-89 -12 -137 11q-41 19 -66 106q-7 25 -7 76q0 94 30 147q15 27 44 58q32 35 62 50q19 10 69 2.5t82 -24.5q19 -10 42 -45.5t30 -65.5q8 -35 -5 -65q-9 -22 -45 -44.5t-70 -27.5q-70 -11 -103 -1q-14 4 -25.5 5.5t-18 -0.5t-6.5 -6q0 -16 1 -29l2 -22l14 -7
q2 -1 13.5 -7.5t17.5 -9.5q15 -9 34 -9q20 0 42 -5q47 -10 62 5q8 8 20 25q23 33 39 30q8 -1 13.5 -8.5t3.5 -14.5q0 -1 -1.5 -9.5t-2.5 -13.5q-8 -35 -51 -64q-33 -22 -46 -28t-37 -9zM258 304q25 11 28 24.5t-15 38.5q-15 21 -27 28q-5 3 -41 20q-30 14 -35 14
q-16 0 -43.5 -36t-29.5 -59q-1 -8 0 -9.5t8 -0.5q24 2 58 -13q18 -8 50.5 -10.5t46.5 3.5z" />
    <glyph glyph-name="f" unicode="f" horiz-adv-x="318" 
d="M170 -6q-13 -9 -43.5 -4.5t-37.5 18.5q-10 20 -10 95q0 26 -3 88.5t-5 69.5q-1 7 -10 7q-25 0 -42 15q-22 20 -18 48.5t32 41.5q14 6 18 10q1 1 -6 33q-8 32 -5 50q7 42 48 83q45 45 73 52q19 5 39.5 -4t35.5 -22t16 -13q9 -3 11 -9.5t3.5 -24t6.5 -35.5q7 -23 3 -38
q-12 -43 -54 -43q-25 0 -34 20t-2 47q4 14 4 16q0 4 -9.5 9t-12.5 3q-2 -1 -5 -41q-3 -39 -8 -55q-5 -17 -4 -18q13 0 48 -7q52 -11 59 -18q13 -14 10.5 -30.5t-18.5 -26.5q-10 -6 -36 -8q-10 -1 -26.5 -16t-12.5 -22q10 -19 19.5 -98.5t5.5 -103.5q-1 -7 -12.5 -36
t-17.5 -33z" />
    <glyph glyph-name="g" unicode="g" horiz-adv-x="460" 
d="M200 -190q-25 0 -45 10q-25 12 -34 27t-7 42q4 47 36 79q3 3 30 36q29 35 41 41q20 10 20 24q0 5 7 16q5 8 8 10t10 1l11 -1l3 31q3 32 1 34q-1 1 -5 -5q-2 -5 -8 -19q-20 -49 -46 -67t-77 -18q-33 0 -45 6q-39 19 -50 77q-3 15 -19 62q-24 67 -18 116q5 42 26 83.5
t46 60.5q26 20 70 32q12 3 34.5 3t34.5 -3q59 -15 61 -67q0 -27 -23 -39q-18 -10 -38 0q-10 5 -22 5q-8 0 -21.5 -5.5t-17.5 -11.5q-4 -5 -19.5 -50.5t-17.5 -60.5q-2 -14 -2 -41q0 -23 4.5 -62t8.5 -43q3 -4 20.5 -3.5t27.5 5.5q11 6 18 14q6 9 37.5 72t35.5 75q1 4 5 15
t5 14q14 41 16 77q2 33 4 44q1 3 2.5 9t1.5 7q2 8 9 15q8 8 19 8q13 0 15 -2q1 -1 12 -9q12 -8 15.5 -20.5t6.5 -62.5q4 -59 3 -164.5t-6 -125.5q-7 -31 -8 -37q-20 -113 -70 -167l-30 -33q-10 -12 -31 -23q-22 -11 -45 -11zM178 -126q10 -10 39 1q24 9 37 33q17 34 17 114
q0 46 -1 46q-4 0 -13.5 -14.5t-9.5 -21.5q0 -4 -12 -28q-14 -28 -22 -48q-16 -39 -28 -54q-15 -20 -7 -28z" />
    <glyph glyph-name="h" unicode="h" horiz-adv-x="427" 
d="M118 24q-9 -6 -17 1q-1 1 -9.5 5.5t-15.5 8.5t-16 14.5t-14 23.5q-27 66 -18 241q5 91 3 165q-2 98 5 132.5t33 48.5q18 11 38 1q7 -4 16.5 -14t10.5 -15v-134q-3 -190 5 -190q1 0 6 8q8 25 21 51q21 45 31 63q11 20 14 31q10 45 58 45q42 0 68 -43q12 -19 22 -65
q22 -111 10 -170q-13 -58 -14 -125q-3 -61 -16 -74q-18 -16 -41 -10t-35 30l-8 16v66q-1 67 3 107q5 50 -5 117q-4 16 -4 23q-2 5 -15 -8q-20 -16 -68 -109l-22 -40q-3 -3 -3 -33t-6 -62q-6 -54 -6 -64q0 -34 -1 -35q0 -1 -10 -7z" />
    <glyph glyph-name="i" unicode="i" horiz-adv-x="218" 
d="M78 515q-42 5 -59 51q-8 21 1.5 43.5t30.5 32.5q9 4 26 4t27 -4q22 -11 34 -37q16 -34 -4 -64t-56 -26zM134 -19q-10 0 -29 11q-21 12 -26 12t-17.5 14.5t-17.5 27.5q-13 32 -16 184q-1 68 -9 110q-13 73 4 107q13 26 41 35q22 7 44 -4q21 -11 32 -36q22 -51 9 -158
q-5 -40 -10 -105q-6 -73 -6 -80q-2 -27 0 -36t10 -16q5 -4 12 0q12 6 23.5 2.5t16.5 -14.5q8 -17 -6 -29q-7 -7 -27.5 -16t-27.5 -9z" />
    <glyph glyph-name="j" unicode="j" horiz-adv-x="208" 
d="M32 518q-8 8 -13.5 28.5t-3.5 34.5q6 34 28 44q16 8 33 3t24 -19q5 -10 6.5 -39.5t-2.5 -39.5q-8 -22 -31.5 -25.5t-40.5 13.5zM4 -181q-19 -4 -35 1q-21 6 -40 26.5t-19 37.5q0 19 13 31.5t32 10.5q16 -1 31 -16q20 -20 34 -10q12 8 0 62q-2 10 -1 17q4 21 7 84
q4 113 -7 264q-6 77 -4 85q4 18 22 31q9 6 26 5q22 -1 33 -14t16 -42q3 -16 8 -97.5t5 -109.5q0 -51 13 -106q11 -47 11.5 -70.5t-7.5 -51.5q-8 -35 -32.5 -71t-47.5 -48q-20 -11 -58 -19z" />
    <glyph glyph-name="k" unicode="k" horiz-adv-x="404" 
d="M316 -54q-37 -17 -64.5 14t-35.5 97q-3 32 -14.5 50t-40.5 38q-27 17 -28 16q-4 -3 -9 -112q-1 -56 -8 -65q-10 -13 -27 -13t-27 13q-6 10 -6 53q-1 52 -11 102q-6 31 -15 40q-8 8 -22 12q-17 4 -24.5 19t0.5 30q7 12 34 19q8 1 7 8q-3 12 -5 73t-1 95q2 46 -2 133
q-7 144 19 179q14 17 31 20q28 7 44 -16q4 -7 6 -29.5t10 -149.5q1 -23 4 -142q0 -86 2 -88q3 -2 74 52q2 1 47 39q44 39 60 48.5t32 5.5q20 -5 26 -22.5t-5 -38.5q-6 -13 -42 -53t-51 -50q-30 -24 -103 -61q-21 -11 -30 -16.5t-8 -8.5q2 -4 7 -5q15 -2 51.5 -16t51.5 -23
q11 -7 32 -29t33 -40q11 -16 18 -36q2 -8 12 -31q18 -36 12 -67.5t-34 -43.5z" />
    <glyph glyph-name="l" unicode="l" horiz-adv-x="216" 
d="M115 1q-21 0 -44 10q-27 11 -49 44q-5 7 -6 62q-2 57 -4.5 88t-5 34.5t-4.5 18t-2.5 40.5t0.5 101q0 10 0.5 62.5t0.5 81.5q0 120 6 165t25 58q8 7 19 11q16 5 34.5 -2.5t28.5 -23.5q26 -47 11 -181q-6 -60 -6 -78q0 -9 -3 -42l-9 -62q-10 -58 -12 -67
q-13 -71 -13.5 -141.5t12.5 -83.5q5 -5 13 -8q10 -4 23 3q24 12 39 -7q14 -18 -3 -50q-10 -21 -19.5 -27t-31.5 -6z" />
    <glyph glyph-name="m" unicode="m" horiz-adv-x="702" 
d="M560 10q-30 -7 -52 22.5t-29 87.5q-3 21 -2 33.5t8 55.5q22 141 20 167q-2 24 -3 25t-7.5 -4t-17.5 -15q-24 -21 -57 -46q-35 -27 -70 -70q-8 -10 -10 -30l-6 -34q-3 -22 1 -44q4 -32 12 -38q28 -21 34 -33q17 -33 -11.5 -58.5t-62.5 -9.5q-33 15 -42 87q-13 102 -13 204
q0 85 6 101q4 9 6 17.5t2 13.5t-2 5q-7 0 -24 -12q-44 -26 -78 -84l-20 -33l-2 -53q-2 -30 -2 -108t-15 -105q-17 -24 -43 -24q-22 0 -40 22q-15 17 -16 74q-6 60 -6 64q-18 88 -18 236q0 37 6 50q10 20 29 26.5t39 -2.5q25 -12 36 -41q5 -14 9 -14q2 0 12 14q18 25 74 54
l34 19q18 12 29 14q19 4 37 -5q15 -8 34 -8q24 0 47 -24q35 -35 24 -82q-3 -13 -3 -18l2 1q2 2 5.5 4.5t6.5 4.5t12.5 9.5t12.5 9.5q36 28 37 42q-1 26 22.5 47t49.5 16q58 -11 66 -87q3 -38 -22 -216q-10 -62 -11 -90q-1 -30 -6 -54q-5 -9 3 -22q10 -21 2.5 -39t-27.5 -23z
" />
    <glyph glyph-name="n" unicode="n" horiz-adv-x="510" 
d="M74 3q-20 0 -31 10q-22 22 -33 64q-4 22 -6 61q-1 46 7 105q15 104 25 143t27 59q21 24 48 23t46 -25q10 -12 11 -41q0 -28 3 -28l29 25q28 25 44.5 35.5t45.5 22.5q34 14 50 22q16 9 33 16q44 19 81 -15t23 -82q-8 -29 -55 -94q-38 -51 -56 -104q-6 -16 -8 -51
q-2 -29 -0.5 -42.5t11.5 -55.5q11 -47 -25 -47q-15 0 -25 8t-20 29q-25 52 -32 115q-6 62 2.5 104t34.5 88q10 20 10 22q0 10 -50 -17l-5 -3q-33 -18 -74 -62q-45 -47 -45 -52q0 -2 -1.5 -9.5t-3.5 -20.5t-4 -25q-4 -38 -12 -71q-5 -29 -3 -43q7 -34 -13 -54q-9 -10 -29 -10
z" />
    <glyph glyph-name="o" unicode="o" horiz-adv-x="407" 
d="M113 29l-27 16q-62 37 -78.5 110t6.5 196q10 58 19.5 81.5t28.5 38.5q22 19 48 16t39 -27q16 -29 -2 -73q-5 -12 -10 -39t-10 -58t-6 -38q-5 -23 -0.5 -65.5t16.5 -70.5q5 -13 21 -19t29 1q14 8 48 48.5t47 65.5q11 23 19.5 106.5t0.5 95.5q-6 11 -34.5 19t-62.5 -2
q-16 -7 -25.5 4t-9.5 26q0 11 10 20q5 4 13.5 3t21.5 4q52 24 106 -22q19 -17 23 -27.5t4 -44.5q0 -27 -7.5 -101.5t-10.5 -89.5q-1 -3 -22 -48q-25 -51 -45 -77t-46 -40q-12 -7 -20.5 -8t-40.5 -1h-43z" />
    <glyph glyph-name="p" unicode="p" horiz-adv-x="443" 
d="M52 -326q-20 -3 -32 16q-11 16 -4 45q3 11 10.5 33.5t10 35t4.5 43.5t-6 61q-6 34 -26 158q-11 65 -9 226l1 103l8 13q8 13 21.5 21t25.5 5q18 -5 33 -29t19 -57q2 -15 5 -15q2 0 27 27q29 31 42 40q11 8 48 36q48 36 59 40q26 10 51.5 0t41.5 -36q11 -19 16.5 -60.5
t0.5 -72.5q-9 -53 -35 -103q-9 -18 -33 -48t-40 -44q-34 -30 -73 -49q-20 -9 -36 -8q-31 2 -38 30q-7 27 25 54q19 16 54 66q40 56 48 84q3 11 4 42.5t-2 31.5l-26 -12q-24 -12 -30 -12q-11 0 -51 -30q-43 -32 -52 -48q-6 -10 -4 -46q5 -94 4.5 -107.5t-10.5 -76.5
q-5 -28 -3 -58t0 -43q-7 -68 -12 -125l-4 -44q-2 -24 -2 -39q0 -44 -31 -48z" />
    <glyph glyph-name="q" unicode="q" horiz-adv-x="489" 
d="M332 -171q-44 39 -55 134q-5 42 -5 59q0 14 -3 14q-5 0 -24 -17q-20 -18 -29 -20q-8 -3 -55 -3q-43 0 -68 8q-46 15 -65 33.5t-28 57.5q-5 20 -5 57t5 61q15 68 45 136q47 108 111 139q18 9 46 8q27 -1 48 -11q50 -24 41 -55q-10 -35 -54 -35q-17 0 -26 -6
q-20 -13 -34 -59t-32 -164q-11 -69 -11.5 -79t4.5 -16q7 -9 18.5 -12.5t20.5 1.5t38 43.5t43 64.5l30 54q17 30 24 55t11 78q4 51 29 69q21 15 44 2t24 -41q0 -18 -10 -61q-17 -74 -27 -129q-5 -28 -9 -76.5t-1 -61.5q2 -12 -3 -63q-10 -87 5 -87q3 0 23 33q19 31 25.5 38
t17.5 7q17 0 18 -10.5t-12 -41.5q-22 -53 -29 -89q-7 -32 -32 -36.5t-54 21.5z" />
    <glyph glyph-name="r" unicode="r" horiz-adv-x="386" 
d="M91 61q-51 0 -55 98q0 -3 -7 73.5l-14 153t-7 74.5q-12 47 11 66q14 12 30 12q25 0 37.5 -16.5t19.5 -56.5q2 -12 4 -22.5t4 -18t3.5 -12.5t2.5 -7t2 -2q4 2 11 30q11 42 32 75q25 40 50 48q31 11 56 -6q11 -8 31 -7q21 1 31 -5q8 -5 15.5 -18.5t7.5 -23.5q0 -16 -17 -38
t-36 -30q-38 -17 -68 13l-8 8l-33 -21l-14 -43q-17 -51 -24 -65q-11 -23 -12 -67q-3 -117 -4 -132t-8 -30q-14 -30 -41 -30z" />
    <glyph glyph-name="s" unicode="s" horiz-adv-x="354" 
d="M115 30q-29 9 -40 39q-20 54 -20 74q0 23 19.5 32t38.5 -4q8 -5 24 -61q3 -10 10 -12.5t39 -1.5q35 1 44 2.5t9 8.5q0 6 -17.5 31t-24.5 31q-1 0 -8.5 6t-11.5 7q-19 7 -31 21q-19 22 -37 22q-19 0 -54 14q-15 6 -29.5 21.5t-17.5 29.5q-5 21 -6 49q-3 59 16 100
q12 25 44 52.5t56 35.5q13 4 97 -1q55 -3 68 -11q41 -25 41 -69q0 -17 -10.5 -41.5t-19.5 -32.5q-7 -5 -19 -5t-19 5q-8 6 -17 23.5t-11 31.5q-6 40 -48 42l-25 1l-10 -9q-24 -21 -16 -42q3 -9 3 -56q1 -37 7 -61l5 -19l19 -4q6 -1 15 -6t10 -5q3 -1 14 -5t17 -6
q28 -9 56 -35q35 -34 32 -106q-1 -36 -19 -54q-25 -25 -52 -32q-15 -4 -62.5 -3.5t-58.5 3.5z" />
    <glyph glyph-name="t" unicode="t" horiz-adv-x="376" 
d="M287 56q-44 -29 -84.5 -26t-70.5 22.5t-38 43.5q-19 54 -20 181q-1 101 -5 102q-6 3 -14 3q-32 0 -55 16q-26 18 -29 48t19 51q23 21 68 19q36 -1 39 3q3 5 6 32q14 108 77 122q5 4 11 1t6.5 -3t5 -7t7.5 -11q13 -17 15.5 -45.5t-3.5 -98.5l-2 -23l11 -4q1 0 8 -2
t13.5 -4t13 -5t8.5 -5q11 -12 11 -29t-11 -28q-3 -3 -50 -17q-18 -6 -20 -8q-4 -2 -6 -27q-1 -11 -6 -58q-10 -83 11 -156q4 -16 6.5 -19t9.5 -3q11 0 29 8.5t25 21.5q5 10 5 13.5t-4 15.5q-7 22 0.5 37t27.5 15q23 0 36.5 -25t2.5 -47q-6 -10 -11 -27q-19 -60 -43 -77z" />
    <glyph glyph-name="u" unicode="u" horiz-adv-x="433" 
d="M371 49q-13 -1 -21 3.5t-24 20.5q-11 11 -20.5 26t-9.5 21q0 9 -11 -11q-1 -1 -2 -3q-13 -22 -31 -40q-29 -29 -80 -35.5t-113 19.5q-20 9 -29.5 27.5t-16.5 56.5q-7 39 -8 45q-5 49 0 102q5 55 2 100q-2 41 4 58q16 43 57 56q20 6 44 -1q20 -6 32 -24t12 -41
q0 -51 -27 -190q-6 -32 -5 -68.5t6 -45.5q2 -4 21.5 -14t23.5 -10q3 0 16 -8q11 -8 15 -5.5t17 25.5q24 43 40 97q20 69 25 131q10 110 19 123q11 17 28.5 19t30.5 -11q17 -19 4 -65q-3 -11 -7 -29t-4 -19q-1 -3 -3 -13t-3 -13q-13 -40 -13 -115q0 -45 6 -64.5t23 -28.5
q42 -23 32 -52q-8 -23 -30 -24z" />
    <glyph glyph-name="v" unicode="v" horiz-adv-x="423" 
d="M248 50q-24 -13 -40.5 -8.5t-43.5 31.5q-51 51 -81 104q-18 33 -36 97q-9 34 -22 62q-20 43 -24 113q-2 33 3 51q10 31 39 41q23 8 46 -3q10 -5 24.5 -23t22.5 -34q7 -15 19 -60q2 -7 6.5 -24t8 -30.5t6.5 -22.5q10 -31 16 -62q5 -27 16 -58t16 -31q3 0 18 41q1 1 8.5 21
l10.5 28q6 17 23 69q12 38 14 51t2 52q0 36 1.5 45.5t7.5 18.5q16 24 44 24q21 0 35 -12.5t15 -32.5q1 -19 -8 -36q-3 -6 -10 -22.5t-9 -20.5q-2 -3 -12 -26.5t-16 -35.5q-18 -36 -18 -39q0 -5 -28 -63q-8 -17 -15 -57t-7 -71q0 -60 -32 -77z" />
    <glyph glyph-name="w" unicode="w" horiz-adv-x="681" 
d="M210 38q-21 -6 -44.5 3.5t-39.5 33.5q-4 5 -13.5 17t-13.5 17q-13 17 -20 34q-6 17 -24 39q-38 48 -46 87q-8 37 5.5 131.5t31.5 127.5q4 8 17.5 19t20.5 13q20 5 39 -4t27 -27q10 -22 0 -54q-14 -48 -14 -122q0 -61 12 -137q5 -33 6 -42q1 -17 15 -38q13 -19 17 -17
q7 4 26 50q33 77 33 90q0 22 20 84q7 20 8 83q1 47 2.5 57.5t8.5 19.5q25 34 62 17q15 -7 22 -22q7 -16 7 -55t-6 -61t-3 -30q16 -48 19 -92q1 -9 6 -36q2 -10 11 -32.5t11 -24.5t17 12.5t31 32.5t20 27q17 35 27 81q5 26 2 71.5t-13 72.5q-13 34 3 63t49 34q29 4 53 -17
q21 -18 25 -44.5t-5 -84.5q-11 -79 -14.5 -95t-17.5 -58q-19 -54 -30.5 -76t-44.5 -61q-26 -31 -29 -42q-11 -41 -54 -40q-41 2 -65 31q-14 18 -56 108q-9 19 -10 19q-5 0 -24 -39q-16 -33 -29 -53q-9 -13 -10 -30q-3 -34 -28 -41z" />
    <glyph glyph-name="x" unicode="x" horiz-adv-x="495" 
d="M289 42q-30 16 -53 57q-17 27 -17 28q-2 6 -17 -13q-14 -19 -35 -38.5t-34 -25.5q-49 -21 -83 14q-22 25 0 56t58 43q28 7 41 40q17 38 19 91q1 22 -2 37.5t-14.5 26.5t-15.5 13.5t-22 11.5q-3 2 -5 3q-13 7 -18.5 6.5t-21.5 -8.5t-23 -8.5t-20 6.5q-21 9 -25 42
q-2 18 7 37q21 44 65.5 52t95.5 -23q44 -26 62 -59q7 -13 9 -13q1 0 10 9q24 30 59.5 59t56.5 37q19 6 40 1t34 -18q15 -15 15 -39q0 -22 -26 -37t-56 -15q-26 0 -52 -26q-38 -38 -35 -142l2 -63l10 -20q8 -19 19 -30q8 -8 11 -8.5t19 0.5q21 2 31 -3q20 -14 32 -35.5
t1 -38.5q-17 -26 -50.5 -28t-71.5 21z" />
    <glyph glyph-name="y" unicode="y" horiz-adv-x="450" 
d="M73 -370q-42 1 -64 42q-9 17 -9 68q0 46 8 69q6 19 24 42q4 5 14 20.5t15 20.5q4 5 62.5 71.5t86.5 96.5q16 17 26 17t18.5 -7t8.5 -15l-43 -50q-77 -90 -107 -132q-4 -5 -16 -37q-14 -37 -17 -46q-12 -42 -5 -45q4 -1 23 9.5t28 19.5q7 6 34.5 46t46.5 72q48 81 64 180
q3 18 7 59.5t1 41.5q-1 0 -36 -35q-39 -39 -57 -46t-57 3q-74 20 -97 74q-22 50 -13 125q7 64 18.5 99.5t36.5 75.5t33.5 51.5t18.5 15.5q18 6 35.5 -2t23.5 -26q8 -24 -14 -99q-11 -37 -23 -121t-8 -97q2 -8 12.5 -13.5t18.5 -2.5q6 2 50 45.5t53 57.5l9 13l-7 22
q-7 21 -10.5 38.5t-3.5 32.5t0.5 23t2.5 21.5t3 17.5q7 45 23 61q25 25 57 25q31 0 44 -28q6 -13 8 -50q1 -20 -5 -51q-24 -130 -27 -136q-1 -1 -9 -64q-1 -7 -3.5 -26.5t-3.5 -25.5t-3 -22t-3.5 -23t-3.5 -20.5t-4.5 -22t-5.5 -21.5t-7 -25t-8 -25q-9 -26 -18 -61
q-18 -65 -26 -86q-42 -107 -127 -183q-38 -34 -73 -32z" />
    <glyph glyph-name="z" unicode="z" horiz-adv-x="461" 
d="M57 79q-23 0 -32 8q-42 28 -15 83q9 22 9 26q0 16 100.5 108t147.5 116q5 3 9 7t5.5 7t0.5 4q-4 6 -91 8q-44 1 -67 9q-22 7 -39 11q-36 9 -45 25q-14 23 -3 45q12 24 43 27q9 1 25 1q6 0 22 -2q10 -1 48 -14l33 -11l43 4q76 8 92 -4q19 -13 22 -33q2 -14 7 -19
q6 -6 5 -32q-1 -28 -12 -45q-22 -33 -32.5 -45t-43.5 -39q-35 -29 -80 -51t-56 -41q-4 -6 -13 -22.5t-13 -22.5q-13 -22 -11 -24q4 -4 27 1.5t37 11.5q14 8 44 7q45 0 96 1q36 0 50 -8q23 -13 29 -36t-8 -43q-31 -45 -106 -17q-36 13 -46.5 14.5t-50.5 -0.5q-50 -2 -67 0
q-20 1 -31 -7q-10 -8 -33 -8z" />
    <glyph glyph-name="braceleft" unicode="{" horiz-adv-x="421" 
d="M236 -120q-68 11 -98 71q-10 21 -12 41t3 77q4 51 10 73.5t21 49.5q24 42 15 64q-2 6 -8.5 7t-41.5 3q-48 0 -56 6q-19 12 -19 37q0 14 11 25q11 10 24.5 11t44.5 -4q20 -4 24 2q5 7 5 30q0 18 -2.5 26t-15.5 32q-34 65 -41 93t-2 93q5 61 13 88t28 49q37 43 97 66
q13 4 42.5 3t42.5 -6q22 -10 32.5 -26t4.5 -31q-6 -13 -14 -16.5t-34 -5.5q-27 -2 -39 -6t-29 -20t-20 -29.5t-1 -73.5q2 -68 8 -107q16 -99 -7 -180q-3 -11 5 -27q13 -28 18 -110q6 -111 11 -147q1 -13 7.5 -19t26.5 -12q52 -15 67 -31q14 -17 14 -36t-14 -33
q-9 -9 -20.5 -13t-47.5 -11q-35 -7 -53 -3z" />
    <glyph glyph-name="verticalbar" unicode="|" horiz-adv-x="236" 
d="M95 -129q-6 13 -6.5 29t2.5 83q4 107 -8 191q-3 32 -6 95q-3 67 -8 98q-14 76 -17.5 146t2.5 182q6 109 18 135q7 14 12 19t17 10q17 6 34 0t25 -21q28 -47 19 -222q-4 -80 -4 -144q0 -92 -3 -190q-4 -132 6 -250q12 -124 6 -149q-10 -35 -41.5 -39.5t-47.5 27.5z" />
    <glyph glyph-name="braceright" unicode="}" horiz-adv-x="477" 
d="M243 -151q-27 0 -122 19q-49 10 -66 50t15 70q13 13 30 17q22 5 109 -18q27 -7 33 -5t16 37.5t14 69.5q3 31 -1 61q-4 36 -2 83q2 50 10 71q7 27 2 29q-5 0 -20 13q-14 14 -17 33q-5 23 -3 47q0 27 -4 51q-13 83 -15 156q-1 56 -5 74.5t-16 36.5q-12 15 -38 19
q-25 4 -32 27t11 41q16 17 42 23q33 6 67 -14t62 -61q22 -32 29 -72.5t4 -110.5q-2 -65 -20 -112q-10 -24 -10 -49q0 -22 5 -25.5t43 -5.5q30 -2 42 -6.5t17 -15.5q12 -23 -19 -51q-20 -16 -30 -33q-6 -10 -7 -18.5t-1 -43.5q0 -96 13 -174t-17 -136q-21 -43 -47.5 -60
t-71.5 -17z" />
    <glyph glyph-name="asciitilde" unicode="~" horiz-adv-x="522" 
d="M335 254q-66 16 -111 57q-18 17 -26 21t-20 2t-30 -11t-19 -13q-4 -15 -7.5 -19t-12.5 -7q-23 -6 -43 17q-41 47 18 108q13 13 38.5 27.5t40.5 17.5q5 1 37 1q30 -1 46 -10q30 -14 60 -56l22 -30q7 -7 25.5 -20t22.5 -13t9 8q7 9 5 28q-3 34 19 44q23 11 43 -2.5
t20 -39.5q0 -25 -28 -61.5t-54 -46.5q-24 -10 -55 -2z" />
    <glyph glyph-name="uni00A0" unicode="&#xa0;" horiz-adv-x="264" 
 />
    <glyph glyph-name="exclamdown" unicode="&#xa1;" horiz-adv-x="312" 
d="M188 717q-31 3 -45 31q-7 14 -5 40q3 34 10.5 49.5t25.5 24.5q34 16 62 0t28 -52q0 -25 -14 -51t-33 -36q-14 -7 -29 -6zM89 48q-12 14 -15.5 32t-1.5 60q3 99 32 257q12 67 21 171q4 47 6 54q10 32 35 45q13 7 31 5q27 -2 44 -22.5t17 -50.5q0 -12 -9 -79
q-7 -50 -11 -132q-3 -57 -21 -168q-17 -108 -17 -114q0 -28 -14 -50q-16 -25 -47 -28t-50 20z" />
    <glyph glyph-name="cent" unicode="&#xa2;" horiz-adv-x="528" 
d="M259 -81q-18 1 -30 12q-16 16 -22 61q-2 18 -12 25q-33 23 -50 65q-10 25 -31 67q-27 53 -37 88.5t-21 111.5q-7 49 -5 108q1 71 14 109t44 67q23 22 93 42l43 11l4 27q10 62 19 69q7 7 18 7q10 -1 14.5 -12.5t6.5 -43.5l2 -37l14 -4q32 -8 60 -35t41 -62q7 -19 14 -53
q7 -32 3 -47q-9 -29 -32 -29q-13 0 -20.5 8.5t-14.5 31.5q-17 61 -43 79q-15 11 -17 8q-2 -1 -4 -166q-2 -310 8 -313q5 -2 15.5 2.5t14.5 11.5q9 11 16 62q5 40 23.5 63.5t44.5 23.5q23 0 38 -21q16 -20 5 -54q-5 -16 -9 -45q-4 -33 -21 -70q-14 -28 -44.5 -48.5
t-64.5 -24.5l-24 -2v-31q0 -26 -4 -36t-20 -20q-11 -7 -29 -6zM212 200q2 10 6 97q3 71 10 152q8 88 8 92q2 29 -3 29q-2 0 -8 -3q-1 -1 -4 -2.5l-8 -4t-8 -3.5q-19 -9 -26 -24t-12 -56q-8 -66 6 -161q11 -68 26 -101q8 -18 11 -18z" />
    <glyph glyph-name="sterling" unicode="&#xa3;" horiz-adv-x="617" 
d="M142 -50q-10 3 -19.5 12t-11.5 19q-5 22 11 40q10 9 24 9q15 0 30 13q15 12 24 29t18 53q10 37 8 64q-3 50 -13 53q-2 1 -29 -3q-35 -7 -67 -4t-48 14q-22 17 -18.5 44.5t29.5 40.5q10 4 50 12q38 6 41 8q2 2 -9 31q-21 51 -25 83.5t3 91.5q5 49 12.5 71.5t28.5 49.5
q19 25 49.5 45t57.5 25l23 5q7 2 28 0q54 -4 90.5 -29.5t36.5 -59.5q0 -29 -24 -36q-19 -7 -42 13q-25 22 -58 22q-29 0 -51 -23q-14 -14 -18.5 -28.5t-3.5 -44.5q0 -41 4 -61t17 -48q14 -27 23 -53q7 -22 12 -25t21 2q67 15 136 15q85 0 85 -14q0 -8 -19 -16
q-65 -26 -87 -37l-55 -20q-47 -15 -47 -17q-2 -2 5 -21q12 -35 15.5 -81.5t-4.5 -78.5q-13 -50 -27 -71q-4 -7 -2 -9q2 -4 68 2q69 4 85.5 3.5t25.5 -5.5q15 -12 13 -29.5t-20 -26.5q-16 -7 -135 -8q-122 -1 -153 -9q-73 -16 -88 -12z" />
    <glyph glyph-name="yen" unicode="&#xa5;" horiz-adv-x="540" 
d="M294 -25q-12 -17 -34 -15.5t-31 19.5q-5 8 -10 58q-4 47 -6 54q-2 6 -26 6q-47 0 -61 18q-12 13 -9.5 30t16.5 25q9 4 40 6l34 2v28l-38 2q-56 3 -79 24q-13 13 -14 30.5t11 31.5q9 11 20 14t46 5q30 1 35.5 2t6.5 7q1 8 -18 25q-26 24 -42.5 56t-38.5 99l-11.5 34.5
l-12.5 37.5t-8 23q-19 51 -12.5 85.5t36.5 42.5q25 7 43.5 -8.5t42.5 -63.5q33 -66 60 -145q20 -63 28 -61q3 2 18.5 26t22.5 38q13 29 28 69q20 54 27 68q0 1 6 16.5t8 21.5q11 38 34 49q19 10 40 3.5t32 -25.5q7 -11 10 -29q8 -36 -19 -95q-16 -34 -16 -36q0 -5 -41.5 -86
t-56.5 -105q-26 -43 -25 -46q1 -5 46 -4l46 1l12 -12q13 -14 13 -29q0 -46 -90 -50q-38 -2 -43 -3q-8 -2 -9 -4t-1 -15q0 -18 6 -19q11 -3 59 -1q52 1 57 -6q5 -6 3 -15.5t-10 -16.5q-24 -19 -73 -23q-32 -4 -33 -5q-3 -2 -3 -20q0 -22 -5 -64q-5 -45 -11 -55z" />
    <glyph glyph-name="section" unicode="&#xa7;" horiz-adv-x="459" 
d="M252 -89q-19 -3 -51 -1.5t-44 6.5q-20 8 -31.5 24.5t-27.5 57.5q-3 6 -7 15l-8 18t-6 13q-18 33 -9 57q10 26 33.5 31.5t43.5 -12.5q19 -17 29 -62q10 -50 16 -60t23 -10q34 0 62 31q17 17 17 24q0 3 -8 33q-6 19 -9.5 23.5t-14.5 9.5q-4 2 -17.5 10t-19.5 11
q-17 12 -46 27q-22 11 -38 27q-47 49 -66 91q-23 44 -23 87q0 53 36 97q15 19 15 20l-9 17q-24 38 -24 90q2 37 5 59q11 57 43 99t72 52q27 6 67 -3q16 -5 46 -10q38 -6 68 -34q21 -19 28 -48q5 -22 -3 -44t-24 -33q-21 -14 -45 -6.5t-37 31.5q-5 10 -11 13t-27 5
q-8 2 -12.5 1.5t-5.5 -2t-3 -6.5q-2 -9 0.5 -38.5t6.5 -45.5q4 -12 17 -41q11 -20 25 -34.5t50 -43.5q50 -41 66 -76q16 -37 15 -97q-1 -35 -7.5 -51t-26.5 -38q-17 -19 -17 -20t6 -7q6 -5 14 -22q7 -17 8.5 -58.5t-4.5 -62.5q-10 -38 -49 -72t-81 -42zM262 218l12 7
q10 4 17 13t7 16t-11.5 38.5t-17.5 40.5q-14 23 -53 47q-24 15 -28 15q-15 0 17 -64q17 -34 25 -60q6 -22 19 -38z" />
    <glyph glyph-name="dieresis" unicode="&#xa8;" horiz-adv-x="600" 
d="M320 722q-19 -28 -48 -23.5t-36 35.5q-4 21 4 39q3 7 15.5 17t21.5 12t19 1q13 -1 20 -7q16 -13 17 -33.5t-13 -40.5zM155 699q-20 0 -34 14q-15 15 -15 36.5t16 34.5q9 7 14 9q6 0 8 2l4 -1h6q19 0 32.5 -15.5t13.5 -34.5q0 -20 -11 -31q-14 -14 -34 -14z" />
    <glyph glyph-name="copyright" unicode="&#xa9;" horiz-adv-x="937" 
d="M442 -109q-50 4 -95 26.5t-100 70.5q-23 20 -57 47q-40 32 -74 85q-72 119 -65 221q3 60 16 101q11 31 39.5 85.5t50.5 83.5q50 66 140.5 127t156.5 73q34 7 78 -0.5t80 -25.5q18 -9 42.5 -26.5t30.5 -25.5q4 -6 5.5 -16.5t-1.5 -14.5l-11 -9q-9 -5 -29 1q-26 9 -45 19
q-60 27 -108 27q-24 0 -32 -2t-28 -12q-48 -22 -117 -107q-35 -45 -47.5 -65t-30.5 -62q-29 -71 -33 -85t-6 -51q-1 -43 6 -69q5 -21 25.5 -68t32.5 -65q11 -16 56.5 -64t60.5 -57q7 -6 36 -20q18 -7 74 -7q112 1 151 36q18 15 38.5 41.5t26.5 41.5q7 17 24 80q13 57 22 85
q11 41 13.5 65.5t2.5 99.5v13q2 81 -6 97q-6 13 -38 34q-5 4 -8 6q-23 15 -31 26.5t-8 27.5q2 45 49 50q17 2 36 -6q13 -6 42.5 -30t40.5 -38q19 -22 31 -68q8 -30 8 -135q0 -108 -6 -126l-17 -60q-41 -154 -112 -227q-42 -44 -63.5 -62t-43.5 -29q-36 -18 -97.5 -29
t-105.5 -8zM569 157q-26 -5 -76 2.5t-73 20.5q-57 34 -80 122q-9 34 1 82q27 122 134 179q64 34 80 39q42 16 82 -5q36 -18 55 -56.5t12 -79.5q-6 -37 -21 -50q-20 -19 -44 -13q-43 12 -35 69q3 26 -14 40q-11 11 -45 -8q-40 -22 -53 -37.5t-17 -49.5q-9 -60 21 -87
q7 -7 39 -15t45 -6t18 6t6 14q2 11 12.5 22t21.5 13q12 2 26 -4.5t19 -17.5q10 -23 -7 -87q-8 -32 -39 -58.5t-68 -34.5z" />
    <glyph glyph-name="ordfeminine" unicode="&#xaa;" horiz-adv-x="302" 
d="M80 573q-22 0 -37.5 13t-20.5 36q-9 43 8 85q18 50 50 65q13 7 31 6q11 -1 24 -1q2 -1 3.5 0.5t3.5 6.5q6 19 22 26q13 6 27 1t22 -17q12 -23 7 -67q-6 -63 3 -88q5 -14 22 -29q12 -11 4 -23.5t-25 -9.5q-11 2 -27 19q-30 34 -36 51q-2 3 -3 5t-2 1q-4 0 -7 -14
q-25 -66 -69 -66zM110 655q2 -1 12 8t15 17q8 14 0 18q-9 4 -13.5 0.5t-9.5 -17.5q-8 -25 -4 -26z" />
    <glyph glyph-name="guillemotleft" unicode="&#xab;" horiz-adv-x="488" 
d="M166 35q-11 13 -22 38q-14 30 -25 48q-10 17 -22.5 44.5t-12.5 33.5q0 3 -13 29q-15 30 -18 44.5t-1 37.5q2 22 12 39q7 13 15 35q13 37 43 67q22 22 40 46q36 48 59 56q15 5 29 -1q17 -7 24 -24.5t0 -35.5q-8 -20 -36 -61q-58 -88 -103 -117q-19 -12 -19 -17
q0 -6 28 -35q36 -38 59 -61q78 -78 78 -128q0 -47 -41.5 -61t-73.5 23zM327 103q-8 9 -27 45t-19 43q0 5 -14.5 18.5t-23.5 17.5q-33 14 -42.5 45t8.5 70q9 19 60 74t71 68q16 10 38 9q21 -1 35 -11q43 -31 15 -89q-10 -21 -38 -62.5t-43 -57.5q-16 -19 -14 -26q2 -6 25 -39
t37 -48q20 -21 13 -48q-6 -25 -33.5 -28t-47.5 19z" />
    <glyph glyph-name="uni00AD" unicode="&#xad;" horiz-adv-x="462" 
d="M173 209l-3 -1q-3 0 -6.5 -0.5t-10.5 0t-14.5 1.5t-18.5 4t-23 8q-33 13 -42 33q-11 26 7 47q14 17 54 21q1 3 14 1t56 -4q24 -1 60 -2t56 -1.5t41.5 -3t33.5 -7.5q37 -14 35 -43t-40 -39q-36 -9 -68 -11.5t-131 -2.5z" />
    <glyph glyph-name="macron" unicode="&#xaf;" horiz-adv-x="600" 
d="M324 690q-12 -2 -45 2q-6 1 -26.5 3.5t-27.5 3.5q-45 3 -69 18q-22 13 -19 38q1 11 8 21q12 15 35 20q10 2 53 1t60 -4q34 -6 60 -20.5t29 -28.5q4 -19 -13 -34t-45 -20z" />
    <glyph glyph-name="degree" unicode="&#xb0;" horiz-adv-x="347" 
d="M125 633q-12 5 -34 27q-34 34 -34 81q0 53 20.5 95.5t53.5 60.5q15 8 37 7q21 -2 32 3q26 11 52 -17t39 -80q10 -40 2 -76q-9 -39 -33 -66q-25 -28 -65 -38t-70 3zM196 705q27 7 39.5 35.5t1.5 61.5q-5 14 -8 17t-10 0q-6 -4 -17 -2l-20 3q-9 3 -12 0q-10 -10 -13.5 -48
t4.5 -51q13 -21 35 -16z" />
    <glyph glyph-name="acute" unicode="&#xb4;" horiz-adv-x="600" 
d="M198 668q-12 17 0 36q1 2 3 7.5t5 13.5t5 13q23 61 37 78q9 10 25 16q15 6 35 -6q17 -10 21.5 -31t-5.5 -43q-10 -23 -51 -55q-25 -20 -33 -28q-10 -10 -22 -10.5t-20 9.5z" />
    <glyph glyph-name="periodcentered" unicode="&#xb7;" horiz-adv-x="600" 
d="M197 248q-32 2 -51.5 22t-12.5 48q2 10 20.5 32.5t29.5 28.5q8 5 25.5 4.5t27.5 -5.5q26 -13 32.5 -42.5t-12.5 -56.5q-23 -33 -59 -31z" />
    <glyph glyph-name="cedilla" unicode="&#xb8;" horiz-adv-x="600" 
d="M235 -177q-33 7 -44 17q-12 11 -12 28t13 27q21 18 53 -10q15 -13 20 -15q11 -2 23 12q10 11 7 24q-2 8 -5 11t-10 3q-22 0 -29 14q-3 6 -3 39.5t3 42.5q8 23 20 28q20 9 32 -10q7 -11 -2 -35q-5 -13 -5 -18q2 -3 11 -5q20 -4 34 -22t16 -45q3 -36 -31 -65
q-17 -15 -36 -21q-20 -7 -55 0z" />
    <glyph glyph-name="ordmasculine" unicode="&#xba;" horiz-adv-x="248" 
d="M89 600q-4 1 -17 5q-18 10 -24 22q-5 11 -18 53.5t-9 55.5q2 7 6 18.5t5.5 16t5 12t7 11t9.5 7.5t14 7q9 3 35.5 2.5t35.5 -2.5q2 0 4 -1t4.5 -2t3.5 -1q4 0 17 -11q14 -12 16 -13q14 -8 14 -32q0 -35 -25 -85q-36 -71 -84 -63zM106 670q2 -4 14 8q23 23 30 56v2
q2 6 -3 6q-2 0 -10 -1q-7 -1 -11 -1q-14 -2 -26 -4q-8 -2 -14 -9q-10 -13 6 -36z" />
    <glyph glyph-name="guillemotright" unicode="&#xbb;" horiz-adv-x="517" 
d="M313 -3q-20 -3 -35 7q-18 11 -25 25q-24 47 26 103q12 13 47 57q31 41 49 57q21 19 21 23q0 3 -9 8q-13 8 -33 28t-28 34q-16 26 -26 48q-14 28 -32 54q-17 25 -18.5 38.5t10.5 27.5q9 10 26 10q53 0 107 -106q24 -47 44 -72q23 -28 26 -35q12 -23 -8 -83
q-11 -34 -36.5 -94.5t-33.5 -74.5q-30 -49 -72 -55zM121 47q-19 0 -28.5 13.5t-4.5 32.5q2 9 13.5 19.5t19.5 10.5t14 6q5 5 28 48t23 49q0 9 -6 25q-5 13 -8 29q-1 8 -30 35q-25 24 -50 61q-44 66 -42 86q3 27 29 40q24 11 53 -3q25 -12 65 -65q20 -27 42 -44
q61 -48 64 -103q2 -33 -23 -68q-24 -32 -36 -55q-19 -34 -32.5 -51t-36.5 -37q-24 -20 -32 -24.5t-22 -4.5z" />
    <glyph glyph-name="questiondown" unicode="&#xbf;" horiz-adv-x="533" 
d="M363 741q-16 -25 -42.5 -24.5t-42.5 27.5q-8 14 -8 37q0 22 6 31q13 19 30 22q35 7 56 -23q9 -12 9 -34q0 -23 -8 -36zM217 28q-43 0 -73 21q-21 15 -47 45.5t-39 55.5q-12 23 -15 40.5t-3 55.5q0 52 13 103q25 98 94 157l38 31q46 36 69 46l19 8l2 26q3 45 25 60
q16 11 36 5.5t29 -22.5q8 -14 9 -53t-6 -61q-12 -39 -53 -63q-29 -18 -74 -83q-41 -62 -38 -149q1 -29 11 -47t19 -27t35 -9q28 0 39 5.5t21 26.5q13 25 24 34t30 9q29 0 43 -23q22 -36 -14 -102q-27 -49 -128 -79q-38 -11 -66 -11z" />
    <glyph glyph-name="Agrave" unicode="&#xc0;" horiz-adv-x="557" 
d="M474 804q-13 0 -37 23q-13 12 -24 17q-21 11 -25 21q-5 11 -1 23.5t15 17.5q17 9 43 -7q33 -18 44 -57q6 -17 2 -27q-4 -11 -17 -11zM167 -74q-18 -38 -60.5 -35.5t-59.5 42.5q-10 26 -5 56q3 23 4 52q1 27 6 46.5t36 114.5l6 17l-12 12q-43 43 -28 80q7 17 22.5 23.5
t33.5 0.5q12 -5 16 -5q2 0 11 27q10 33 35 73q12 17 28 44.5t16 30.5q0 1 8 13q7 10 28 48q54 101 98 144q24 24 36 28q19 8 39.5 3.5t32.5 -18.5q17 -19 31 -64q14 -39 16 -77q9 -112 -20 -238q-10 -46 -11.5 -69t1.5 -101q3 -96 11 -115q7 -23 7 -33q1 -15 -10 -26
t-26 -11q-16 0 -26 9t-14 18q-20 52 -24 156q0 44 -2 44l-2 -1l-5 -2.5t-6 -2.5q-18 -8 -104 -16q-54 -4 -56 -7q-2 -1 -15 -59q-15 -67 -17 -74q-4 -21 -3 -26q0 -17 -6 -54t-10 -48zM394 265q1 0 9 52q2 12 5 32t5 31q5 28 -1 110.5t-15 106.5q-6 17 -9 17q-2 1 -14.5 -14
t-27.5 -36.5t-27 -40.5q-58 -105 -72 -143q-8 -22 -14 -57t-2 -38q2 -2 55 -6t80 -5q10 0 20 -5z" />
    <glyph glyph-name="Aacute" unicode="&#xc1;" horiz-adv-x="557" 
d="M388 769q-9 13 0 29q1 2 2.5 6t3.5 10t4 10q19 46 29 61q7 9 20 13q12 4 27 -5q30 -18 13 -58q-9 -18 -40 -43q-23 -17 -26 -22q-8 -8 -17.5 -8t-15.5 7zM167 -74q-18 -38 -60.5 -35.5t-59.5 42.5q-10 26 -5 56q3 23 4 52q1 27 6 46.5t36 114.5l6 17l-12 12
q-43 43 -28 80q7 17 22.5 23.5t33.5 0.5q12 -5 16 -5q2 0 11 27q10 33 35 73q12 17 28 44.5t16 30.5q0 1 8 13q7 10 28 48q54 101 98 144q24 24 36 28q19 8 39.5 3.5t32.5 -18.5q17 -19 31 -64q14 -39 16 -77q9 -112 -20 -238q-10 -46 -11.5 -69t1.5 -101q3 -96 11 -115
q7 -23 7 -33q1 -15 -10 -26t-26 -11q-16 0 -26 9t-14 18q-20 52 -24 156q0 44 -2 44l-2 -1l-5 -2.5t-6 -2.5q-18 -8 -104 -16q-54 -4 -56 -7q-2 -1 -15 -59q-15 -67 -17 -74q-4 -21 -3 -26q0 -17 -6 -54t-10 -48zM394 265q1 0 9 52q2 12 5 32t5 31q5 28 -1 110.5t-15 106.5
q-6 17 -9 17q-2 1 -14.5 -14t-27.5 -36.5t-27 -40.5q-58 -105 -72 -143q-8 -22 -14 -57t-2 -38q2 -2 55 -6t80 -5q10 0 20 -5z" />
    <glyph glyph-name="Acircumflex" unicode="&#xc2;" horiz-adv-x="557" 
d="M492 746q-15 0 -26 16q-7 11 -21 24l-15 15l-4 -4l-13 -18q-18 -22 -29 -23q-15 -2 -21 10q-6 11 9 51q22 53 44 63q16 8 33 -1q12 -7 23 -23q14 -20 22 -36q13 -24 16 -28q7 -12 7 -20q0 -11 -7 -18.5t-18 -7.5zM167 -74q-18 -38 -60.5 -35.5t-59.5 42.5q-10 26 -5 56
q3 23 4 52q1 27 6 46.5t36 114.5l6 17l-12 12q-43 43 -28 80q7 17 22.5 23.5t33.5 0.5q12 -5 16 -5q2 0 11 27q10 33 35 73q12 17 28 44.5t16 30.5q0 1 8 13q7 10 28 48q54 101 98 144q24 24 36 28q19 8 39.5 3.5t32.5 -18.5q17 -19 31 -64q14 -39 16 -77q9 -112 -20 -238
q-10 -46 -11.5 -69t1.5 -101q3 -96 11 -115q7 -23 7 -33q1 -15 -10 -26t-26 -11q-16 0 -26 9t-14 18q-20 52 -24 156q0 44 -2 44l-2 -1l-5 -2.5t-6 -2.5q-18 -8 -104 -16q-54 -4 -56 -7q-2 -1 -15 -59q-15 -67 -17 -74q-4 -21 -3 -26q0 -17 -6 -54t-10 -48zM394 265
q1 0 9 52q2 12 5 32t5 31q5 28 -1 110.5t-15 106.5q-6 17 -9 17q-2 1 -14.5 -14t-27.5 -36.5t-27 -40.5q-58 -105 -72 -143q-8 -22 -14 -57t-2 -38q2 -2 55 -6t80 -5q10 0 20 -5z" />
    <glyph glyph-name="Atilde" unicode="&#xc3;" horiz-adv-x="557" 
d="M462 771q-33 6 -60 38l-8 10l-4 -9q-8 -12 -9 -14q-5 -5 -15 -5t-16 7q-4 4 -9 14q-5 11 0 36q4 16 21 27t38 13q11 1 21 -4q15 -8 27 -30q4 -7 13 -17t11 -10q1 0 5 7l8 14t5 8q4 11 16 15q18 8 33 -8q6 -8 -14 -45t-31 -43q-12 -7 -32 -4zM167 -74q-18 -38 -60.5 -35.5
t-59.5 42.5q-10 26 -5 56q3 23 4 52q1 27 6 46.5t36 114.5l6 17l-12 12q-43 43 -28 80q7 17 22.5 23.5t33.5 0.5q12 -5 16 -5q2 0 11 27q10 33 35 73q12 17 28 44.5t16 30.5q0 1 8 13q7 10 28 48q54 101 98 144q24 24 36 28q19 8 39.5 3.5t32.5 -18.5q17 -19 31 -64
q14 -39 16 -77q9 -112 -20 -238q-10 -46 -11.5 -69t1.5 -101q3 -96 11 -115q7 -23 7 -33q1 -15 -10 -26t-26 -11q-16 0 -26 9t-14 18q-20 52 -24 156q0 44 -2 44l-2 -1l-5 -2.5t-6 -2.5q-18 -8 -104 -16q-54 -4 -56 -7q-2 -1 -15 -59q-15 -67 -17 -74q-4 -21 -3 -26
q0 -17 -6 -54t-10 -48zM394 265q1 0 9 52q2 12 5 32t5 31q5 28 -1 110.5t-15 106.5q-6 17 -9 17q-2 1 -14.5 -14t-27.5 -36.5t-27 -40.5q-58 -105 -72 -143q-8 -22 -14 -57t-2 -38q2 -2 55 -6t80 -5q10 0 20 -5z" />
    <glyph glyph-name="Adieresis" unicode="&#xc4;" horiz-adv-x="557" 
d="M518 811q-15 -22 -38 -19t-28 28q-3 17 3 31q2 5 12 13t17 9q7 2 15 1q12 -1 16 -5q26 -23 3 -58zM388 793q-16 0 -26 11q-12 11 -12 28t13 27q9 7 11 7q4 0 6 2h3q3 -1 5 -1q15 0 25.5 -12t10.5 -27t-9 -24q-11 -11 -27 -11zM167 -74q-18 -38 -60.5 -35.5t-59.5 42.5
q-10 26 -5 56q3 23 4 52q1 27 6 46.5t36 114.5l6 17l-12 12q-43 43 -28 80q7 17 22.5 23.5t33.5 0.5q12 -5 16 -5q2 0 11 27q10 33 35 73q12 17 28 44.5t16 30.5q0 1 8 13q7 10 28 48q54 101 98 144q24 24 36 28q19 8 39.5 3.5t32.5 -18.5q17 -19 31 -64q14 -39 16 -77
q9 -112 -20 -238q-10 -46 -11.5 -69t1.5 -101q3 -96 11 -115q7 -23 7 -33q1 -15 -10 -26t-26 -11q-16 0 -26 9t-14 18q-20 52 -24 156q0 44 -2 44l-2 -1l-5 -2.5t-6 -2.5q-18 -8 -104 -16q-54 -4 -56 -7q-2 -1 -15 -59q-15 -67 -17 -74q-4 -21 -3 -26q0 -17 -6 -54t-10 -48z
M394 265q1 0 9 52q2 12 5 32t5 31q5 28 -1 110.5t-15 106.5q-6 17 -9 17q-2 1 -14.5 -14t-27.5 -36.5t-27 -40.5q-58 -105 -72 -143q-8 -22 -14 -57t-2 -38q2 -2 55 -6t80 -5q10 0 20 -5z" />
    <glyph glyph-name="Aring" unicode="&#xc5;" horiz-adv-x="557" 
d="M424 758q-31 9 -46 32t-4 46q11 22 30 34q16 11 24 4q3 -2 6 1q10 9 17 11q11 3 27 -4q12 -5 18 -16t12 -36q4 -26 -19 -54q-27 -28 -65 -18zM461 806q10 8 3 21q-6 10 -15 14q-2 1 -5 2t-5 1l-2 1q-5 0 -11 -18q-2 -6 0 -11q4 -10 15.5 -13t19.5 3zM167 -74
q-18 -38 -60.5 -35.5t-59.5 42.5q-10 26 -5 56q3 23 4 52q1 27 6 46.5t36 114.5l6 17l-12 12q-43 43 -28 80q7 17 22.5 23.5t33.5 0.5q12 -5 16 -5q2 0 11 27q10 33 35 73q12 17 28 44.5t16 30.5q0 1 8 13q7 10 28 48q54 101 98 144q24 24 36 28q19 8 39.5 3.5t32.5 -18.5
q17 -19 31 -64q14 -39 16 -77q9 -112 -20 -238q-10 -46 -11.5 -69t1.5 -101q3 -96 11 -115q7 -23 7 -33q1 -15 -10 -26t-26 -11q-16 0 -26 9t-14 18q-20 52 -24 156q0 44 -2 44l-2 -1l-5 -2.5t-6 -2.5q-18 -8 -104 -16q-54 -4 -56 -7q-2 -1 -15 -59q-15 -67 -17 -74
q-4 -21 -3 -26q0 -17 -6 -54t-10 -48zM394 265q1 0 9 52q2 12 5 32t5 31q5 28 -1 110.5t-15 106.5q-6 17 -9 17q-2 1 -14.5 -14t-27.5 -36.5t-27 -40.5q-58 -105 -72 -143q-8 -22 -14 -57t-2 -38q2 -2 55 -6t80 -5q10 0 20 -5z" />
    <glyph glyph-name="AE" unicode="&#xc6;" horiz-adv-x="782" 
d="M462 -87q-19 -18 -45 -14.5t-42 25.5q-19 30 -32 94q-2 10 -7.5 36t-6.5 32q-9 45 -10 63q-2 23 -4 28q-3 4 -24 -1q-16 -5 -44 -5q-23 2 -26 -1q-2 -1 -10 -33q-17 -100 -48 -164q-10 -20 -29 -31t-39 -8q-32 5 -48 35q-8 16 -6.5 47t14.5 101q24 131 59 248
q14 46 34 117q29 105 48 152.5t41 69.5q17 17 30 19q11 2 14.5 7t6.5 25q6 46 35 54q17 6 36 -5q17 -11 23 -55l4 -27l64 -2q128 -6 176 7q53 15 82 -3q34 -19 34 -59q0 -35 -24 -54q-42 -35 -128 -42q-83 -4 -159 12q-30 6 -31 3q-2 -1 3.5 -69t7.5 -70q4 0 34 10
q142 47 202 -4q22 -20 27.5 -49.5t-8.5 -55.5q-17 -33 -51 -45q-29 -11 -143 -22q-36 -3 -41 -6q-2 -4 1 -17q5 -16 8 -53q7 -48 12 -70q4 -20 10 -46q2 -16 5 -19q4 -2 45 -2q128 2 168 -35q15 -14 2 -37q-17 -29 -75.5 -52.5t-111.5 -21.5q-25 1 -33 -7zM275 296h25v15
q0 9 -4 65q-4 52 -7 57q-2 6 -4 2q0 -1 -1 -4q-9 -20 -24 -76t-13 -58q1 0 5 -0.5t10.5 -0.5h12.5z" />
    <glyph glyph-name="Ccedilla" unicode="&#xc7;" horiz-adv-x="578" 
d="M507 218q23 0 23 -30q0 -14 -9.5 -32t-48.5 -78q-26 -37 -43.5 -54t-45.5 -30q-41 -20 -70 -25l-1 -5q2 -2 9 -4q34 -6 39 -52q1 -29 -25 -51q-13 -12 -28 -17q-16 -5 -43 0q-25 5 -34 14q-10 8 -10 21.5t10 21.5q17 14 42 -8q10 -10 16 -12q8 -2 18 10q8 9 5 18
q-1 11 -12 11q-17 0 -22 11q-2 4 -2 37q-46 -1 -90 22q-43 25 -90 63q-45 36 -67 114q-8 30 -8 109q0 64 3.5 92t15.5 67q18 51 56 118q38 68 68 105q25 29 59.5 52.5t62.5 29.5q16 3 46 1t47 -8q78 -27 109 -58q51 -51 51 -118q0 -22 -10 -38q-12 -21 -33.5 -28t-42.5 4
q-28 14 -34 55q-2 22 -6 31q-7 14 -54 36q-29 14 -42.5 14.5t-29.5 -11.5q-50 -41 -87 -120q-28 -60 -36 -96t-8 -102t6 -89q10 -35 25 -58t54 -63l31 -32l25 -3q27 -5 44 1q40 10 58 26q12 12 43.5 56t36.5 56q11 26 29 26z" />
    <glyph glyph-name="Egrave" unicode="&#xc8;" horiz-adv-x="555" 
d="M313 786q-13 0 -37 23q-13 12 -24 17q-21 11 -25 21q-5 11 -1 23.5t15 17.5q17 9 43 -7q33 -18 44 -57q6 -17 2 -27q-4 -11 -17 -11zM455 -28q-21 -9 -47 12q-17 13 -34 20q-13 5 -18.5 5.5t-24.5 -3.5q-53 -11 -85 -6q-30 5 -54 0q-52 -10 -82 1.5t-30 41.5q0 12 3 21
q13 39 19 123q1 9 8 51q7 33 5 37q-3 3 -11 3q-30 0 -48.5 21t-11.5 47q5 19 24 32t41 13q10 0 14 6q2 4 0 61.5t-5 66.5q-3 6 -18 9q-35 9 -52 41q-9 18 -8 39.5t11 36.5q25 36 91 45q22 3 79 2t90 -4q53 -6 101 -35l81 -44q37 -20 49.5 -32.5t12.5 -30.5q0 -27 -25 -32
q-38 -8 -136 31q-43 17 -115 12q-45 -3 -53 -6q-6 -5 -6 -17q0 -15 -7 -34q-6 -20 -6 -65l1 -45l15 -7q21 -10 47 -12.5t95 -3.5q88 0 99 -6q25 -13 32.5 -30.5t-6.5 -31.5q-17 -17 -44 -5q-13 7 -119 10q-106 4 -117 -1l-12 -4v-82q0 -107 4 -111q6 -6 63 -8
q48 -2 70.5 -6.5t46.5 -15.5q19 -9 52 -37t36 -38q8 -25 -15 -35z" />
    <glyph glyph-name="Eacute" unicode="&#xc9;" horiz-adv-x="555" 
d="M227 751q-9 13 0 29q1 2 2.5 6t3.5 10t4 10q19 46 29 61q7 9 20 13q12 4 27 -5q30 -18 13 -58q-9 -18 -40 -43q-23 -17 -26 -22q-8 -8 -17.5 -8t-15.5 7zM455 -28q-21 -9 -47 12q-17 13 -34 20q-13 5 -18.5 5.5t-24.5 -3.5q-53 -11 -85 -6q-30 5 -54 0q-52 -10 -82 1.5
t-30 41.5q0 12 3 21q13 39 19 123q1 9 8 51q7 33 5 37q-3 3 -11 3q-30 0 -48.5 21t-11.5 47q5 19 24 32t41 13q10 0 14 6q2 4 0 61.5t-5 66.5q-3 6 -18 9q-35 9 -52 41q-9 18 -8 39.5t11 36.5q25 36 91 45q22 3 79 2t90 -4q53 -6 101 -35l81 -44q37 -20 49.5 -32.5
t12.5 -30.5q0 -27 -25 -32q-38 -8 -136 31q-43 17 -115 12q-45 -3 -53 -6q-6 -5 -6 -17q0 -15 -7 -34q-6 -20 -6 -65l1 -45l15 -7q21 -10 47 -12.5t95 -3.5q88 0 99 -6q25 -13 32.5 -30.5t-6.5 -31.5q-17 -17 -44 -5q-13 7 -119 10q-106 4 -117 -1l-12 -4v-82q0 -107 4 -111
q6 -6 63 -8q48 -2 70.5 -6.5t46.5 -15.5q19 -9 52 -37t36 -38q8 -25 -15 -35z" />
    <glyph glyph-name="Ecircumflex" unicode="&#xca;" horiz-adv-x="555" 
d="M331 728q-15 0 -26 16q-7 11 -21 24l-15 15l-4 -4l-13 -18q-18 -22 -29 -23q-15 -2 -21 10q-6 11 9 51q22 53 44 63q16 8 33 -1q12 -7 23 -23q14 -20 22 -36q13 -24 16 -28q7 -12 7 -20q0 -11 -7 -18.5t-18 -7.5zM455 -28q-21 -9 -47 12q-17 13 -34 20q-13 5 -18.5 5.5
t-24.5 -3.5q-53 -11 -85 -6q-30 5 -54 0q-52 -10 -82 1.5t-30 41.5q0 12 3 21q13 39 19 123q1 9 8 51q7 33 5 37q-3 3 -11 3q-30 0 -48.5 21t-11.5 47q5 19 24 32t41 13q10 0 14 6q2 4 0 61.5t-5 66.5q-3 6 -18 9q-35 9 -52 41q-9 18 -8 39.5t11 36.5q25 36 91 45q22 3 79 2
t90 -4q53 -6 101 -35l81 -44q37 -20 49.5 -32.5t12.5 -30.5q0 -27 -25 -32q-38 -8 -136 31q-43 17 -115 12q-45 -3 -53 -6q-6 -5 -6 -17q0 -15 -7 -34q-6 -20 -6 -65l1 -45l15 -7q21 -10 47 -12.5t95 -3.5q88 0 99 -6q25 -13 32.5 -30.5t-6.5 -31.5q-17 -17 -44 -5
q-13 7 -119 10q-106 4 -117 -1l-12 -4v-82q0 -107 4 -111q6 -6 63 -8q48 -2 70.5 -6.5t46.5 -15.5q19 -9 52 -37t36 -38q8 -25 -15 -35z" />
    <glyph glyph-name="Edieresis" unicode="&#xcb;" horiz-adv-x="555" 
d="M357 793q-15 -22 -38 -19t-28 28q-3 17 3 31q2 5 12 13t17 9q7 2 15 1q12 -1 16 -5q26 -23 3 -58zM227 775q-16 0 -26 11q-12 11 -12 28t13 27q9 7 11 7q4 0 6 2h3q3 -1 5 -1q15 0 25.5 -12t10.5 -27t-9 -24q-11 -11 -27 -11zM455 -28q-21 -9 -47 12q-17 13 -34 20
q-13 5 -18.5 5.5t-24.5 -3.5q-53 -11 -85 -6q-30 5 -54 0q-52 -10 -82 1.5t-30 41.5q0 12 3 21q13 39 19 123q1 9 8 51q7 33 5 37q-3 3 -11 3q-30 0 -48.5 21t-11.5 47q5 19 24 32t41 13q10 0 14 6q2 4 0 61.5t-5 66.5q-3 6 -18 9q-35 9 -52 41q-9 18 -8 39.5t11 36.5
q25 36 91 45q22 3 79 2t90 -4q53 -6 101 -35l81 -44q37 -20 49.5 -32.5t12.5 -30.5q0 -27 -25 -32q-38 -8 -136 31q-43 17 -115 12q-45 -3 -53 -6q-6 -5 -6 -17q0 -15 -7 -34q-6 -20 -6 -65l1 -45l15 -7q21 -10 47 -12.5t95 -3.5q88 0 99 -6q25 -13 32.5 -30.5t-6.5 -31.5
q-17 -17 -44 -5q-13 7 -119 10q-106 4 -117 -1l-12 -4v-82q0 -107 4 -111q6 -6 63 -8q48 -2 70.5 -6.5t46.5 -15.5q19 -9 52 -37t36 -38q8 -25 -15 -35z" />
    <glyph glyph-name="Igrave" unicode="&#xcc;" horiz-adv-x="383" 
d="M240 818q-13 0 -37 23q-13 12 -24 17q-21 11 -25 21q-5 11 -1 23.5t15 17.5q17 9 43 -7q33 -18 44 -57q6 -17 2 -27q-4 -11 -17 -11zM264 -21q-77 0 -90 3q-24 6 -31 6q-46 0 -69 14q-9 5 -4 10q3 2 1 7.5t1.5 12.5t10.5 13.5t29 11t56 4.5q6 0 26 2l-6 25
q-16 69 -19.5 94.5t-5.5 99.5l-2 92l-34 146v96q-44 1 -58 9q-29 17 -29 42q0 48 79 56q8 1 17.5 2t15.5 2t7 1q79 0 111 -8q26 -6 31 -6q15 0 34.5 -9.5t31.5 -21.5t7 -18q-1 -1 -2.5 -6.5t-6 -10.5t-13.5 -11t-28.5 -10.5t-47.5 -5.5v-12q0 -29 3 -74q3 -25 -2 -73
q-14 -124 -4 -185q9 -48 -6 -122q-6 -24 -15 -89h13q74 -1 89 -9q29 -16 29 -42q0 -10 -2.5 -15.5t-10 -8t-14 -3.5t-23.5 -2t-29 -2q-8 -1 -17.5 -2t-15.5 -2t-7 -1z" />
    <glyph glyph-name="Iacute" unicode="&#xcd;" horiz-adv-x="383" 
d="M154 783q-9 13 0 29q1 2 2.5 6t3.5 10t4 10q19 46 29 61q7 9 20 13q12 4 27 -5q30 -18 13 -58q-9 -18 -40 -43q-23 -17 -26 -22q-8 -8 -17.5 -8t-15.5 7zM264 -21q-77 0 -90 3q-24 6 -31 6q-46 0 -69 14q-9 5 -4 10q3 2 1 7.5t1.5 12.5t10.5 13.5t29 11t56 4.5q6 0 26 2
l-6 25q-16 69 -19.5 94.5t-5.5 99.5l-2 92l-34 146v96q-44 1 -58 9q-29 17 -29 42q0 48 79 56q8 1 17.5 2t15.5 2t7 1q79 0 111 -8q26 -6 31 -6q15 0 34.5 -9.5t31.5 -21.5t7 -18q-1 -1 -2.5 -6.5t-6 -10.5t-13.5 -11t-28.5 -10.5t-47.5 -5.5v-12q0 -29 3 -74q3 -25 -2 -73
q-14 -124 -4 -185q9 -48 -6 -122q-6 -24 -15 -89h13q74 -1 89 -9q29 -16 29 -42q0 -10 -2.5 -15.5t-10 -8t-14 -3.5t-23.5 -2t-29 -2q-8 -1 -17.5 -2t-15.5 -2t-7 -1z" />
    <glyph glyph-name="Icircumflex" unicode="&#xce;" horiz-adv-x="383" 
d="M258 760q-15 0 -26 16q-7 11 -21 24l-15 15l-4 -4l-13 -18q-18 -22 -29 -23q-15 -2 -21 10q-6 11 9 51q22 53 44 63q16 8 33 -1q12 -7 23 -23q14 -20 22 -36q13 -24 16 -28q7 -12 7 -20q0 -11 -7 -18.5t-18 -7.5zM264 -21q-77 0 -90 3q-24 6 -31 6q-46 0 -69 14
q-9 5 -4 10q3 2 1 7.5t1.5 12.5t10.5 13.5t29 11t56 4.5q6 0 26 2l-6 25q-16 69 -19.5 94.5t-5.5 99.5l-2 92l-34 146v96q-44 1 -58 9q-29 17 -29 42q0 48 79 56q8 1 17.5 2t15.5 2t7 1q79 0 111 -8q26 -6 31 -6q15 0 34.5 -9.5t31.5 -21.5t7 -18q-1 -1 -2.5 -6.5t-6 -10.5
t-13.5 -11t-28.5 -10.5t-47.5 -5.5v-12q0 -29 3 -74q3 -25 -2 -73q-14 -124 -4 -185q9 -48 -6 -122q-6 -24 -15 -89h13q74 -1 89 -9q29 -16 29 -42q0 -10 -2.5 -15.5t-10 -8t-14 -3.5t-23.5 -2t-29 -2q-8 -1 -17.5 -2t-15.5 -2t-7 -1z" />
    <glyph glyph-name="Idieresis" unicode="&#xcf;" horiz-adv-x="383" 
d="M284 825q-15 -22 -38 -19t-28 28q-3 17 3 31q2 5 12 13t17 9q7 2 15 1q12 -1 16 -5q26 -23 3 -58zM154 807q-16 0 -26 11q-12 11 -12 28t13 27q9 7 11 7q4 0 6 2h3q3 -1 5 -1q15 0 25.5 -12t10.5 -27t-9 -24q-11 -11 -27 -11zM264 -21q-77 0 -90 3q-24 6 -31 6
q-46 0 -69 14q-9 5 -4 10q3 2 1 7.5t1.5 12.5t10.5 13.5t29 11t56 4.5q6 0 26 2l-6 25q-16 69 -19.5 94.5t-5.5 99.5l-2 92l-34 146v96q-44 1 -58 9q-29 17 -29 42q0 48 79 56q8 1 17.5 2t15.5 2t7 1q79 0 111 -8q26 -6 31 -6q15 0 34.5 -9.5t31.5 -21.5t7 -18
q-1 -1 -2.5 -6.5t-6 -10.5t-13.5 -11t-28.5 -10.5t-47.5 -5.5v-12q0 -29 3 -74q3 -25 -2 -73q-14 -124 -4 -185q9 -48 -6 -122q-6 -24 -15 -89h13q74 -1 89 -9q29 -16 29 -42q0 -10 -2.5 -15.5t-10 -8t-14 -3.5t-23.5 -2t-29 -2q-8 -1 -17.5 -2t-15.5 -2t-7 -1z" />
    <glyph glyph-name="Eth" unicode="&#xd0;" horiz-adv-x="666" 
d="M585 435q27 -83 34 -113t7 -65t-4.5 -54t-22.5 -56q-13 -28 -13 -30q0 -13 -27 -51q-13 -18 -44.5 -44t-54.5 -37q-22 -11 -53 -10q-39 0 -99 21q-29 10 -50 25q-12 10 -31 13q-14 0 -30 7q-12 5 -17 2q-29 -21 -55 -22q-62 -3 -81 54q-8 25 0 55t29 51q12 13 22 20
q6 2 5 26q0 94 11 149q2 8 2 15h-3l-4 -1h-7.5t-11 0.5t-16.5 3.5t-21 7q-26 10 -33 26q-9 21 6 36q10 14 42 17q4 0 55 -2q4 96 15 114q14 25 34 33q9 3 0 5l-5 1q-15 2 -36 -1q-39 -4 -58 17q-11 11 -11 27q0 29 21 41q11 6 45 12q12 2 70 0.5t67 -3.5q3 -1 11 -3t21 -5.5
t22 -5.5q44 -11 54 -16q40 -20 120 -94q39 -37 56.5 -62.5t25.5 -57.5q4 -15 13 -45zM502 249q18 94 5 145q-12 45 -18 59t-20 30q-41 48 -141 118q-13 8 -44 15l-45 12q-27 6 -33 0q2 -4 6 -4q6 0 17 -10.5t16 -21.5q19 -42 7 -122q11 -2 17 -4q19 -7 25.5 -20.5t-1.5 -26
t-27 -17.5l-27 -6q-9 -57 -14 -90q-10 -105 -16 -127q-1 -5 3 -8.5t12 -5.5q9 -2 27 -16q4 -2 11 -7t12.5 -8.5t9.5 -5.5q6 -3 27 -15q42 -29 86 -29q19 0 29.5 5t23.5 21q34 44 52 139z" />
    <glyph glyph-name="Ntilde" unicode="&#xd1;" horiz-adv-x="460" 
d="M253 789q-33 6 -60 38l-8 10l-4 -9q-7 -12 -9 -14q-5 -5 -15 -5t-16 7q-4 4 -9 14q-5 11 0 36q4 16 21 27t38 13q11 1 21 -4q15 -8 27 -30q4 -7 13 -17t11 -10q1 0 5 7l8 14t5 8q4 11 16 15q18 8 33 -8q6 -8 -14 -45t-31 -43q-12 -7 -32 -4zM375 -39q-22 -1 -38 6.5
t-26 25.5t-15.5 32t-13.5 42.5t-12 41.5q-7 19 -10 23q-16 37 -23 75q-1 10 -10 55q-24 132 -48 187q-3 12 -3 14q0 5 -2 6t-4 -4l-2 -4q-2 -7 2 -58q4 -47 2 -134.5t-8 -126.5q-5 -50 -5 -82v-46l-9 -8q-11 -8 -19 -6q-17 3 -24.5 24.5t-8.5 70.5q0 48 -11 93
q-2 10 -19 111q-4 25 -1 70q4 65 -7 114q-5 31 -8 62q-1 27 -7 62q-12 49 4.5 87.5t55.5 51.5q45 16 79 -18q21 -23 21 -37q0 -4 10 -18q12 -19 23 -66q1 -4 6.5 -23.5t8.5 -30.5l16 -62q16 -72 16 -122q0 -11 3 -13q1 -1 1.5 22.5t-0.5 72.5q-2 91 3 145q8 58 18 97
q3 10 5 25q5 28 31 28q13 0 22 -9q7 -8 7 -32q2 -27 5 -36q5 -11 6 -122q3 -111 8 -145q9 -64 10 -192q0 -80 1 -97t7 -32q18 -50 1 -81q-23 -38 -38 -39z" />
    <glyph glyph-name="Ograve" unicode="&#xd2;" horiz-adv-x="548" 
d="M328 794q-13 0 -37 23q-13 12 -24 17q-21 11 -25 21q-5 11 -1 23.5t15 17.5q17 9 43 -7q33 -18 44 -57q6 -17 2 -27q-4 -11 -17 -11zM250 -46q-61 0 -100 42q-34 35 -61 102q-32 79 -42 132q-7 34 -7 124q0 126 14 182q15 62 43 97q62 77 106 28q18 -19 18 -53
q0 -21 -14 -56q-36 -90 -37 -264q-1 -71 1.5 -96.5t13.5 -51.5q22 -54 77 -42q21 4 32 19q26 34 56.5 85.5t45.5 86.5q2 5 29 100q10 34 6 112q-3 73 -23 92q-24 22 -55 29t-54 -5q-22 -11 -36 -3q-25 15 -9 58q15 43 55 58q9 3 33 1t40 -7q16 -4 40 -19.5t38 -29.5
q25 -25 39 -81l9 -36l-1 -126q-1 -131 -5 -155q-7 -56 -8 -62q-5 -33 -13 -56q-19 -53 -67 -101q-63 -63 -74 -69l-28 -16q-34 -19 -62 -19z" />
    <glyph glyph-name="Oacute" unicode="&#xd3;" horiz-adv-x="548" 
d="M242 759q-9 13 0 29q1 2 2.5 6t3.5 10t4 10q19 46 29 61q7 9 20 13q12 4 27 -5q30 -18 13 -58q-9 -18 -40 -43q-23 -17 -26 -22q-8 -8 -17.5 -8t-15.5 7zM250 -46q-61 0 -100 42q-34 35 -61 102q-32 79 -42 132q-7 34 -7 124q0 126 14 182q15 62 43 97q62 77 106 28
q18 -19 18 -53q0 -21 -14 -56q-36 -90 -37 -264q-1 -71 1.5 -96.5t13.5 -51.5q22 -54 77 -42q21 4 32 19q26 34 56.5 85.5t45.5 86.5q2 5 29 100q10 34 6 112q-3 73 -23 92q-24 22 -55 29t-54 -5q-22 -11 -36 -3q-25 15 -9 58q15 43 55 58q9 3 33 1t40 -7q16 -4 40 -19.5
t38 -29.5q25 -25 39 -81l9 -36l-1 -126q-1 -131 -5 -155q-7 -56 -8 -62q-5 -33 -13 -56q-19 -53 -67 -101q-63 -63 -74 -69l-28 -16q-34 -19 -62 -19z" />
    <glyph glyph-name="Ocircumflex" unicode="&#xd4;" horiz-adv-x="548" 
d="M346 736q-15 0 -26 16q-7 11 -21 24l-15 15l-4 -4l-13 -18q-18 -22 -29 -23q-15 -2 -21 10q-6 11 9 51q22 53 44 63q16 8 33 -1q12 -7 23 -23q14 -20 22 -36q13 -24 16 -28q7 -12 7 -20q0 -11 -7 -18.5t-18 -7.5zM250 -46q-61 0 -100 42q-34 35 -61 102q-32 79 -42 132
q-7 34 -7 124q0 126 14 182q15 62 43 97q62 77 106 28q18 -19 18 -53q0 -21 -14 -56q-36 -90 -37 -264q-1 -71 1.5 -96.5t13.5 -51.5q22 -54 77 -42q21 4 32 19q26 34 56.5 85.5t45.5 86.5q2 5 29 100q10 34 6 112q-3 73 -23 92q-24 22 -55 29t-54 -5q-22 -11 -36 -3
q-25 15 -9 58q15 43 55 58q9 3 33 1t40 -7q16 -4 40 -19.5t38 -29.5q25 -25 39 -81l9 -36l-1 -126q-1 -131 -5 -155q-7 -56 -8 -62q-5 -33 -13 -56q-19 -53 -67 -101q-63 -63 -74 -69l-28 -16q-34 -19 -62 -19z" />
    <glyph glyph-name="Otilde" unicode="&#xd5;" horiz-adv-x="548" 
d="M316 761q-33 6 -60 38l-8 10l-4 -9q-8 -12 -9 -14q-5 -5 -15 -5t-16 7q-4 4 -9 14q-5 11 0 36q4 16 21 27t38 13q11 1 21 -4q15 -8 27 -30q4 -7 13 -17t11 -10q1 0 5 7l8 14t5 8q4 11 16 15q18 8 33 -8q6 -8 -14 -45t-31 -43q-12 -7 -32 -4zM250 -46q-61 0 -100 42
q-34 35 -61 102q-32 79 -42 132q-7 34 -7 124q0 126 14 182q15 62 43 97q62 77 106 28q18 -19 18 -53q0 -21 -14 -56q-36 -90 -37 -264q-1 -71 1.5 -96.5t13.5 -51.5q22 -54 77 -42q21 4 32 19q26 34 56.5 85.5t45.5 86.5q2 5 29 100q10 34 6 112q-3 73 -23 92
q-24 22 -55 29t-54 -5q-22 -11 -36 -3q-25 15 -9 58q15 43 55 58q9 3 33 1t40 -7q16 -4 40 -19.5t38 -29.5q25 -25 39 -81l9 -36l-1 -126q-1 -131 -5 -155q-7 -56 -8 -62q-5 -33 -13 -56q-19 -53 -67 -101q-63 -63 -74 -69l-28 -16q-34 -19 -62 -19z" />
    <glyph glyph-name="Odieresis" unicode="&#xd6;" horiz-adv-x="548" 
d="M372 801q-15 -22 -38 -19t-28 28q-3 17 3 31q2 5 12 13t17 9q7 2 15 1q12 -1 16 -5q26 -23 3 -58zM242 783q-16 0 -26 11q-12 11 -12 28t13 27q9 7 11 7q4 0 6 2h3q3 -1 5 -1q15 0 25.5 -12t10.5 -27t-9 -24q-11 -11 -27 -11zM250 -46q-61 0 -100 42q-34 35 -61 102
q-32 79 -42 132q-7 34 -7 124q0 126 14 182q15 62 43 97q62 77 106 28q18 -19 18 -53q0 -21 -14 -56q-36 -90 -37 -264q-1 -71 1.5 -96.5t13.5 -51.5q22 -54 77 -42q21 4 32 19q26 34 56.5 85.5t45.5 86.5q2 5 29 100q10 34 6 112q-3 73 -23 92q-24 22 -55 29t-54 -5
q-22 -11 -36 -3q-25 15 -9 58q15 43 55 58q9 3 33 1t40 -7q16 -4 40 -19.5t38 -29.5q25 -25 39 -81l9 -36l-1 -126q-1 -131 -5 -155q-7 -56 -8 -62q-5 -33 -13 -56q-19 -53 -67 -101q-63 -63 -74 -69l-28 -16q-34 -19 -62 -19z" />
    <glyph glyph-name="multiply" unicode="&#xd7;" horiz-adv-x="542" 
d="M76 114q-22 11 -19 36q1 13 14.5 29t57.5 60l77 102q-2 10 1 20l-1 1q-52 36 -94.5 82t-53.5 69q-12 25 -7.5 46.5t24.5 31.5q20 9 36 4q16 -6 34 -32q10 -15 100 -103l26 -26l26 26q90 88 100 103q18 26 34 32q16 5 36 -4q20 -10 24.5 -31.5t-7.5 -46.5
q-11 -23 -53.5 -69t-94.5 -82l-1 -1q3 -10 1 -20l77 -102q44 -44 57.5 -60t14.5 -29q3 -25 -19 -36q-16 -8 -31.5 1.5t-34.5 32.5t-29 31q-22 17 -57.5 59t-42.5 49q-7 -7 -42.5 -49t-57.5 -59q-10 -8 -29 -30.5t-34.5 -32.5t-31.5 -2z" />
    <glyph glyph-name="Oslash" unicode="&#xd8;" horiz-adv-x="548" 
d="M499 594l9 -36l-1 -126q-1 -131 -5 -155q-7 -56 -8 -62q-5 -33 -13 -56q-19 -53 -67 -101q-63 -63 -74 -69l-28 -16q-34 -19 -62 -19q-37 0 -66 16q-7 -10 -15 -15t-21.5 -5.5t-23.5 3.5q-14 8 -19.5 24.5t0.5 33.5q5 19 10 30q-11 19 -26 57q-32 79 -42 132
q-7 34 -7 124q0 126 14 182q15 62 43 97q62 77 106 28q18 -19 18 -53q0 -21 -14 -56q-36 -90 -37 -264q0 -70 1 -91l35 97q19 50 27 76q13 32 17 43q18 46 33 96q12 42 36 114q-11 -2 -20 -6q-22 -11 -36 -3q-25 15 -9 58q15 43 55 58q15 5 54 -2q18 34 28 41q7 5 21 4
q37 -1 35 -43q-1 -16 -10 -36q12 -8 23 -19q25 -25 39 -81zM425 389q10 34 6 112q-3 73 -23 92q-4 4 -12 10q-5 -12 -5 -13l-15 -40q-5 -11 -28 -82.5t-27 -88.5l-11 -41q-15 -58 -24 -84q-1 -4 -3 -10.5t-5 -16t-5 -15.5q-12 -44 -39 -116q12 -1 28 2q21 4 32 19
q26 34 56.5 85.5t45.5 86.5q2 5 29 100z" />
    <glyph glyph-name="Ugrave" unicode="&#xd9;" horiz-adv-x="430" 
d="M299 796q-13 0 -37 23q-13 12 -24 17q-21 11 -25 21q-5 11 -1 23.5t15 17.5q17 9 43 -7q33 -18 44 -57q6 -17 2 -27q-4 -11 -17 -11zM279 -17q-75 -28 -149 51q-33 36 -48 73.5t-25 108.5q-7 48 -13 123.5t-4 97.5q2 12 6 89q4 93 16 133q16 54 60 68q8 3 23 0.5t24 -8.5
q11 -5 18 -20q6 -10 7 -22.5t3 -74.5q2 -82 -2 -131q-13 -194 -10 -236q11 -127 42 -148q8 -6 27 -11q27 -7 40 4t27 54q19 60 23 189q4 93 7 124q8 86 -3 119q-2 5 -4 13t-5 18t-4 15q-5 25 -11 37q-6 11 -5 26t8 25q16 20 39 19.5t38 -22.5q6 -8 6 -17t-5 -60
q-2 -29 1 -51q3 -40 0 -92q-3 -103 -4 -177q-3 -106 -9.5 -149t-26.5 -82q-10 -22 -39.5 -50.5t-47.5 -35.5z" />
    <glyph glyph-name="Uacute" unicode="&#xda;" horiz-adv-x="430" 
d="M213 761q-9 13 0 29q1 2 2.5 6t3.5 10t4 10q19 46 29 61q7 9 20 13q12 4 27 -5q30 -18 13 -58q-9 -18 -40 -43q-23 -17 -26 -22q-8 -8 -17.5 -8t-15.5 7zM279 -17q-75 -28 -149 51q-33 36 -48 73.5t-25 108.5q-7 48 -13 123.5t-4 97.5q2 12 6 89q4 93 16 133q16 54 60 68
q8 3 23 0.5t24 -8.5q11 -5 18 -20q6 -10 7 -22.5t3 -74.5q2 -82 -2 -131q-13 -194 -10 -236q11 -127 42 -148q8 -6 27 -11q27 -7 40 4t27 54q19 60 23 189q4 93 7 124q8 86 -3 119q-2 5 -4 13t-5 18t-4 15q-5 25 -11 37q-6 11 -5 26t8 25q16 20 39 19.5t38 -22.5q6 -8 6 -17
t-5 -60q-2 -29 1 -51q3 -40 0 -92q-3 -103 -4 -177q-3 -106 -9.5 -149t-26.5 -82q-10 -22 -39.5 -50.5t-47.5 -35.5z" />
    <glyph glyph-name="Ucircumflex" unicode="&#xdb;" horiz-adv-x="430" 
d="M317 738q-15 0 -26 16q-7 11 -21 24l-15 15l-4 -4l-13 -18q-18 -22 -29 -23q-15 -2 -21 10q-6 11 9 51q22 53 44 63q16 8 33 -1q12 -7 23 -23q14 -20 22 -36q13 -24 16 -28q7 -12 7 -20q0 -11 -7 -18.5t-18 -7.5zM279 -17q-75 -28 -149 51q-33 36 -48 73.5t-25 108.5
q-7 48 -13 123.5t-4 97.5q2 12 6 89q4 93 16 133q16 54 60 68q8 3 23 0.5t24 -8.5q11 -5 18 -20q6 -10 7 -22.5t3 -74.5q2 -82 -2 -131q-13 -194 -10 -236q11 -127 42 -148q8 -6 27 -11q27 -7 40 4t27 54q19 60 23 189q4 93 7 124q8 86 -3 119q-2 5 -4 13t-5 18t-4 15
q-5 25 -11 37q-6 11 -5 26t8 25q16 20 39 19.5t38 -22.5q6 -8 6 -17t-5 -60q-2 -29 1 -51q3 -40 0 -92q-3 -103 -4 -177q-3 -106 -9.5 -149t-26.5 -82q-10 -22 -39.5 -50.5t-47.5 -35.5z" />
    <glyph glyph-name="Udieresis" unicode="&#xdc;" horiz-adv-x="430" 
d="M343 803q-15 -22 -38 -19t-28 28q-3 17 3 31q2 5 12 13t17 9q7 2 15 1q12 -1 16 -5q26 -23 3 -58zM213 785q-16 0 -26 11q-12 11 -12 28t13 27q9 7 11 7q4 0 6 2h3q3 -1 5 -1q15 0 25.5 -12t10.5 -27t-9 -24q-11 -11 -27 -11zM279 -17q-75 -28 -149 51q-33 36 -48 73.5
t-25 108.5q-7 48 -13 123.5t-4 97.5q2 12 6 89q4 93 16 133q16 54 60 68q8 3 23 0.5t24 -8.5q11 -5 18 -20q6 -10 7 -22.5t3 -74.5q2 -82 -2 -131q-13 -194 -10 -236q11 -127 42 -148q8 -6 27 -11q27 -7 40 4t27 54q19 60 23 189q4 93 7 124q8 86 -3 119q-2 5 -4 13t-5 18
t-4 15q-5 25 -11 37q-6 11 -5 26t8 25q16 20 39 19.5t38 -22.5q6 -8 6 -17t-5 -60q-2 -29 1 -51q3 -40 0 -92q-3 -103 -4 -177q-3 -106 -9.5 -149t-26.5 -82q-10 -22 -39.5 -50.5t-47.5 -35.5z" />
    <glyph glyph-name="Yacute" unicode="&#xdd;" horiz-adv-x="466" 
d="M169 785q-9 13 0 29q1 2 2.5 6t3.5 10t4 10q19 46 29 61q7 9 20 13q12 4 27 -5q30 -18 13 -58q-9 -18 -40 -43q-23 -17 -26 -22q-8 -8 -17.5 -8t-15.5 7zM195 -83q-25 -3 -37 12q-13 16 -6.5 34.5t36.5 54.5q55 65 88 180q12 42 20 107q8 54 4 54q-1 0 -3 -1
q-25 -11 -85 -19q-44 -6 -72 -6q-39 2 -70 30.5t-45 74.5q-6 22 -4 62q8 125 20 174.5t39 65.5q16 10 36.5 7t33.5 -17q11 -11 14 -34q3 -24 -5 -56q-12 -46 -14 -67t2 -58q5 -37 14 -53.5t33 -27.5q15 -7 39 -4l25 3l12 17q9 14 21.5 47.5t13.5 47.5q2 9 -6 32
q-7 22 -11 63.5t-2 58.5t10 34q7 14 22 25t29 12q13 1 30.5 -5t26.5 -15q18 -18 27 -54t4 -70q-4 -26 -4 -49q-1 -50 -14 -97q-23 -89 -25 -195q-2 -58 -11.5 -96.5t-37.5 -94.5q-22 -44 -41 -71t-62 -74q-27 -29 -45 -32z" />
    <glyph glyph-name="Thorn" unicode="&#xde;" horiz-adv-x="542" 
d="M78 -50q-11 0 -16 7t-9 27q-4 29 -7 39q-3 12 -5 62q-2 51 8 248q3 45 -2 116q-5 45 -2.5 172.5t12.5 206.5q3 25 27 41q12 8 29.5 8t30.5 -10q18 -14 28.5 -67.5t12.5 -193.5q0 -5 0.5 -9t1 -7.5t1.5 -6t1.5 -3.5t1.5 -1q2 0 34 28q35 30 89.5 70.5t75.5 51.5
q20 11 43 17q27 7 51 1q43 -13 69 -63q7 -13 8 -22.5t1 -50.5q0 -57 -8 -82q-10 -29 -21 -47q-25 -43 -80 -88q-3 -2 -47 -39q-38 -34 -93 -52q-18 -4 -45 -17q-37 -17 -59 -17.5t-39 16.5q-10 10 -13 5q-3 -6 -3 -52q0 -126 -29 -202q-2 -7 -12 -35q-3 -9 -7 -25
q-8 -26 -28 -26zM178 369q8 6 25 12q4 1 10 3.5t14 6t11 4.5q24 11 33 12q29 8 80 68q41 50 57 64q22 24 26 32.5t4 27.5q-2 24 -3 25q-3 3 -39 -17q-33 -18 -63 -31q-40 -20 -68 -37q-13 -7 -37 -20.5t-29 -16.5q-19 -11 -22 -19t-7 -59q-4 -46 -6 -53q-2 -10 5 -7z" />
    <glyph glyph-name="germandbls" unicode="&#xdf;" horiz-adv-x="530" 
d="M263 -89q-11 3 -21.5 13.5t-14.5 21.5q-10 25 3 51q14 25 67 36q30 6 42 10q12 6 20 70q15 120 -55 160q-19 10 -38 10q-22 1 -33 7q-17 10 -24 29.5t-2 40.5q3 12 15.5 26t24.5 18q36 14 69 72q16 29 20 45t1 38q-6 40 -26 56q-14 11 -40.5 21.5t-41.5 10.5
q-13 0 -27 -15q-23 -24 -31 -63q-8 -50 -10 -246q-3 -147 2 -199q3 -28 -2 -63q-10 -72 -29 -94q-29 -34 -62 -10q-14 10 -17 22.5t-4 56.5q-2 54 -4 58q-2 3 -4 91q-2 116 -1 149.5t7 74.5q4 25 14 111q7 64 14 92t22 60q10 22 33 48q35 38 75 42q55 7 111 -29
q53 -36 72 -61t24.5 -47.5t2.5 -57.5q-8 -82 -47 -152q-12 -21 -11 -25.5t19 -15.5q81 -51 111 -142q31 -101 -13 -193q-25 -55 -54 -82t-71 -36q-8 -2 -23 -6t-16 -4q-25 -7 -47 0z" />
    <glyph glyph-name="agrave" unicode="&#xe0;" horiz-adv-x="493" 
d="M303 552q-13 0 -37 23q-13 12 -24 17q-21 11 -25 21q-5 11 -1 23.5t15 17.5q17 9 43 -7q33 -18 44 -57q6 -17 2 -27q-4 -11 -17 -11zM49 30q-49 45 -49 157q0 42 4 62q6 30 25.5 76t36.5 69q43 59 102 73q16 4 64 3t61 -5q12 -3 25.5 -15t19.5 -24q7 -15 7 -43.5
t-7 -41.5q-14 -24 -38 -24q-37 0 -47 48l-4 19h-29q-30 0 -38 -8q-22 -22 -34 -75q-10 -40 -14 -55q-9 -31 -10 -73.5t7 -52.5q3 -4 26 7q24 11 55 47q35 39 65 64q44 36 55 55q7 17 24 67q21 63 24 68q12 20 33.5 18t28.5 -24q4 -12 0 -34q-3 -17 -9 -43.5t-15 -63
t-14 -59.5q-5 -24 -10 -59q-2 -15 -5 -45q-2 -19 1 -20q4 -2 4 -19t-11 -27q-16 -14 -34.5 -8.5t-28.5 26.5t-6 86q2 32 -1 35q-2 2 -7 -5q-2 -4 -11 -20q-11 -20 -19 -34q-26 -45 -42 -65.5t-39 -35.5q-85 -57 -146 -1z" />
    <glyph glyph-name="aacute" unicode="&#xe1;" horiz-adv-x="493" 
d="M217 517q-9 13 0 29q1 2 2.5 6t3.5 10t4 10q19 46 29 61q7 9 20 13q12 4 27 -5q30 -18 13 -58q-9 -18 -40 -43q-23 -17 -26 -22q-8 -8 -17.5 -8t-15.5 7zM49 30q-49 45 -49 157q0 42 4 62q6 30 25.5 76t36.5 69q43 59 102 73q16 4 64 3t61 -5q12 -3 25.5 -15t19.5 -24
q7 -15 7 -43.5t-7 -41.5q-14 -24 -38 -24q-37 0 -47 48l-4 19h-29q-30 0 -38 -8q-22 -22 -34 -75q-10 -40 -14 -55q-9 -31 -10 -73.5t7 -52.5q3 -4 26 7q24 11 55 47q35 39 65 64q44 36 55 55q7 17 24 67q21 63 24 68q12 20 33.5 18t28.5 -24q4 -12 0 -34q-3 -17 -9 -43.5
t-15 -63t-14 -59.5q-5 -24 -10 -59q-2 -15 -5 -45q-2 -19 1 -20q4 -2 4 -19t-11 -27q-16 -14 -34.5 -8.5t-28.5 26.5t-6 86q2 32 -1 35q-2 2 -7 -5q-2 -4 -11 -20q-11 -20 -19 -34q-26 -45 -42 -65.5t-39 -35.5q-85 -57 -146 -1z" />
    <glyph glyph-name="acircumflex" unicode="&#xe2;" horiz-adv-x="493" 
d="M321 494q-15 0 -26 16q-7 11 -21 24l-15 15l-4 -4l-13 -18q-18 -22 -29 -23q-15 -2 -21 10q-6 11 9 51q22 53 44 63q16 8 33 -1q12 -7 23 -23q14 -20 22 -36q13 -24 16 -28q7 -12 7 -20q0 -11 -7 -18.5t-18 -7.5zM49 30q-49 45 -49 157q0 42 4 62q6 30 25.5 76t36.5 69
q43 59 102 73q16 4 64 3t61 -5q12 -3 25.5 -15t19.5 -24q7 -15 7 -43.5t-7 -41.5q-14 -24 -38 -24q-37 0 -47 48l-4 19h-29q-30 0 -38 -8q-22 -22 -34 -75q-10 -40 -14 -55q-9 -31 -10 -73.5t7 -52.5q3 -4 26 7q24 11 55 47q35 39 65 64q44 36 55 55q7 17 24 67q21 63 24 68
q12 20 33.5 18t28.5 -24q4 -12 0 -34q-3 -17 -9 -43.5t-15 -63t-14 -59.5q-5 -24 -10 -59q-2 -15 -5 -45q-2 -19 1 -20q4 -2 4 -19t-11 -27q-16 -14 -34.5 -8.5t-28.5 26.5t-6 86q2 32 -1 35q-2 2 -7 -5q-2 -4 -11 -20q-11 -20 -19 -34q-26 -45 -42 -65.5t-39 -35.5
q-85 -57 -146 -1z" />
    <glyph glyph-name="atilde" unicode="&#xe3;" horiz-adv-x="493" 
d="M291 519q-33 6 -60 38l-8 10l-4 -9q-8 -13 -9 -14q-5 -5 -15 -5t-16 7q-4 4 -9 14q-5 11 0 36q4 16 21 27t38 13q11 1 21 -4q15 -8 27 -30q4 -7 13 -17t11 -10q1 0 5 7l8 14t5 8q4 11 16 15q18 8 33 -8q6 -8 -14 -45t-31 -43q-12 -7 -32 -4zM49 30q-49 45 -49 157
q0 42 4 62q6 30 25.5 76t36.5 69q43 59 102 73q16 4 64 3t61 -5q12 -3 25.5 -15t19.5 -24q7 -15 7 -43.5t-7 -41.5q-14 -24 -38 -24q-37 0 -47 48l-4 19h-29q-30 0 -38 -8q-22 -22 -34 -75q-10 -40 -14 -55q-9 -31 -10 -73.5t7 -52.5q3 -4 26 7q24 11 55 47q35 39 65 64
q44 36 55 55q7 17 24 67q21 63 24 68q12 20 33.5 18t28.5 -24q4 -12 0 -34q-3 -17 -9 -43.5t-15 -63t-14 -59.5q-5 -24 -10 -59q-2 -15 -5 -45q-2 -19 1 -20q4 -2 4 -19t-11 -27q-16 -14 -34.5 -8.5t-28.5 26.5t-6 86q2 32 -1 35q-2 2 -7 -5q-2 -4 -11 -20q-11 -20 -19 -34
q-26 -45 -42 -65.5t-39 -35.5q-85 -57 -146 -1z" />
    <glyph glyph-name="adieresis" unicode="&#xe4;" horiz-adv-x="493" 
d="M347 559q-15 -22 -38 -19t-28 28q-3 17 3 31q2 5 12 13t17 9q7 2 15 1q12 -1 16 -5q26 -23 3 -58zM217 541q-16 0 -26 11q-12 11 -12 28t13 27q9 7 11 7q4 0 6 2h3q3 -1 5 -1q15 0 25.5 -12t10.5 -27t-9 -24q-11 -11 -27 -11zM49 30q-49 45 -49 157q0 42 4 62
q6 30 25.5 76t36.5 69q43 59 102 73q16 4 64 3t61 -5q12 -3 25.5 -15t19.5 -24q7 -15 7 -43.5t-7 -41.5q-14 -24 -38 -24q-37 0 -47 48l-4 19h-29q-30 0 -38 -8q-22 -22 -34 -75q-10 -40 -14 -55q-9 -31 -10 -73.5t7 -52.5q3 -4 26 7q24 11 55 47q35 39 65 64q44 36 55 55
q7 17 24 67q21 63 24 68q12 20 33.5 18t28.5 -24q4 -12 0 -34q-3 -17 -9 -43.5t-15 -63t-14 -59.5q-5 -24 -10 -59q-2 -15 -5 -45q-2 -19 1 -20q4 -2 4 -19t-11 -27q-16 -14 -34.5 -8.5t-28.5 26.5t-6 86q2 32 -1 35q-2 2 -7 -5q-2 -4 -11 -20q-11 -20 -19 -34
q-26 -45 -42 -65.5t-39 -35.5q-85 -57 -146 -1z" />
    <glyph glyph-name="aring" unicode="&#xe5;" horiz-adv-x="493" 
d="M253 506q-31 9 -46 32t-4 46q11 22 30 34q16 11 24 4q3 -2 6 1q9 9 17 11q11 3 27 -4q12 -5 18 -16t12 -36q4 -26 -19 -54q-27 -28 -65 -18zM290 554q10 8 3 21q-6 10 -15 14q-2 1 -5 2t-5 1l-2 1q-5 0 -11 -18q-2 -6 0 -11q4 -10 15.5 -13t19.5 3zM49 30q-49 45 -49 157
q0 42 4 62q6 30 25.5 76t36.5 69q43 59 102 73q16 4 64 3t61 -5q12 -3 25.5 -15t19.5 -24q7 -15 7 -43.5t-7 -41.5q-14 -24 -38 -24q-37 0 -47 48l-4 19h-29q-30 0 -38 -8q-22 -22 -34 -75q-10 -40 -14 -55q-9 -31 -10 -73.5t7 -52.5q3 -4 26 7q24 11 55 47q35 39 65 64
q44 36 55 55q7 17 24 67q21 63 24 68q12 20 33.5 18t28.5 -24q4 -12 0 -34q-3 -17 -9 -43.5t-15 -63t-14 -59.5q-5 -24 -10 -59q-2 -15 -5 -45q-2 -19 1 -20q4 -2 4 -19t-11 -27q-16 -14 -34.5 -8.5t-28.5 26.5t-6 86q2 32 -1 35q-2 2 -7 -5q-2 -4 -11 -20q-11 -20 -19 -34
q-26 -45 -42 -65.5t-39 -35.5q-85 -57 -146 -1z" />
    <glyph glyph-name="ae" unicode="&#xe6;" horiz-adv-x="697" 
d="M164 14q-12 -5 -38.5 -3.5t-46.5 8.5q-21 8 -36 23q-16 16 -20.5 32t-5.5 60q-1 69 3 98t21 68q24 56 66 96q38 37 74.5 46.5t79.5 -4.5q18 -6 29 -2q12 3 26 1q15 -2 29 6q39 23 72 26l23 2q8 1 31.5 -5t34.5 -11q36 -18 50.5 -43t12.5 -65q-3 -58 -52 -97
q-26 -22 -64 -31q-30 -7 -80 1q-26 5 -28 3q-5 -5 -2 -32q4 -36 13 -54t15 -24q2 -3 20 -5l26 -9q16 -6 38 -1q38 9 61 30q9 8 11 14t2 29q0 24 12.5 38.5t34.5 15.5q32 1 49 -16q27 -27 4 -77q-22 -49 -75 -77q-71 -38 -148 -29q-38 5 -46 4q-29 -3 -59 13q-13 7 -31 33
q-19 27 -25 27q-2 0 -21 -30q-33 -49 -60 -59zM362 320q20 0 40 1q39 2 46 8q19 15 18.5 32.5t-18.5 28.5q-22 13 -35 4q-5 -3 -28 -5l-22 -2l-2 -26l-2 -33q1 -8 3 -8zM151 150q1 -1 5 3.5t17 19.5q24 28 35 39l13 13l5 35q2 11 4.5 31.5t3.5 25.5q3 22 1 25
q-5 7 -19.5 -1.5t-31.5 -28.5q-25 -31 -36 -94q-2 -12 -0.5 -37t3.5 -31z" />
    <glyph glyph-name="ccedilla" unicode="&#xe7;" horiz-adv-x="348" 
d="M93 347q-6 -17 -7 -59q-3 -72 33 -128q19 -29 43 -34q43 -8 83 34q35 35 56 7q11 -14 3 -32t-37 -47q-27 -27 -52 -40q-8 -4 -18 -8q2 -2 9 -4q34 -6 39 -52q1 -29 -25 -51q-13 -12 -28 -17q-16 -5 -43 0q-25 5 -34 14q-10 8 -10 21.5t10 21.5q17 14 42 -8q10 -10 16 -12
q8 -2 18 10q8 9 5 18q-1 11 -12 11q-16 0 -22 11q-2 4 -2 34h-5q-32 0 -53 9q-43 21 -65 69q-36 75 -36 189q0 130 61 192q24 25 65 34h56q35 0 43.5 -1t24.5 -8q39 -19 57 -51q7 -13 9.5 -38.5t-1.5 -41.5q-6 -20 -26 -33.5t-40 -11.5q-45 6 -53 54q-4 18 -11 22.5t-32 4.5
q-23 0 -33 -9q-9 -9 -28 -70z" />
    <glyph glyph-name="egrave" unicode="&#xe8;" horiz-adv-x="421" 
d="M246 584q-13 0 -37 23q-13 12 -24 17q-21 11 -25 21q-5 11 -1 23.5t15 17.5q17 9 43 -7q33 -18 44 -57q6 -17 2 -27q-4 -11 -17 -11zM210 42q-89 -12 -137 11q-41 19 -66 106q-7 25 -7 76q0 94 30 147q15 27 44 58q32 35 62 50q19 10 69 2.5t82 -24.5q19 -10 42 -45.5
t30 -65.5q8 -35 -5 -65q-9 -22 -45 -44.5t-70 -27.5q-70 -11 -103 -1q-14 4 -25.5 5.5t-18 -0.5t-6.5 -6q0 -16 1 -29l2 -22l14 -7q2 -1 13.5 -7.5t17.5 -9.5q15 -9 34 -9q20 0 42 -5q47 -10 62 5q8 8 20 25q23 33 39 30q8 -1 13.5 -8.5t3.5 -14.5q0 -1 -1.5 -9.5
t-2.5 -13.5q-8 -35 -51 -64q-33 -22 -46 -28t-37 -9zM258 304q25 11 28 24.5t-15 38.5q-15 21 -27 28q-5 3 -41 20q-30 14 -35 14q-16 0 -43.5 -36t-29.5 -59q-1 -8 0 -9.5t8 -0.5q24 2 58 -13q18 -8 50.5 -10.5t46.5 3.5z" />
    <glyph glyph-name="eacute" unicode="&#xe9;" horiz-adv-x="421" 
d="M160 549q-9 13 0 29q1 2 2.5 6t3.5 10t4 10q19 46 29 61q7 9 20 13q12 4 27 -5q30 -18 13 -58q-9 -18 -40 -43q-23 -17 -26 -22q-8 -8 -17.5 -8t-15.5 7zM210 42q-89 -12 -137 11q-41 19 -66 106q-7 25 -7 76q0 94 30 147q15 27 44 58q32 35 62 50q19 10 69 2.5t82 -24.5
q19 -10 42 -45.5t30 -65.5q8 -35 -5 -65q-9 -22 -45 -44.5t-70 -27.5q-70 -11 -103 -1q-14 4 -25.5 5.5t-18 -0.5t-6.5 -6q0 -16 1 -29l2 -22l14 -7q2 -1 13.5 -7.5t17.5 -9.5q15 -9 34 -9q20 0 42 -5q47 -10 62 5q8 8 20 25q23 33 39 30q8 -1 13.5 -8.5t3.5 -14.5
q0 -1 -1.5 -9.5t-2.5 -13.5q-8 -35 -51 -64q-33 -22 -46 -28t-37 -9zM258 304q25 11 28 24.5t-15 38.5q-15 21 -27 28q-5 3 -41 20q-30 14 -35 14q-16 0 -43.5 -36t-29.5 -59q-1 -8 0 -9.5t8 -0.5q24 2 58 -13q18 -8 50.5 -10.5t46.5 3.5z" />
    <glyph glyph-name="ecircumflex" unicode="&#xea;" horiz-adv-x="421" 
d="M264 526q-15 0 -26 16q-7 11 -21 24l-15 15l-4 -4l-13 -18q-18 -22 -29 -23q-15 -2 -21 10q-6 11 9 51q22 53 44 63q16 8 33 -1q12 -7 23 -23q14 -20 22 -36q13 -24 16 -28q7 -12 7 -20q0 -11 -7 -18.5t-18 -7.5zM210 42q-89 -12 -137 11q-41 19 -66 106q-7 25 -7 76
q0 94 30 147q15 27 44 58q32 35 62 50q19 10 69 2.5t82 -24.5q19 -10 42 -45.5t30 -65.5q8 -35 -5 -65q-9 -22 -45 -44.5t-70 -27.5q-70 -11 -103 -1q-14 4 -25.5 5.5t-18 -0.5t-6.5 -6q0 -16 1 -29l2 -22l14 -7q2 -1 13.5 -7.5t17.5 -9.5q15 -9 34 -9q20 0 42 -5
q47 -10 62 5q8 8 20 25q23 33 39 30q8 -1 13.5 -8.5t3.5 -14.5q0 -1 -1.5 -9.5t-2.5 -13.5q-8 -35 -51 -64q-33 -22 -46 -28t-37 -9zM258 304q25 11 28 24.5t-15 38.5q-15 21 -27 28q-5 3 -41 20q-30 14 -35 14q-16 0 -43.5 -36t-29.5 -59q-1 -8 0 -9.5t8 -0.5q24 2 58 -13
q18 -8 50.5 -10.5t46.5 3.5z" />
    <glyph glyph-name="edieresis" unicode="&#xeb;" horiz-adv-x="421" 
d="M290 591q-15 -22 -38 -19t-28 28q-3 17 3 31q2 5 12 13t17 9q7 2 15 1q12 -1 16 -5q26 -23 3 -58zM160 573q-16 0 -26 11q-12 11 -12 28t13 27q9 7 11 7q4 0 6 2h3q3 -1 5 -1q15 0 25.5 -12t10.5 -27t-9 -24q-11 -11 -27 -11zM210 42q-89 -12 -137 11q-41 19 -66 106
q-7 25 -7 76q0 94 30 147q15 27 44 58q32 35 62 50q19 10 69 2.5t82 -24.5q19 -10 42 -45.5t30 -65.5q8 -35 -5 -65q-9 -22 -45 -44.5t-70 -27.5q-70 -11 -103 -1q-14 4 -25.5 5.5t-18 -0.5t-6.5 -6q0 -16 1 -29l2 -22l14 -7q2 -1 13.5 -7.5t17.5 -9.5q15 -9 34 -9
q20 0 42 -5q47 -10 62 5q8 8 20 25q23 33 39 30q8 -1 13.5 -8.5t3.5 -14.5q0 -1 -1.5 -9.5t-2.5 -13.5q-8 -35 -51 -64q-33 -22 -46 -28t-37 -9zM258 304q25 11 28 24.5t-15 38.5q-15 21 -27 28q-5 3 -41 20q-30 14 -35 14q-16 0 -43.5 -36t-29.5 -59q-1 -8 0 -9.5t8 -0.5
q24 2 58 -13q18 -8 50.5 -10.5t46.5 3.5z" />
    <glyph glyph-name="igrave" unicode="&#xec;" horiz-adv-x="218" 
d="M79 549q-13 0 -37 23q-13 12 -24 17q-21 11 -25 21q-5 11 -1 23.5t15 17.5q17 9 43 -7q33 -18 44 -57q6 -17 2 -27q-4 -11 -17 -11zM134 -19q-10 0 -29 11q-21 12 -26 12t-17.5 14.5t-17.5 27.5q-13 32 -16 184q-1 68 -9 110q-13 73 4 107q13 26 41 35q22 7 44 -4
q21 -11 32 -36q22 -51 9 -158q-5 -40 -10 -105q-6 -73 -6 -80q-2 -27 0 -36t10 -16q5 -4 12 0q12 6 23.5 2.5t16.5 -14.5q8 -17 -6 -29q-7 -7 -27.5 -16t-27.5 -9z" />
    <glyph glyph-name="iacute" unicode="&#xed;" horiz-adv-x="228" 
d="M71 521q-9 13 0 29q1 2 2.5 6t3.5 10t4 10q19 46 29 61q7 9 20 13q12 4 27 -5q30 -18 13 -58q-9 -18 -40 -43q-23 -17 -26 -22q-8 -8 -17.5 -8t-15.5 7zM134 -19q-10 0 -29 11q-21 12 -26 12t-17.5 14.5t-17.5 27.5q-13 32 -16 184q-1 68 -9 110q-13 73 4 107
q13 26 41 35q22 7 44 -4q21 -11 32 -36q22 -51 9 -158q-5 -40 -10 -105q-6 -73 -6 -80q-2 -27 0 -36t10 -16q5 -4 12 0q12 6 23.5 2.5t16.5 -14.5q8 -17 -6 -29q-7 -7 -27.5 -16t-27.5 -9z" />
    <glyph glyph-name="icircumflex" unicode="&#xee;" horiz-adv-x="198" 
d="M152 538q-15 0 -26 16q-7 11 -21 24l-15 15l-4 -4l-13 -18q-18 -22 -29 -23q-15 -2 -21 10q-6 11 9 51q22 53 44 63q16 8 33 -1q12 -7 23 -23q14 -20 22 -36q13 -24 16 -28q7 -12 7 -20q0 -11 -7 -18.5t-18 -7.5zM134 -19q-10 0 -29 11q-21 12 -26 12t-17.5 14.5
t-17.5 27.5q-13 32 -16 184q-1 68 -9 110q-13 73 4 107q13 26 41 35q22 7 44 -4q21 -11 32 -36q22 -51 9 -158q-5 -40 -10 -105q-6 -73 -6 -80q-2 -27 0 -36t10 -16q5 -4 12 0q12 6 23.5 2.5t16.5 -14.5q8 -17 -6 -29q-7 -7 -27.5 -16t-27.5 -9z" />
    <glyph glyph-name="idieresis" unicode="&#xef;" horiz-adv-x="198" 
d="M168 578q-15 -22 -38 -19t-28 28q-3 17 3 31q2 5 12 13t17 9q7 2 15 1q12 -1 16 -5q26 -23 3 -58zM38 560q-16 0 -26 11q-12 11 -12 28t13 27q9 7 11 7q4 0 6 2l3 -1h5q15 0 25.5 -12t10.5 -27t-9 -24q-11 -11 -27 -11zM134 -19q-10 0 -29 11q-21 12 -26 12t-17.5 14.5
t-17.5 27.5q-13 32 -16 184q-1 68 -9 110q-13 73 4 107q13 26 41 35q22 7 44 -4q21 -11 32 -36q22 -51 9 -158q-5 -40 -10 -105q-6 -73 -6 -80q-2 -27 0 -36t10 -16q5 -4 12 0q12 6 23.5 2.5t16.5 -14.5q8 -17 -6 -29q-7 -7 -27.5 -16t-27.5 -9z" />
    <glyph glyph-name="eth" unicode="&#xf0;" horiz-adv-x="340" 
d="M131 24q-29 -4 -46 2q-37 14 -61 50q-10 15 -12 23t-7 41q-7 44 -4 65q4 33 25 85t37 67t32.5 20.5t64.5 11.5l59 8q-1 2 -23.5 30t-31.5 37q-6 7 -45 39q-14 2 -42 -2q-52 -9 -66 4q-6 6 -7.5 18.5t5.5 16.5q10 5 18 9.5t11.5 7t7.5 4t9 2.5q-8 10 -18.5 26t-16.5 23
q-41 42 -20 64q21 20 70 -1q38 -17 72 -54q-7 0 29 -29q3 -2 6 -5l10 -9q25 -11 61 -5q52 9 66 -4q6 -5 6.5 -16.5t-4.5 -18.5q-11 -17 -67 -22q31 -41 47 -72q15 -28 18 -42.5t1 -43.5q0 -10 -1 -29t-1 -22q-3 -32 -6 -46q-1 -9 -4 -24.5t-3 -18.5q-4 -26 -18 -71t-23 -58
t-21.5 -21t-45.5 -22t-61 -18zM169 117q50 -5 59 12q29 48 34 78q8 58 -21 88.5t-93 7.5h-9.5t-8.5 -4q-6 -9 -13 -61q-5 -35 1 -70q4 -34 11.5 -41.5t39.5 -9.5z" />
    <glyph glyph-name="ntilde" unicode="&#xf1;" horiz-adv-x="510" 
d="M278 535q-33 6 -60 38l-8 10l-4 -9q-7 -12 -9 -14q-5 -5 -15 -5t-16 7q-4 4 -9 14q-5 11 0 36q4 16 21 27t38 13q11 1 21 -4q15 -8 27 -30q4 -7 13 -17t11 -10q1 0 5 7l8 14t5 8q4 11 16 15q18 8 33 -8q6 -8 -14 -45t-31 -43q-12 -7 -32 -4zM74 3q-20 0 -31 10
q-22 22 -33 64q-4 22 -6 61q-1 46 7 105q15 104 25 143t27 59q21 24 48 23t46 -25q10 -12 11 -41q0 -28 3 -28l29 25q28 25 44.5 35.5t45.5 22.5q34 14 50 22q16 9 33 16q44 19 81 -15t23 -82q-8 -29 -55 -94q-38 -51 -56 -104q-6 -16 -8 -51q-2 -29 -0.5 -42.5t11.5 -55.5
q11 -47 -25 -47q-15 0 -25 8t-20 29q-25 52 -32 115q-6 62 2.5 104t34.5 88q10 20 10 22q0 10 -50 -17l-5 -3q-33 -18 -74 -62q-45 -47 -45 -52q0 -2 -1.5 -9.5t-3.5 -20.5t-4 -25q-4 -38 -12 -71q-5 -29 -3 -43q7 -34 -13 -54q-9 -10 -29 -10z" />
    <glyph glyph-name="ograve" unicode="&#xf2;" horiz-adv-x="407" 
d="M222 584q-13 0 -37 23q-13 12 -24 17q-21 11 -25 21q-5 11 -1 23.5t15 17.5q17 9 43 -7q33 -18 44 -57q6 -17 2 -27q-4 -11 -17 -11zM113 29l-27 16q-62 37 -78.5 110t6.5 196q10 58 19.5 81.5t28.5 38.5q22 19 48 16t39 -27q16 -29 -2 -73q-5 -12 -10 -39t-10 -58
t-6 -38q-5 -23 -0.5 -65.5t16.5 -70.5q5 -13 21 -19t29 1q14 8 48 48.5t47 65.5q11 23 19.5 106.5t0.5 95.5q-6 11 -34.5 19t-62.5 -2q-16 -7 -25.5 4t-9.5 26q0 11 10 20q5 4 13.5 3t21.5 4q52 24 106 -22q19 -17 23 -27.5t4 -44.5q0 -27 -7.5 -101.5t-10.5 -89.5
q-1 -3 -22 -48q-25 -51 -45 -77t-46 -40q-12 -7 -20.5 -8t-40.5 -1h-43z" />
    <glyph glyph-name="oacute" unicode="&#xf3;" horiz-adv-x="407" 
d="M136 549q-9 13 0 29q1 2 2.5 6t3.5 10t4 10q19 46 29 61q7 9 20 13q12 4 27 -5q30 -18 13 -58q-9 -18 -40 -43q-23 -17 -26 -22q-8 -8 -17.5 -8t-15.5 7zM113 29l-27 16q-62 37 -78.5 110t6.5 196q10 58 19.5 81.5t28.5 38.5q22 19 48 16t39 -27q16 -29 -2 -73
q-5 -12 -10 -39t-10 -58t-6 -38q-5 -23 -0.5 -65.5t16.5 -70.5q5 -13 21 -19t29 1q14 8 48 48.5t47 65.5q11 23 19.5 106.5t0.5 95.5q-6 11 -34.5 19t-62.5 -2q-16 -7 -25.5 4t-9.5 26q0 11 10 20q5 4 13.5 3t21.5 4q52 24 106 -22q19 -17 23 -27.5t4 -44.5
q0 -27 -7.5 -101.5t-10.5 -89.5q-1 -3 -22 -48q-25 -51 -45 -77t-46 -40q-12 -7 -20.5 -8t-40.5 -1h-43z" />
    <glyph glyph-name="ocircumflex" unicode="&#xf4;" horiz-adv-x="407" 
d="M240 526q-15 0 -26 16q-7 11 -21 24l-15 15l-4 -4l-13 -18q-18 -22 -29 -23q-15 -2 -21 10q-6 11 9 51q22 53 44 63q16 8 33 -1q12 -7 23 -23q14 -20 22 -36q13 -24 16 -28q7 -12 7 -20q0 -11 -7 -18.5t-18 -7.5zM113 29l-27 16q-62 37 -78.5 110t6.5 196
q10 58 19.5 81.5t28.5 38.5q22 19 48 16t39 -27q16 -29 -2 -73q-5 -12 -10 -39t-10 -58t-6 -38q-5 -23 -0.5 -65.5t16.5 -70.5q5 -13 21 -19t29 1q14 8 48 48.5t47 65.5q11 23 19.5 106.5t0.5 95.5q-6 11 -34.5 19t-62.5 -2q-16 -7 -25.5 4t-9.5 26q0 11 10 20q5 4 13.5 3
t21.5 4q52 24 106 -22q19 -17 23 -27.5t4 -44.5q0 -27 -7.5 -101.5t-10.5 -89.5q-1 -3 -22 -48q-25 -51 -45 -77t-46 -40q-12 -7 -20.5 -8t-40.5 -1h-43z" />
    <glyph glyph-name="otilde" unicode="&#xf5;" horiz-adv-x="407" 
d="M210 551q-33 6 -60 38l-8 10l-4 -9q-8 -12 -9 -14q-5 -5 -15 -5t-16 7q-4 4 -9 14q-5 11 0 36q4 16 21 27t38 13q11 1 21 -4q15 -8 27 -30q4 -7 13 -17t11 -10q1 0 5 7l8 14t5 8q4 11 16 15q18 8 33 -8q6 -8 -14 -45t-31 -43q-12 -7 -32 -4zM113 29l-27 16
q-62 37 -78.5 110t6.5 196q10 58 19.5 81.5t28.5 38.5q22 19 48 16t39 -27q16 -29 -2 -73q-5 -12 -10 -39t-10 -58t-6 -38q-5 -23 -0.5 -65.5t16.5 -70.5q5 -13 21 -19t29 1q14 8 48 48.5t47 65.5q11 23 19.5 106.5t0.5 95.5q-6 11 -34.5 19t-62.5 -2q-16 -7 -25.5 4
t-9.5 26q0 11 10 20q5 4 13.5 3t21.5 4q52 24 106 -22q19 -17 23 -27.5t4 -44.5q0 -27 -7.5 -101.5t-10.5 -89.5q-1 -3 -22 -48q-25 -51 -45 -77t-46 -40q-12 -7 -20.5 -8t-40.5 -1h-43z" />
    <glyph glyph-name="odieresis" unicode="&#xf6;" horiz-adv-x="407" 
d="M266 591q-15 -22 -38 -19t-28 28q-3 17 3 31q2 5 12 13t17 9q7 2 15 1q12 -1 16 -5q26 -23 3 -58zM136 573q-16 0 -26 11q-12 11 -12 28t13 27q9 7 11 7q4 0 6 2h3q3 -1 5 -1q15 0 25.5 -12t10.5 -27t-9 -24q-11 -11 -27 -11zM113 29l-27 16q-62 37 -78.5 110t6.5 196
q10 58 19.5 81.5t28.5 38.5q22 19 48 16t39 -27q16 -29 -2 -73q-5 -12 -10 -39t-10 -58t-6 -38q-5 -23 -0.5 -65.5t16.5 -70.5q5 -13 21 -19t29 1q14 8 48 48.5t47 65.5q11 23 19.5 106.5t0.5 95.5q-6 11 -34.5 19t-62.5 -2q-16 -7 -25.5 4t-9.5 26q0 11 10 20q5 4 13.5 3
t21.5 4q52 24 106 -22q19 -17 23 -27.5t4 -44.5q0 -27 -7.5 -101.5t-10.5 -89.5q-1 -3 -22 -48q-25 -51 -45 -77t-46 -40q-12 -7 -20.5 -8t-40.5 -1h-43z" />
    <glyph glyph-name="divide" unicode="&#xf7;" horiz-adv-x="607" 
d="M304 443q-32 2 -51.5 22t-12.5 48q2 10 20.5 32.5t29.5 28.5q8 5 25.5 4.5t27.5 -5.5q26 -13 32.5 -42.5t-12.5 -56.5q-23 -33 -59 -31zM175 294q-51 -1 -64.5 0.5t-24.5 8.5q-48 27 -32 59t82 39q38 4 196 -4q239 -11 224 -46q-1 -2 -4 -5q-4 -4 -44.5 -19.5
t-74.5 -24.5q-24 -6 -258 -8zM284 99q-32 2 -51.5 22t-12.5 48q2 10 20.5 32.5t29.5 28.5q8 5 25.5 4.5t27.5 -5.5q26 -13 32.5 -42.5t-12.5 -56.5q-23 -33 -59 -31z" />
    <glyph glyph-name="oslash" unicode="&#xf8;" horiz-adv-x="407" 
d="M336 519q35 -6 27 -48q-2 -13 -17 -38q2 -9 2 -39q0 -27 -7.5 -101.5t-10.5 -89.5q-1 -3 -22 -48q-25 -51 -45 -77t-46 -40q-12 -7 -20.5 -8t-40.5 -1h-43l-3 2l-6 -4q-9 -5 -22.5 -3.5t-22.5 7.5q-21 14 -14 47q-35 40 -42 107t11 166q10 58 19.5 81.5t28.5 38.5
q22 19 48 16t39 -27q16 -29 -2 -73q-5 -12 -10 -39t-10 -58t-6 -38q-3 -19 -2 -42q60 90 72 113q23 45 61 113q-24 3 -47 -5q-16 -7 -25.5 4t-9.5 26q0 11 10 20q5 4 13.5 3t21.5 4q39 17 72 1q16 23 26 29q8 4 23 1zM187 98q14 8 48 48.5t47 65.5q7 15 14 64.5t9 90.5
q-12 -21 -30.5 -54.5t-20.5 -36.5l-74 -135q-4 -6 -12.5 -21t-12.5 -22q19 -7 32 0z" />
    <glyph glyph-name="ugrave" unicode="&#xf9;" horiz-adv-x="433" 
d="M271 576q-13 0 -37 23q-13 12 -24 17q-21 11 -25 21q-5 11 -1 23.5t15 17.5q17 9 43 -7q33 -18 44 -57q6 -17 2 -27q-4 -11 -17 -11zM371 49q-13 -1 -21 3.5t-24 20.5q-11 11 -20.5 26t-9.5 21q0 9 -11 -11q-1 -1 -2 -3q-13 -22 -31 -40q-29 -29 -80 -35.5t-113 19.5
q-20 9 -29.5 27.5t-16.5 56.5q-7 39 -8 45q-5 49 0 102q5 55 2 100q-2 41 4 58q16 43 57 56q20 6 44 -1q20 -6 32 -24t12 -41q0 -51 -27 -190q-6 -32 -5 -68.5t6 -45.5q2 -4 21.5 -14t23.5 -10q3 0 16 -8q11 -8 15 -5.5t17 25.5q24 43 40 97q20 69 25 131q10 110 19 123
q11 17 28.5 19t30.5 -11q17 -19 4 -65q-3 -11 -7 -29t-4 -19q-1 -3 -3 -13t-3 -13q-13 -40 -13 -115q0 -45 6 -64.5t23 -28.5q42 -23 32 -52q-8 -23 -30 -24z" />
    <glyph glyph-name="uacute" unicode="&#xfa;" horiz-adv-x="433" 
d="M185 541q-9 13 0 29q1 2 2.5 6t3.5 10t4 10q19 46 29 61q7 9 20 13q12 4 27 -5q30 -18 13 -58q-9 -18 -40 -43q-23 -17 -26 -22q-8 -8 -17.5 -8t-15.5 7zM371 49q-13 -1 -21 3.5t-24 20.5q-11 11 -20.5 26t-9.5 21q0 9 -11 -11q-1 -1 -2 -3q-13 -22 -31 -40
q-29 -29 -80 -35.5t-113 19.5q-20 9 -29.5 27.5t-16.5 56.5q-7 39 -8 45q-5 49 0 102q5 55 2 100q-2 41 4 58q16 43 57 56q20 6 44 -1q20 -6 32 -24t12 -41q0 -51 -27 -190q-6 -32 -5 -68.5t6 -45.5q2 -4 21.5 -14t23.5 -10q3 0 16 -8q11 -8 15 -5.5t17 25.5q24 43 40 97
q20 69 25 131q10 110 19 123q11 17 28.5 19t30.5 -11q17 -19 4 -65q-3 -11 -7 -29t-4 -19q-1 -3 -3 -13t-3 -13q-13 -40 -13 -115q0 -45 6 -64.5t23 -28.5q42 -23 32 -52q-8 -23 -30 -24z" />
    <glyph glyph-name="ucircumflex" unicode="&#xfb;" horiz-adv-x="433" 
d="M289 518q-15 0 -26 16q-7 11 -21 24l-15 15l-4 -4l-13 -18q-18 -22 -29 -23q-15 -2 -21 10q-6 11 9 51q22 53 44 63q16 8 33 -1q12 -7 23 -23q14 -20 22 -36q13 -24 16 -28q7 -12 7 -20q0 -11 -7 -18.5t-18 -7.5zM371 49q-13 -1 -21 3.5t-24 20.5q-11 11 -20.5 26
t-9.5 21q0 9 -11 -11q-1 -1 -2 -3q-13 -22 -31 -40q-29 -29 -80 -35.5t-113 19.5q-20 9 -29.5 27.5t-16.5 56.5q-7 39 -8 45q-5 49 0 102q5 55 2 100q-2 41 4 58q16 43 57 56q20 6 44 -1q20 -6 32 -24t12 -41q0 -51 -27 -190q-6 -32 -5 -68.5t6 -45.5q2 -4 21.5 -14
t23.5 -10q3 0 16 -8q11 -8 15 -5.5t17 25.5q24 43 40 97q20 69 25 131q10 110 19 123q11 17 28.5 19t30.5 -11q17 -19 4 -65q-3 -11 -7 -29t-4 -19q-1 -3 -3 -13t-3 -13q-13 -40 -13 -115q0 -45 6 -64.5t23 -28.5q42 -23 32 -52q-8 -23 -30 -24z" />
    <glyph glyph-name="udieresis" unicode="&#xfc;" horiz-adv-x="433" 
d="M315 583q-15 -22 -38 -19t-28 28q-3 17 3 31q2 5 12 13t17 9q7 2 15 1q12 -1 16 -5q26 -23 3 -58zM185 565q-16 0 -26 11q-12 11 -12 28t13 27q9 7 11 7q4 0 6 2h3q3 -1 5 -1q15 0 25.5 -12t10.5 -27t-9 -24q-11 -11 -27 -11zM371 49q-13 -1 -21 3.5t-24 20.5
q-11 11 -20.5 26t-9.5 21q0 9 -11 -11q-1 -1 -2 -3q-13 -22 -31 -40q-29 -29 -80 -35.5t-113 19.5q-20 9 -29.5 27.5t-16.5 56.5q-7 39 -8 45q-5 49 0 102q5 55 2 100q-2 41 4 58q16 43 57 56q20 6 44 -1q20 -6 32 -24t12 -41q0 -51 -27 -190q-6 -32 -5 -68.5t6 -45.5
q2 -4 21.5 -14t23.5 -10q3 0 16 -8q11 -8 15 -5.5t17 25.5q24 43 40 97q20 69 25 131q10 110 19 123q11 17 28.5 19t30.5 -11q17 -19 4 -65q-3 -11 -7 -29t-4 -19q-1 -3 -3 -13t-3 -13q-13 -40 -13 -115q0 -45 6 -64.5t23 -28.5q42 -23 32 -52q-8 -23 -30 -24z" />
    <glyph glyph-name="yacute" unicode="&#xfd;" horiz-adv-x="450" 
d="M199 595q-9 13 0 29q1 2 2.5 6t3.5 10t4 10q19 46 29 61q7 9 20 13q12 4 27 -5q30 -18 13 -58q-9 -18 -40 -43q-23 -17 -26 -22q-8 -8 -17.5 -8t-15.5 7zM73 -370q-42 1 -64 42q-9 17 -9 68q0 46 8 69q6 19 24 42q4 5 14 20.5t15 20.5q4 5 62.5 71.5t86.5 96.5
q16 17 26 17t18.5 -7t8.5 -15l-43 -50q-77 -90 -107 -132q-4 -5 -16 -37q-14 -37 -17 -46q-12 -42 -5 -45q4 -1 23 9.5t28 19.5q7 6 34.5 46t46.5 72q48 81 64 180q3 18 7 59.5t1 41.5q-1 0 -36 -35q-39 -39 -57 -46t-57 3q-74 20 -97 74q-22 50 -13 125q7 64 18.5 99.5
t36.5 75.5t33.5 51.5t18.5 15.5q18 6 35.5 -2t23.5 -26q8 -24 -14 -99q-11 -37 -23 -121t-8 -97q2 -8 12.5 -13.5t18.5 -2.5q6 2 50 45.5t53 57.5l9 13l-7 22q-7 21 -10.5 38.5t-3.5 32.5t0.5 23t2.5 21.5t3 17.5q7 45 23 61q25 25 57 25q31 0 44 -28q6 -13 8 -50
q1 -20 -5 -51q-24 -130 -27 -136q-1 -1 -9 -64q-1 -7 -3.5 -26.5t-3.5 -25.5t-3 -22t-3.5 -23t-3.5 -20.5t-4.5 -22t-5.5 -21.5t-7 -25t-8 -25q-9 -26 -18 -61q-18 -65 -26 -86q-42 -107 -127 -183q-38 -34 -73 -32z" />
    <glyph glyph-name="thorn" unicode="&#xfe;" horiz-adv-x="401" 
d="M81 -185q-22 -21 -34 -17.5t-28 32.5q-8 14 -10 59q-1 29 5 109q6 74 6 117q0 50 -4 172t-7 156q-12 150 -4 176q4 13 14 24t20 14q19 5 36.5 -2.5t26.5 -26.5q10 -20 12 -59l2 -31h26q28 0 47 -9q23 -12 30 -17l36 -20q56 -29 78 -74q17 -35 23.5 -82t-1.5 -84
q-8 -36 -26 -81.5t-31 -61.5q-24 -28 -81 -40t-91 1q-5 2 -10.5 3.5t-9.5 3t-5 1.5q-3 1 -4 -4q-1 -10 5 -131q4 -68 0 -89.5t-21 -38.5zM203 188q3 3 8.5 30t7.5 43q3 39 -15 80q-6 14 -24 26q-24 16 -35 26q-16 14 -22 14q-14 0 -14 -47q0 -99 8 -144l3 -17l25 -2
q31 -2 41 -6q15 -5 17 -3z" />
    <glyph glyph-name="ydieresis" unicode="&#xff;" horiz-adv-x="450" 
d="M329 637q-15 -22 -38 -19t-28 28q-3 17 3 31q2 5 12 13t17 9q7 2 15 1q12 -1 16 -5q26 -23 3 -58zM199 619q-16 0 -26 11q-12 11 -12 28t13 27q9 7 11 7q4 0 6 2h3q3 -1 5 -1q15 0 25.5 -12t10.5 -27t-9 -24q-11 -11 -27 -11zM73 -370q-42 1 -64 42q-9 17 -9 68
q0 46 8 69q6 19 24 42q4 5 14 20.5t15 20.5q4 5 62.5 71.5t86.5 96.5q16 17 26 17t18.5 -7t8.5 -15l-43 -50q-77 -90 -107 -132q-4 -5 -16 -37q-14 -37 -17 -46q-12 -42 -5 -45q4 -1 23 9.5t28 19.5q7 6 34.5 46t46.5 72q48 81 64 180q3 18 7 59.5t1 41.5q-1 0 -36 -35
q-39 -39 -57 -46t-57 3q-74 20 -97 74q-22 50 -13 125q7 64 18.5 99.5t36.5 75.5t33.5 51.5t18.5 15.5q18 6 35.5 -2t23.5 -26q8 -24 -14 -99q-11 -37 -23 -121t-8 -97q2 -8 12.5 -13.5t18.5 -2.5q6 2 50 45.5t53 57.5l9 13l-7 22q-7 21 -10.5 38.5t-3.5 32.5t0.5 23
t2.5 21.5t3 17.5q7 45 23 61q25 25 57 25q31 0 44 -28q6 -13 8 -50q1 -20 -5 -51q-24 -130 -27 -136q-1 -1 -9 -64q-1 -7 -3.5 -26.5t-3.5 -25.5t-3 -22t-3.5 -23t-3.5 -20.5t-4.5 -22t-5.5 -21.5t-7 -25t-8 -25q-9 -26 -18 -61q-18 -65 -26 -86q-42 -107 -127 -183
q-38 -34 -73 -32z" />
    <glyph glyph-name="Amacron" unicode="&#x100;" horiz-adv-x="557" 
d="M489 787q-9 -2 -35 1q-40 6 -43 6q-33 2 -54 14q-16 10 -15 30q1 9 7 16q8 11 27 16q8 2 42 0.5t47 -3.5q27 -4 47 -15.5t22 -22.5q3 -15 -10 -27t-35 -15zM167 -74q-18 -38 -60.5 -35.5t-59.5 42.5q-10 26 -5 56q3 23 4 52q1 27 6 46.5t36 114.5l6 17l-12 12
q-43 43 -28 80q7 17 22.5 23.5t33.5 0.5q12 -5 16 -5q2 0 11 27q10 33 35 73q12 17 28 44.5t16 30.5q0 1 8 13q7 10 28 48q54 101 98 144q24 24 36 28q19 8 39.5 3.5t32.5 -18.5q17 -19 31 -64q14 -39 16 -77q9 -112 -20 -238q-10 -46 -11.5 -69t1.5 -101q3 -96 11 -115
q7 -23 7 -33q1 -15 -10 -26t-26 -11q-16 0 -26 9t-14 18q-20 52 -24 156q0 44 -2 44l-2 -1l-5 -2.5t-6 -2.5q-18 -8 -104 -16q-54 -4 -56 -7q-2 -1 -15 -59q-15 -67 -17 -74q-4 -21 -3 -26q0 -17 -6 -54t-10 -48zM394 265q1 0 9 52q2 12 5 32t5 31q5 28 -1 110.5t-15 106.5
q-6 17 -9 17q-2 1 -14.5 -14t-27.5 -36.5t-27 -40.5q-58 -105 -72 -143q-8 -22 -14 -57t-2 -38q2 -2 55 -6t80 -5q10 0 20 -5z" />
    <glyph glyph-name="amacron" unicode="&#x101;" horiz-adv-x="493" 
d="M318 535q-9 -2 -35 1q-40 6 -43 6q-33 2 -54 14q-16 10 -15 30q1 9 7 16q8 11 27 16q8 2 42 0.5t47 -3.5q27 -4 47 -15.5t22 -22.5q3 -15 -10 -27t-35 -15zM49 30q-49 45 -49 157q0 42 4 62q6 30 25.5 76t36.5 69q43 59 102 73q16 4 64 3t61 -5q12 -3 25.5 -15t19.5 -24
q7 -15 7 -43.5t-7 -41.5q-14 -24 -38 -24q-37 0 -47 48l-4 19h-29q-30 0 -38 -8q-22 -22 -34 -75q-10 -40 -14 -55q-9 -31 -10 -73.5t7 -52.5q3 -4 26 7q24 11 55 47q35 39 65 64q44 36 55 55q7 17 24 67q21 63 24 68q12 20 33.5 18t28.5 -24q4 -12 0 -34q-3 -17 -9 -43.5
t-15 -63t-14 -59.5q-5 -24 -10 -59q-2 -15 -5 -45q-2 -19 1 -20q4 -2 4 -19t-11 -27q-16 -14 -34.5 -8.5t-28.5 26.5t-6 86q2 32 -1 35q-2 2 -7 -5q-2 -4 -11 -20q-11 -20 -19 -34q-26 -45 -42 -65.5t-39 -35.5q-85 -57 -146 -1z" />
    <glyph glyph-name="Abreve" unicode="&#x102;" horiz-adv-x="557" 
d="M431 766q-30 -1 -50 8q-25 13 -39 42q-7 17 0 30.5t24 13.5q14 0 27 -16q12 -14 14 -15q6 -2 21 -2q17 0 25 3.5t18 17.5q15 20 28 26q15 5 28.5 -4.5t13.5 -25.5q0 -18 -25 -39q-17 -17 -53 -33q-11 -5 -32 -6zM167 -74q-18 -38 -60.5 -35.5t-59.5 42.5q-10 26 -5 56
q3 23 4 52q1 27 6 46.5t36 114.5l6 17l-12 12q-43 43 -28 80q7 17 22.5 23.5t33.5 0.5q12 -5 16 -5q2 0 11 27q10 33 35 73q12 17 28 44.5t16 30.5q0 1 8 13q7 10 28 48q54 101 98 144q24 24 36 28q19 8 39.5 3.5t32.5 -18.5q17 -19 31 -64q14 -39 16 -77q9 -112 -20 -238
q-10 -46 -11.5 -69t1.5 -101q3 -96 11 -115q7 -23 7 -33q1 -15 -10 -26t-26 -11q-16 0 -26 9t-14 18q-20 52 -24 156q0 44 -2 44l-2 -1l-5 -2.5t-6 -2.5q-18 -8 -104 -16q-54 -4 -56 -7q-2 -1 -15 -59q-15 -67 -17 -74q-4 -21 -3 -26q0 -17 -6 -54t-10 -48zM394 265
q1 0 9 52q2 12 5 32t5 31q5 28 -1 110.5t-15 106.5q-6 17 -9 17q-2 1 -14.5 -14t-27.5 -36.5t-27 -40.5q-58 -105 -72 -143q-8 -22 -14 -57t-2 -38q2 -2 55 -6t80 -5q10 0 20 -5z" />
    <glyph glyph-name="abreve" unicode="&#x103;" horiz-adv-x="493" 
d="M260 514q-30 -1 -50 8q-25 13 -39 42q-7 17 0 30.5t24 13.5q14 0 27 -16q12 -14 14 -15q6 -2 21 -2q17 0 25 3.5t18 17.5q15 20 28 26q15 5 28.5 -4.5t13.5 -25.5q0 -18 -25 -39q-17 -17 -53 -33q-11 -5 -32 -6zM49 30q-49 45 -49 157q0 42 4 62q6 30 25.5 76t36.5 69
q43 59 102 73q16 4 64 3t61 -5q12 -3 25.5 -15t19.5 -24q7 -15 7 -43.5t-7 -41.5q-14 -24 -38 -24q-37 0 -47 48l-4 19h-29q-30 0 -38 -8q-22 -22 -34 -75q-10 -40 -14 -55q-9 -31 -10 -73.5t7 -52.5q3 -4 26 7q24 11 55 47q35 39 65 64q44 36 55 55q7 17 24 67q21 63 24 68
q12 20 33.5 18t28.5 -24q4 -12 0 -34q-3 -17 -9 -43.5t-15 -63t-14 -59.5q-5 -24 -10 -59q-2 -15 -5 -45q-2 -19 1 -20q4 -2 4 -19t-11 -27q-16 -14 -34.5 -8.5t-28.5 26.5t-6 86q2 32 -1 35q-2 2 -7 -5q-2 -4 -11 -20q-11 -20 -19 -34q-26 -45 -42 -65.5t-39 -35.5
q-85 -57 -146 -1z" />
    <glyph glyph-name="Aogonek" unicode="&#x104;" horiz-adv-x="557" 
d="M489 -63q8 -1 10 -7q7 -16 -9 -31.5t-44 -21.5q-48 -10 -73 29q-14 21 -14 49q0 21 4 31q11 30 37 45q3 2 11 4q-14 62 -18 137q0 44 -2 44l-2 -1l-5 -2.5t-6 -2.5q-18 -8 -104 -16q-54 -4 -56 -7q-2 -1 -15 -59q-15 -67 -17 -74q-4 -21 -3 -26q0 -17 -6 -54t-10 -48
q-18 -38 -60.5 -35.5t-59.5 42.5q-10 26 -5 56q3 23 4 52q1 27 6 46.5t36 114.5l6 17l-12 12q-43 43 -28 80q7 17 22.5 23.5t33.5 0.5q12 -5 16 -5q2 0 11 27q10 33 35 73q12 17 28 44.5t16 30.5q0 1 8 13q7 10 28 48q54 101 98 144q24 24 36 28q19 8 39.5 3.5t32.5 -18.5
q17 -19 31 -64q14 -39 16 -77q9 -112 -20 -238q-10 -46 -11.5 -69t1.5 -101q3 -96 11 -115q7 -23 7 -33q1 -15 -10 -26t-26 -11h-9q-1 -3 -5 -9q-8 -12 -8 -22t1 -12q6 -8 36 -8q12 0 17 -1zM394 265q1 0 9 52q2 12 5 32t5 31q5 28 -1 110.5t-15 106.5q-6 17 -9 17
q-2 1 -14.5 -14t-27.5 -36.5t-27 -40.5q-58 -105 -72 -143q-8 -22 -14 -57t-2 -38q2 -2 55 -6t80 -5q10 0 20 -5z" />
    <glyph glyph-name="aogonek" unicode="&#x105;" horiz-adv-x="493" 
d="M394 163q-2 -15 -5 -45q-2 -19 1 -20q4 -2 4 -19q0 -16 -9 -25q1 -10 -11 -31q-8 -12 -8 -22t1 -12q6 -8 36 -8q12 0 17 -1q8 -1 10 -7q7 -16 -9 -31.5t-44 -21.5q-48 -10 -73 29q-14 21 -14 49q0 21 4 31q9 25 27 38q0 1 -1 3q-10 21 -6 86q2 32 -1 35q-2 2 -7 -5
q-2 -4 -11 -20q-11 -20 -19 -34q-26 -45 -42 -65.5t-39 -35.5q-85 -57 -146 -1q-49 45 -49 157q0 42 4 62q6 30 25.5 76t36.5 69q43 59 102 73q16 4 64 3t61 -5q12 -3 25.5 -15t19.5 -24q7 -15 7 -43.5t-7 -41.5q-14 -24 -38 -24q-37 0 -47 48l-4 19h-29q-30 0 -38 -8
q-22 -22 -34 -75q-10 -40 -14 -55q-9 -31 -10 -73.5t7 -52.5q3 -4 26 7q24 11 55 47q35 39 65 64q44 36 55 55q7 17 24 67q21 63 24 68q12 20 33.5 18t28.5 -24q4 -12 0 -34q-3 -17 -9 -43.5t-15 -63t-14 -59.5q-5 -24 -10 -59z" />
    <glyph glyph-name="Cacute" unicode="&#x106;" horiz-adv-x="578" 
d="M289 791q-9 13 0 29q1 2 2.5 6t3.5 10t4 10q19 46 29 61q7 9 20 13q12 4 27 -5q30 -18 13 -58q-9 -18 -40 -43q-23 -17 -26 -22q-8 -8 -17.5 -8t-15.5 7zM293 -34q-34 -4 -56 0t-52 20q-43 25 -90 63q-45 36 -67 114q-8 30 -8 109q0 64 3.5 92t15.5 67q18 51 56 118
q38 68 68 105q25 29 59.5 52.5t62.5 29.5q16 3 46 1t47 -8q78 -27 109 -58q51 -51 51 -118q0 -22 -10 -38q-12 -21 -33.5 -28t-42.5 4q-28 14 -34 55q-2 22 -6 31q-7 14 -54 36q-29 14 -42.5 14.5t-29.5 -11.5q-50 -41 -87 -120q-28 -60 -36 -96t-8 -102t6 -89
q10 -35 25 -58t54 -63l31 -32l25 -3q27 -5 44 1q40 10 58 26q12 12 43.5 56t36.5 56q11 26 29 26q23 0 23 -30q0 -14 -9.5 -32t-48.5 -78q-26 -37 -43.5 -54t-45.5 -30q-48 -23 -90 -28z" />
    <glyph glyph-name="cacute" unicode="&#x107;" horiz-adv-x="348" 
d="M123 571q-9 13 0 29q1 2 2.5 6t3.5 10t4 10q19 46 29 61q7 9 20 13q12 4 27 -5q30 -18 13 -58q-9 -18 -40 -43q-23 -17 -26 -22q-8 -8 -17.5 -8t-15.5 7zM155 37q-32 0 -53 9q-43 21 -65 69q-36 75 -36 189q0 130 61 192q24 25 65 34h56q35 0 43.5 -1t24.5 -8
q39 -19 57 -51q7 -13 9.5 -38.5t-1.5 -41.5q-6 -20 -26 -33.5t-40 -11.5q-45 6 -53 54q-4 18 -11 22.5t-32 4.5q-23 0 -33 -9q-9 -9 -28 -70q-6 -17 -7 -59q-3 -72 33 -128q19 -29 43 -34q43 -8 83 34q35 35 56 7q11 -14 3 -32t-37 -47q-27 -27 -52 -40q-18 -8 -25.5 -9.5
t-34.5 -1.5z" />
    <glyph glyph-name="Cdotaccent" unicode="&#x10a;" horiz-adv-x="578" 
d="M369 833q-15 -22 -38 -19t-28 28q-3 17 3 31q2 5 12 13t17 9q7 2 15 1q12 -1 16 -5q26 -23 3 -58zM293 -34q-34 -4 -56 0t-52 20q-43 25 -90 63q-45 36 -67 114q-8 30 -8 109q0 64 3.5 92t15.5 67q18 51 56 118q38 68 68 105q25 29 59.5 52.5t62.5 29.5q16 3 46 1t47 -8
q78 -27 109 -58q51 -51 51 -118q0 -22 -10 -38q-12 -21 -33.5 -28t-42.5 4q-28 14 -34 55q-2 22 -6 31q-7 14 -54 36q-29 14 -42.5 14.5t-29.5 -11.5q-50 -41 -87 -120q-28 -60 -36 -96t-8 -102t6 -89q10 -35 25 -58t54 -63l31 -32l25 -3q27 -5 44 1q40 10 58 26
q12 12 43.5 56t36.5 56q11 26 29 26q23 0 23 -30q0 -14 -9.5 -32t-48.5 -78q-26 -37 -43.5 -54t-45.5 -30q-48 -23 -90 -28z" />
    <glyph glyph-name="cdotaccent" unicode="&#x10b;" horiz-adv-x="348" 
d="M203 613q-15 -22 -38 -19t-28 28q-3 17 3 31q2 5 12 13t17 9q7 2 15 1q12 -1 16 -5q26 -23 3 -58zM155 37q-32 0 -53 9q-43 21 -65 69q-36 75 -36 189q0 130 61 192q24 25 65 34h56q35 0 43.5 -1t24.5 -8q39 -19 57 -51q7 -13 9.5 -38.5t-1.5 -41.5q-6 -20 -26 -33.5
t-40 -11.5q-45 6 -53 54q-4 18 -11 22.5t-32 4.5q-23 0 -33 -9q-9 -9 -28 -70q-6 -17 -7 -59q-3 -72 33 -128q19 -29 43 -34q43 -8 83 34q35 35 56 7q11 -14 3 -32t-37 -47q-27 -27 -52 -40q-18 -8 -25.5 -9.5t-34.5 -1.5z" />
    <glyph glyph-name="Ccaron" unicode="&#x10c;" horiz-adv-x="578" 
d="M317 772q-23 12 -44 63q-15 41 -9 51q6 12 21 10q11 0 29 -22l13 -18l4 -5l15 15q14 13 21 24q10 17 26 17q11 0 18 -7.5t7 -19.5q0 -8 -7 -20q-8 -12 -16 -28t-22 -36q-11 -16 -23 -23q-17 -9 -33 -1zM293 -34q-34 -4 -56 0t-52 20q-43 25 -90 63q-45 36 -67 114
q-8 30 -8 109q0 64 3.5 92t15.5 67q18 51 56 118q38 68 68 105q25 29 59.5 52.5t62.5 29.5q16 3 46 1t47 -8q78 -27 109 -58q51 -51 51 -118q0 -22 -10 -38q-12 -21 -33.5 -28t-42.5 4q-28 14 -34 55q-2 22 -6 31q-7 14 -54 36q-29 14 -42.5 14.5t-29.5 -11.5
q-50 -41 -87 -120q-28 -60 -36 -96t-8 -102t6 -89q10 -35 25 -58t54 -63l31 -32l25 -3q27 -5 44 1q40 10 58 26q12 12 43.5 56t36.5 56q11 26 29 26q23 0 23 -30q0 -14 -9.5 -32t-48.5 -78q-26 -37 -43.5 -54t-45.5 -30q-48 -23 -90 -28z" />
    <glyph glyph-name="ccaron" unicode="&#x10d;" horiz-adv-x="348" 
d="M151 552q-23 12 -44 63q-15 41 -9 51q6 12 21 10q11 0 29 -22l13 -18l4 -5l15 15q14 13 21 24q10 17 26 17q11 0 18 -7.5t7 -19.5q0 -8 -7 -20q-8 -12 -16 -28t-22 -36q-11 -16 -23 -23q-17 -9 -33 -1zM155 37q-32 0 -53 9q-43 21 -65 69q-36 75 -36 189q0 130 61 192
q24 25 65 34h56q35 0 43.5 -1t24.5 -8q39 -19 57 -51q7 -13 9.5 -38.5t-1.5 -41.5q-6 -20 -26 -33.5t-40 -11.5q-45 6 -53 54q-4 18 -11 22.5t-32 4.5q-23 0 -33 -9q-9 -9 -28 -70q-6 -17 -7 -59q-3 -72 33 -128q19 -29 43 -34q43 -8 83 34q35 35 56 7q11 -14 3 -32t-37 -47
q-27 -27 -52 -40q-18 -8 -25.5 -9.5t-34.5 -1.5z" />
    <glyph glyph-name="Dcaron" unicode="&#x10e;" horiz-adv-x="666" 
d="M197 754q-23 12 -44 63q-15 41 -9 51q6 12 21 10q11 0 29 -22l13 -18l4 -5l15 15q14 13 21 24q10 17 26 17q11 0 18 -7.5t7 -19.5q0 -8 -7 -20q-8 -12 -16 -28t-22 -36q-11 -16 -23 -23q-17 -9 -33 -1zM407 -25q-39 0 -99 21q-29 10 -50 25q-12 10 -31 13q-14 0 -30 7
q-12 5 -17 2q-29 -21 -55 -22q-62 -3 -81 54q-8 25 0 55t29 51q12 13 22 20q6 2 5 26q0 94 11 149q4 19 8 89q5 108 16 127q14 25 34 33q9 3 0 5l-5 1q-15 2 -36 -1q-39 -4 -58 17q-11 11 -11 27q0 29 21 41q11 6 45 12q12 2 70 0.5t67 -3.5q3 -1 11 -3t21 -5.5t22 -5.5
q44 -11 54 -16q40 -20 120 -94q39 -37 56.5 -62.5t25.5 -57.5q4 -15 13 -45q27 -83 34 -113t7 -65t-4.5 -54t-22.5 -56q-13 -28 -13 -30q0 -13 -27 -51q-13 -18 -44.5 -44t-54.5 -37q-22 -11 -53 -10zM397 84q19 0 29.5 5t23.5 21q34 44 52 139q18 94 5 145q-12 45 -18 59
t-20 30q-41 48 -141 118q-13 8 -44 15l-45 12q-27 6 -33 0q2 -4 6 -4q6 0 17 -10.5t16 -21.5q13 -30 12.5 -68t-16.5 -118q-10 -51 -16 -100q-10 -105 -16 -127q-1 -5 3 -8.5t12 -5.5q9 -2 27 -16q4 -2 11 -7t12.5 -8.5t9.5 -5.5q6 -3 27 -15q42 -29 86 -29z" />
    <glyph glyph-name="dcaron" unicode="&#x10f;" horiz-adv-x="478" 
d="M416 586q-17 8 -14 24q1 6 -3 29q-9 46 -4 67q4 14 11 21q9 9 27 9q15 0 25.5 -13t12.5 -32q1 -20 -14 -57l-13 -32q-9 -25 -28 -16zM180 8q-45 -7 -84 11.5t-61 56.5q-12 20 -15.5 40t-3.5 67q0 63 -3 93q-9 101 40 172q40 60 97 60q21 0 27 4q7 3 31 2.5t35 -4.5
q12 -5 15 -5q1 0 0.5 7.5t-2.5 19.5q-6 68 5 103q16 53 44 63q12 4 27 0q10 -3 19.5 -13.5t11.5 -21.5q3 -18 4 -21q2 -10 -1 -15q-3 -6 -4 -98t2 -132q7 -106 15 -173q7 -63 15 -88.5t26 -41.5l11 -10l9 6q8 6 17 6q9 -1 10 -13t-6.5 -30.5t-17.5 -28.5q-22 -24 -54 -16
q-52 15 -80 51q-3 4 -6.5 9t-5.5 8l-2 3q-3 2 -16 -9q-40 -36 -57.5 -47t-41.5 -15zM196 102l17 2q18 2 26 2q10 0 24 14l14 15l-3 55q-4 62 -4 109q0 74 -7 98q-2 4 -17 3q-28 -3 -46 22q-13 19 -19 10q-4 -6 -18 -66q-4 -17 -8 -77.5t-4 -98.5q0 -32 4 -43.5t23 -27.5z
" />
    <glyph glyph-name="Dcroat" unicode="&#x110;" horiz-adv-x="666" 
d="M585 435q27 -83 34 -113t7 -65t-4.5 -54t-22.5 -56q-13 -28 -13 -30q0 -13 -27 -51q-13 -18 -44.5 -44t-54.5 -37q-22 -11 -53 -10q-39 0 -99 21q-29 10 -50 25q-12 10 -31 13q-14 0 -30 7q-12 5 -17 2q-29 -21 -55 -22q-62 -3 -81 54q-8 25 0 55t29 51q12 13 22 20
q6 2 5 26q0 94 11 149q2 8 2 15h-3l-4 -1h-7.5t-11 0.5t-16.5 3.5t-21 7q-26 10 -33 26q-9 21 6 36q10 14 42 17q4 0 55 -2q4 96 15 114q14 25 34 33q9 3 0 5l-5 1q-15 2 -36 -1q-39 -4 -58 17q-11 11 -11 27q0 29 21 41q11 6 45 12q12 2 70 0.5t67 -3.5q3 -1 11 -3t21 -5.5
t22 -5.5q44 -11 54 -16q40 -20 120 -94q39 -37 56.5 -62.5t25.5 -57.5q4 -15 13 -45zM502 249q18 94 5 145q-12 45 -18 59t-20 30q-41 48 -141 118q-13 8 -44 15l-45 12q-27 6 -33 0q2 -4 6 -4q6 0 17 -10.5t16 -21.5q19 -42 7 -122q11 -2 17 -4q19 -7 25.5 -20.5t-1.5 -26
t-27 -17.5l-27 -6q-9 -57 -14 -90q-10 -105 -16 -127q-1 -5 3 -8.5t12 -5.5q9 -2 27 -16q4 -2 11 -7t12.5 -8.5t9.5 -5.5q6 -3 27 -15q42 -29 86 -29q19 0 29.5 5t23.5 21q34 44 52 139z" />
    <glyph glyph-name="dcroat" unicode="&#x111;" horiz-adv-x="478" 
d="M467 83q1 -12 -6.5 -30.5t-17.5 -28.5q-22 -24 -54 -16q-52 15 -80 51q-3 4 -6.5 9t-5.5 8l-2 3q-3 2 -16 -9q-40 -36 -57.5 -47t-41.5 -15q-45 -7 -84 11.5t-61 56.5q-12 20 -15.5 40t-3.5 67q0 63 -3 93q-9 101 40 172q40 60 97 60q21 0 27 4q7 3 31 2.5t35 -4.5
q12 -5 15 -5q1 0 0.5 7.5t-2.5 19.5q0 2 -0.5 5.5t-0.5 5.5h-15l-4 -1h-7.5t-11 0.5t-16.5 3.5t-21 7q-26 10 -33 26q-9 21 6 36q10 14 42 17q4 0 55 -2q6 0 9 -1q1 1 1 3t1 3q16 53 44 63q12 4 27 0q10 -3 19.5 -13.5t11.5 -21.5q3 -18 4 -21q2 -10 -1 -15q0 -1 -1 -3
q20 -1 34 -6q19 -7 25.5 -20.5t-1.5 -26t-27 -17.5q-16 -4 -34 -7q-2 -94 2 -150q7 -106 15 -173q7 -63 15 -88.5t26 -41.5l11 -10l9 6q8 6 17 6q9 -1 10 -13zM263 120l14 15l-3 55q-4 62 -4 109q0 74 -7 98q-2 4 -17 3q-28 -3 -46 22q-13 19 -19 10q-4 -6 -18 -66
q-4 -17 -8 -77.5t-4 -98.5q0 -32 4 -43.5t23 -27.5l18 -17l17 2q18 2 26 2q10 0 24 14z" />
    <glyph glyph-name="Emacron" unicode="&#x112;" horiz-adv-x="555" 
d="M328 769q-9 -2 -35 1q-40 6 -43 6q-33 2 -54 14q-16 10 -15 30q1 9 7 16q8 11 27 16q8 2 42 0.5t47 -3.5q27 -4 47 -15.5t22 -22.5q3 -15 -10 -27t-35 -15zM455 -28q-21 -9 -47 12q-17 13 -34 20q-13 5 -18.5 5.5t-24.5 -3.5q-53 -11 -85 -6q-30 5 -54 0q-52 -10 -82 1.5
t-30 41.5q0 12 3 21q13 39 19 123q1 9 8 51q7 33 5 37q-3 3 -11 3q-30 0 -48.5 21t-11.5 47q5 19 24 32t41 13q10 0 14 6q2 4 0 61.5t-5 66.5q-3 6 -18 9q-35 9 -52 41q-9 18 -8 39.5t11 36.5q25 36 91 45q22 3 79 2t90 -4q53 -6 101 -35l81 -44q37 -20 49.5 -32.5
t12.5 -30.5q0 -27 -25 -32q-38 -8 -136 31q-43 17 -115 12q-45 -3 -53 -6q-6 -5 -6 -17q0 -15 -7 -34q-6 -20 -6 -65l1 -45l15 -7q21 -10 47 -12.5t95 -3.5q88 0 99 -6q25 -13 32.5 -30.5t-6.5 -31.5q-17 -17 -44 -5q-13 7 -119 10q-106 4 -117 -1l-12 -4v-82q0 -107 4 -111
q6 -6 63 -8q48 -2 70.5 -6.5t46.5 -15.5q19 -9 52 -37t36 -38q8 -25 -15 -35z" />
    <glyph glyph-name="emacron" unicode="&#x113;" horiz-adv-x="421" 
d="M261 567q-9 -2 -35 1q-40 6 -43 6q-33 2 -54 14q-16 10 -15 30q1 9 7 16q8 11 27 16q8 2 42 0.5t47 -3.5q27 -4 47 -15.5t22 -22.5q3 -15 -10 -27t-35 -15zM210 42q-89 -12 -137 11q-41 19 -66 106q-7 25 -7 76q0 94 30 147q15 27 44 58q32 35 62 50q19 10 69 2.5
t82 -24.5q19 -10 42 -45.5t30 -65.5q8 -35 -5 -65q-9 -22 -45 -44.5t-70 -27.5q-70 -11 -103 -1q-14 4 -25.5 5.5t-18 -0.5t-6.5 -6q0 -16 1 -29l2 -22l14 -7q2 -1 13.5 -7.5t17.5 -9.5q15 -9 34 -9q20 0 42 -5q47 -10 62 5q8 8 20 25q23 33 39 30q8 -1 13.5 -8.5t3.5 -14.5
q0 -1 -1.5 -9.5t-2.5 -13.5q-8 -35 -51 -64q-33 -22 -46 -28t-37 -9zM258 304q25 11 28 24.5t-15 38.5q-15 21 -27 28q-5 3 -41 20q-30 14 -35 14q-16 0 -43.5 -36t-29.5 -59q-1 -8 0 -9.5t8 -0.5q24 2 58 -13q18 -8 50.5 -10.5t46.5 3.5z" />
    <glyph glyph-name="Edotaccent" unicode="&#x116;" horiz-adv-x="555" 
d="M307 793q-15 -22 -38 -19t-28 28q-3 17 3 31q2 5 12 13t17 9q7 2 15 1q12 -1 16 -5q26 -23 3 -58zM455 -28q-21 -9 -47 12q-17 13 -34 20q-13 5 -18.5 5.5t-24.5 -3.5q-53 -11 -85 -6q-30 5 -54 0q-52 -10 -82 1.5t-30 41.5q0 12 3 21q13 39 19 123q1 9 8 51q7 33 5 37
q-3 3 -11 3q-30 0 -48.5 21t-11.5 47q5 19 24 32t41 13q10 0 14 6q2 4 0 61.5t-5 66.5q-3 6 -18 9q-35 9 -52 41q-9 18 -8 39.5t11 36.5q25 36 91 45q22 3 79 2t90 -4q53 -6 101 -35l81 -44q37 -20 49.5 -32.5t12.5 -30.5q0 -27 -25 -32q-38 -8 -136 31q-43 17 -115 12
q-45 -3 -53 -6q-6 -5 -6 -17q0 -15 -7 -34q-6 -20 -6 -65l1 -45l15 -7q21 -10 47 -12.5t95 -3.5q88 0 99 -6q25 -13 32.5 -30.5t-6.5 -31.5q-17 -17 -44 -5q-13 7 -119 10q-106 4 -117 -1l-12 -4v-82q0 -107 4 -111q6 -6 63 -8q48 -2 70.5 -6.5t46.5 -15.5q19 -9 52 -37
t36 -38q8 -25 -15 -35z" />
    <glyph glyph-name="edotaccent" unicode="&#x117;" horiz-adv-x="421" 
d="M240 591q-15 -22 -38 -19t-28 28q-3 17 3 31q2 5 12 13t17 9q7 2 15 1q12 -1 16 -5q26 -23 3 -58zM210 42q-89 -12 -137 11q-41 19 -66 106q-7 25 -7 76q0 94 30 147q15 27 44 58q32 35 62 50q19 10 69 2.5t82 -24.5q19 -10 42 -45.5t30 -65.5q8 -35 -5 -65
q-9 -22 -45 -44.5t-70 -27.5q-70 -11 -103 -1q-14 4 -25.5 5.5t-18 -0.5t-6.5 -6q0 -16 1 -29l2 -22l14 -7q2 -1 13.5 -7.5t17.5 -9.5q15 -9 34 -9q20 0 42 -5q47 -10 62 5q8 8 20 25q23 33 39 30q8 -1 13.5 -8.5t3.5 -14.5q0 -1 -1.5 -9.5t-2.5 -13.5q-8 -35 -51 -64
q-33 -22 -46 -28t-37 -9zM258 304q25 11 28 24.5t-15 38.5q-15 21 -27 28q-5 3 -41 20q-30 14 -35 14q-16 0 -43.5 -36t-29.5 -59q-1 -8 0 -9.5t8 -0.5q24 2 58 -13q18 -8 50.5 -10.5t46.5 3.5z" />
    <glyph glyph-name="Eogonek" unicode="&#x118;" horiz-adv-x="555" 
d="M493 615q37 -20 49.5 -32.5t12.5 -30.5q0 -27 -25 -32q-38 -8 -136 31q-43 17 -115 12q-45 -3 -53 -6q-6 -5 -6 -17q0 -15 -7 -34q-6 -20 -6 -65l1 -45l15 -7q21 -10 47 -12.5t95 -3.5q88 0 99 -6q25 -13 32.5 -30.5t-6.5 -31.5q-17 -17 -44 -5q-13 7 -119 10
q-106 4 -117 -1l-12 -4v-82q0 -107 4 -111q6 -6 63 -8q48 -2 70.5 -6.5t46.5 -15.5q19 -9 52 -37t36 -38q8 -25 -15 -35l-5 -2q-1 -5 -9 -19q-8 -12 -8 -22t1 -12q6 -8 36 -8q12 0 17 -1q8 -1 10 -7q7 -16 -9 -31.5t-44 -21.5q-48 -10 -73 29q-14 21 -14 49q0 21 4 31
q9 25 28 39l-15 8q-13 5 -18.5 5.5t-24.5 -3.5q-53 -11 -85 -6q-30 5 -54 0q-52 -10 -82 1.5t-30 41.5q0 12 3 21q13 39 19 123q1 9 8 51q7 33 5 37q-3 3 -11 3q-30 0 -48.5 21t-11.5 47q5 19 24 32t41 13q10 0 14 6q2 4 0 61.5t-5 66.5q-3 6 -18 9q-35 9 -52 41
q-9 18 -8 39.5t11 36.5q25 36 91 45q22 3 79 2t90 -4q53 -6 101 -35z" />
    <glyph glyph-name="eogonek" unicode="&#x119;" horiz-adv-x="421" 
d="M379 21q7 -16 -9 -31.5t-44 -21.5q-48 -10 -73 29q-14 21 -14 49v2q-6 -2 -29 -6q-89 -12 -137 11q-41 19 -66 106q-7 25 -7 76q0 94 30 147q15 27 44 58q32 35 62 50q19 10 69 2.5t82 -24.5q19 -10 42 -45.5t30 -65.5q8 -35 -5 -65q-9 -22 -45 -44.5t-70 -27.5
q-70 -11 -103 -1q-14 4 -25.5 5.5t-18 -0.5t-6.5 -6q0 -16 1 -29l2 -22l14 -7q2 -1 13.5 -7.5t17.5 -9.5q15 -9 34 -9q20 0 42 -5q47 -10 62 5q8 8 20 25q23 33 39 30q8 -1 13.5 -8.5t3.5 -14.5q0 -1 -1.5 -9.5t-2.5 -13.5q-2 -11 -15 -31l5 -8q3 -10 -11 -33q-8 -12 -8 -22
t1 -12q6 -8 36 -8q12 0 17 -1q8 -1 10 -7zM95 334q-1 -8 0 -9.5t8 -0.5q24 2 58 -13q18 -8 50.5 -10.5t46.5 3.5q25 11 28 24.5t-15 38.5q-15 21 -27 28q-5 3 -41 20q-30 14 -35 14q-16 0 -43.5 -36t-29.5 -59z" />
    <glyph glyph-name="Ecaron" unicode="&#x11a;" horiz-adv-x="555" 
d="M255 732q-23 12 -44 63q-15 41 -9 51q6 12 21 10q11 0 29 -22l13 -18l4 -5l15 15q14 13 21 24q10 17 26 17q11 0 18 -7.5t7 -19.5q0 -8 -7 -20q-8 -12 -16 -28t-22 -36q-11 -16 -23 -23q-17 -9 -33 -1zM455 -28q-21 -9 -47 12q-17 13 -34 20q-13 5 -18.5 5.5t-24.5 -3.5
q-53 -11 -85 -6q-30 5 -54 0q-52 -10 -82 1.5t-30 41.5q0 12 3 21q13 39 19 123q1 9 8 51q7 33 5 37q-3 3 -11 3q-30 0 -48.5 21t-11.5 47q5 19 24 32t41 13q10 0 14 6q2 4 0 61.5t-5 66.5q-3 6 -18 9q-35 9 -52 41q-9 18 -8 39.5t11 36.5q25 36 91 45q22 3 79 2t90 -4
q53 -6 101 -35l81 -44q37 -20 49.5 -32.5t12.5 -30.5q0 -27 -25 -32q-38 -8 -136 31q-43 17 -115 12q-45 -3 -53 -6q-6 -5 -6 -17q0 -15 -7 -34q-6 -20 -6 -65l1 -45l15 -7q21 -10 47 -12.5t95 -3.5q88 0 99 -6q25 -13 32.5 -30.5t-6.5 -31.5q-17 -17 -44 -5q-13 7 -119 10
q-106 4 -117 -1l-12 -4v-82q0 -107 4 -111q6 -6 63 -8q48 -2 70.5 -6.5t46.5 -15.5q19 -9 52 -37t36 -38q8 -25 -15 -35z" />
    <glyph glyph-name="ecaron" unicode="&#x11b;" horiz-adv-x="421" 
d="M188 530q-23 12 -44 63q-15 41 -9 51q6 12 21 10q11 0 29 -22l13 -18l4 -5l15 15q14 13 21 24q10 17 26 17q11 0 18 -7.5t7 -19.5q0 -8 -7 -20q-8 -12 -16 -28t-22 -36q-11 -16 -23 -23q-17 -9 -33 -1zM210 42q-89 -12 -137 11q-41 19 -66 106q-7 25 -7 76q0 94 30 147
q15 27 44 58q32 35 62 50q19 10 69 2.5t82 -24.5q19 -10 42 -45.5t30 -65.5q8 -35 -5 -65q-9 -22 -45 -44.5t-70 -27.5q-70 -11 -103 -1q-14 4 -25.5 5.5t-18 -0.5t-6.5 -6q0 -16 1 -29l2 -22l14 -7q2 -1 13.5 -7.5t17.5 -9.5q15 -9 34 -9q20 0 42 -5q47 -10 62 5q8 8 20 25
q23 33 39 30q8 -1 13.5 -8.5t3.5 -14.5q0 -1 -1.5 -9.5t-2.5 -13.5q-8 -35 -51 -64q-33 -22 -46 -28t-37 -9zM258 304q25 11 28 24.5t-15 38.5q-15 21 -27 28q-5 3 -41 20q-30 14 -35 14q-16 0 -43.5 -36t-29.5 -59q-1 -8 0 -9.5t8 -0.5q24 2 58 -13q18 -8 50.5 -10.5
t46.5 3.5z" />
    <glyph glyph-name="Gbreve" unicode="&#x11e;" horiz-adv-x="529" 
d="M257 772q-30 -1 -50 8q-25 13 -39 42q-7 17 0 30.5t24 13.5q14 0 27 -16q12 -14 14 -15q6 -2 21 -2q17 0 25 3.5t18 17.5q15 20 28 26q15 5 28.5 -4.5t13.5 -25.5q0 -18 -25 -39q-17 -17 -53 -33q-11 -5 -32 -6zM147 -55q-69 0 -107 83q-15 32 -17.5 52t-2.5 101
q0 223 8 296t38 129q27 48 63 78q40 33 104 53q65 19 152 -50q41 -31 58 -59q27 -42 39 -100q15 -72 -15 -102q-20 -21 -47 -15t-40 33q-12 29 -4 65q3 33 3 36q0 37 -21 60q-25 25 -66 42q-15 7 -26.5 5.5t-33.5 -11.5q-21 -9 -37 -26q-16 -19 -23 -49q-14 -51 -19 -105
q-1 -10 -2 -23t-2 -19.5t-1 -7.5q-11 -42 -11 -153q0 -59 9 -99q16 -82 29.5 -101t62.5 -26q21 -3 30 -1t33 15q4 1 33 16q20 9 24.5 13t13.5 18q15 22 16 59l1 21l-21 -1q-18 -1 -32 -10q-21 -17 -45 -17q-43 0 -57 44t17 80q15 14 28 17q13 4 24.5 1.5t47.5 -13.5l29 -8
q5 -1 23 -10q13 -7 43 -8q22 0 28 -1.5t18 -9.5q17 -11 17 -20q0 -19 -20 -12q-21 6 -39 1q-5 -1 -5 -47q1 -39 -2.5 -52t-19.5 -36q-11 -16 -22 -25t-39 -26q-50 -31 -61.5 -36.5t-29.5 -7.5q-21 -1 -51 -12q-51 -19 -73 -19z" />
    <glyph glyph-name="gbreve" unicode="&#x11f;" horiz-adv-x="460" 
d="M222 564q-30 -1 -50 8q-25 13 -39 42q-7 17 0 30.5t24 13.5q14 0 27 -16q12 -14 14 -15q6 -2 21 -2q17 0 25 3.5t18 17.5q15 20 28 26q15 5 28.5 -4.5t13.5 -25.5q0 -18 -25 -39q-17 -17 -53 -33q-11 -5 -32 -6zM200 -190q-25 0 -45 10q-25 12 -34 27t-7 42q4 47 36 79
q3 3 30 36q29 35 41 41q20 10 20 24q0 5 7 16q5 8 8 10t10 1l11 -1l3 31q3 32 1 34q-1 1 -5 -5q-2 -5 -8 -19q-20 -49 -46 -67t-77 -18q-33 0 -45 6q-39 19 -50 77q-3 15 -19 62q-24 67 -18 116q5 42 26 83.5t46 60.5q26 20 70 32q12 3 34.5 3t34.5 -3q59 -15 61 -67
q0 -27 -23 -39q-18 -10 -38 0q-10 5 -22 5q-8 0 -21.5 -5.5t-17.5 -11.5q-4 -5 -19.5 -50.5t-17.5 -60.5q-2 -14 -2 -41q0 -23 4.5 -62t8.5 -43q3 -4 20.5 -3.5t27.5 5.5q11 6 18 14q6 9 37.5 72t35.5 75q1 4 5 15t5 14q14 41 16 77q2 33 4 44q1 3 2.5 9t1.5 7q2 8 9 15
q8 8 19 8q13 0 15 -2q1 -1 12 -9q12 -8 15.5 -20.5t6.5 -62.5q4 -59 3 -164.5t-6 -125.5q-7 -31 -8 -37q-20 -113 -70 -167l-30 -33q-10 -12 -31 -23q-22 -11 -45 -11zM178 -126q10 -10 39 1q24 9 37 33q17 34 17 114q0 46 -1 46q-4 0 -13.5 -14.5t-9.5 -21.5q0 -4 -12 -28
q-14 -28 -22 -48q-16 -39 -28 -54q-15 -20 -7 -28z" />
    <glyph glyph-name="Gdotaccent" unicode="&#x120;" horiz-adv-x="529" 
d="M294 817q-15 -22 -38 -19t-28 28q-3 17 3 31q2 5 12 13t17 9q7 2 15 1q12 -1 16 -5q26 -23 3 -58zM147 -55q-69 0 -107 83q-15 32 -17.5 52t-2.5 101q0 223 8 296t38 129q27 48 63 78q40 33 104 53q65 19 152 -50q41 -31 58 -59q27 -42 39 -100q15 -72 -15 -102
q-20 -21 -47 -15t-40 33q-12 29 -4 65q3 33 3 36q0 37 -21 60q-25 25 -66 42q-15 7 -26.5 5.5t-33.5 -11.5q-21 -9 -37 -26q-16 -19 -23 -49q-14 -51 -19 -105q-1 -10 -2 -23t-2 -19.5t-1 -7.5q-11 -42 -11 -153q0 -59 9 -99q16 -82 29.5 -101t62.5 -26q21 -3 30 -1t33 15
q4 1 33 16q20 9 24.5 13t13.5 18q15 22 16 59l1 21l-21 -1q-18 -1 -32 -10q-21 -17 -45 -17q-43 0 -57 44t17 80q15 14 28 17q13 4 24.5 1.5t47.5 -13.5l29 -8q5 -1 23 -10q13 -7 43 -8q22 0 28 -1.5t18 -9.5q17 -11 17 -20q0 -19 -20 -12q-21 6 -39 1q-5 -1 -5 -47
q1 -39 -2.5 -52t-19.5 -36q-11 -16 -22 -25t-39 -26q-50 -31 -61.5 -36.5t-29.5 -7.5q-21 -1 -51 -12q-51 -19 -73 -19z" />
    <glyph glyph-name="gdotaccent" unicode="&#x121;" horiz-adv-x="460" 
d="M259 609q-15 -22 -38 -19t-28 28q-3 17 3 31q2 5 12 13t17 9q7 2 15 1q12 -1 16 -5q26 -23 3 -58zM200 -190q-25 0 -45 10q-25 12 -34 27t-7 42q4 47 36 79q3 3 30 36q29 35 41 41q20 10 20 24q0 5 7 16q5 8 8 10t10 1l11 -1l3 31q3 32 1 34q-1 1 -5 -5q-2 -5 -8 -19
q-20 -49 -46 -67t-77 -18q-33 0 -45 6q-39 19 -50 77q-3 15 -19 62q-24 67 -18 116q5 42 26 83.5t46 60.5q26 20 70 32q12 3 34.5 3t34.5 -3q59 -15 61 -67q0 -27 -23 -39q-18 -10 -38 0q-10 5 -22 5q-8 0 -21.5 -5.5t-17.5 -11.5q-4 -5 -19.5 -50.5t-17.5 -60.5
q-2 -14 -2 -41q0 -23 4.5 -62t8.5 -43q3 -4 20.5 -3.5t27.5 5.5q11 6 18 14q6 9 37.5 72t35.5 75q1 4 5 15t5 14q14 41 16 77q2 33 4 44q1 3 2.5 9t1.5 7q2 8 9 15q8 8 19 8q13 0 15 -2q1 -1 12 -9q12 -8 15.5 -20.5t6.5 -62.5q4 -59 3 -164.5t-6 -125.5q-7 -31 -8 -37
q-20 -113 -70 -167l-30 -33q-10 -12 -31 -23q-22 -11 -45 -11zM178 -126q10 -10 39 1q24 9 37 33q17 34 17 114q0 46 -1 46q-4 0 -13.5 -14.5t-9.5 -21.5q0 -4 -12 -28q-14 -28 -22 -48q-16 -39 -28 -54q-15 -20 -7 -28z" />
    <glyph glyph-name="Gcommaaccent" unicode="&#x122;" horiz-adv-x="529" 
d="M147 -55q-69 0 -107 83q-15 32 -17.5 52t-2.5 101q0 223 8 296t38 129q27 48 63 78q40 33 104 53q65 19 152 -50q41 -31 58 -59q27 -42 39 -100q15 -72 -15 -102q-20 -21 -47 -15t-40 33q-12 29 -4 65q3 33 3 36q0 37 -21 60q-25 25 -66 42q-15 7 -26.5 5.5t-33.5 -11.5
q-21 -9 -37 -26q-16 -19 -23 -49q-14 -51 -19 -105q-1 -10 -2 -23t-2 -19.5t-1 -7.5q-11 -42 -11 -153q0 -59 9 -99q16 -82 29.5 -101t62.5 -26q21 -3 30 -1t33 15q4 1 33 16q20 9 24.5 13t13.5 18q15 22 16 59l1 21l-21 -1q-18 -1 -32 -10q-21 -17 -45 -17q-43 0 -57 44
t17 80q15 14 28 17q13 4 24.5 1.5t47.5 -13.5l29 -8q5 -1 23 -10q13 -7 43 -8q22 0 28 -1.5t18 -9.5q17 -11 17 -20q0 -19 -20 -12q-21 6 -39 1q-5 -1 -5 -47q1 -39 -2.5 -52t-19.5 -36q-11 -16 -22 -25t-39 -26q-50 -31 -61.5 -36.5t-29.5 -7.5q-21 -1 -51 -12
q-51 -19 -73 -19zM194 -264q0 5 0.5 23t0.5 29.5t-2 25t-6 20.5q-15 5 -22.5 16.5t-3.5 25.5q2 7 13.5 21.5t18.5 17.5q5 3 16 3t18 -3q17 -8 21 -33.5t-3 -46.5q-2 -6 -8.5 -40.5t-15.5 -51.5q-12 -23 -23 -17q-4 2 -4 10z" />
    <glyph glyph-name="gcommaaccent" unicode="&#x123;" horiz-adv-x="460" 
d="M387 371q4 -59 3 -164.5t-6 -125.5q-7 -31 -8 -37q-20 -113 -70 -167l-30 -33q-10 -12 -31 -23q-22 -11 -45 -11q-25 0 -45 10q-25 12 -34 27t-7 42q4 47 36 79q3 3 30 36q29 35 41 41q20 10 20 24q0 5 7 16q5 8 8 10t10 1l11 -1l3 31q3 32 1 34q-1 1 -5 -5q-2 -5 -8 -19
q-20 -49 -46 -67t-77 -18q-33 0 -45 6q-39 19 -50 77q-3 15 -19 62q-24 67 -18 116q5 42 26 83.5t46 60.5q26 20 70 32q12 3 37 3q-18 15 -35 84t-5 109q9 25 24 30q19 8 36 -4q26 -24 15 -112t-28 -107q23 -2 25 -3q59 -15 61 -67q0 -27 -23 -39q-18 -10 -38 0q-10 5 -22 5
q-8 0 -21.5 -5.5t-17.5 -11.5q-4 -5 -19.5 -50.5t-17.5 -60.5q-2 -14 -2 -41q0 -23 4.5 -62t8.5 -43q3 -4 20.5 -3.5t27.5 5.5q11 6 18 14q6 9 37.5 72t35.5 75q1 4 5 15t5 14q14 41 16 77q2 33 4 44q1 3 2.5 9t1.5 7q2 8 9 15q8 8 19 8q13 0 15 -2q1 -1 12 -9
q12 -8 15.5 -20.5t6.5 -62.5zM254 -92q17 34 17 114q0 46 -1 46q-4 0 -13.5 -14.5t-9.5 -21.5q0 -4 -12 -28q-14 -28 -22 -48q-16 -39 -28 -54q-15 -20 -7 -28q10 -10 39 1q24 9 37 33z" />
    <glyph glyph-name="Hbar" unicode="&#x126;" horiz-adv-x="543" 
d="M508 619q-23 -61 -25 -78q-3 -17 -9 -71q1 -8 -2 -18q-7 -59 -7 -60q-15 -132 -13 -231q1 -50 10.5 -110.5t20.5 -77.5q13 -21 3.5 -38.5t-30.5 -8.5q-13 5 -28 45q-24 70 -48 185q-22 111 -27 164q0 3 -5.5 3t-8.5 -3q-7 -7 -20 -12q-15 -9 -33 -18q-42 -26 -94 -31
l-30 -1l-1 -21q-9 -152 13 -212q20 -55 -10 -68q-22 -9 -39 16t-33 90q-15 64 -25 175q-7 80 -11 92q-11 30 -14.5 93.5t2.5 110.5q13 97 24 134.5t31 51.5q11 7 28.5 5.5t28.5 -10.5q23 -18 32 -62q5 -21 -1 -118l-1 -15q90 -2 116 -4q11 -1 30.5 -2.5t27.5 -1.5
q15 107 35 173q10 35 38 48t54 -6q24 -20 30 -59q2 -21 -9 -49zM345 380l5 43h-58q-89 0 -113 2l-1 -10q-4 -23 -3 -30t9 -10q13 -5 102 1z" />
    <glyph glyph-name="hbar" unicode="&#x127;" horiz-adv-x="427" 
d="M359 402q22 -111 10 -170q-13 -58 -14 -125q-3 -61 -16 -74q-18 -16 -41 -10t-35 30l-8 16v66q-1 67 3 107q5 50 -5 117q-4 16 -4 23q-2 5 -15 -8q-20 -16 -68 -109l-22 -40q-3 -3 -3 -33t-6 -62q-6 -54 -6 -64q0 -34 -1 -35q0 -1 -10 -7q-9 -6 -17 1q-1 1 -9.5 5.5
t-15.5 8.5t-16 14.5t-14 23.5q-27 66 -18 241q5 91 3 165v7q-17 2 -42 11q-26 10 -33 26q-9 21 6 36q10 14 42 17q5 1 28 -1q2 39 10.5 57t26.5 28q18 11 38 1q7 -4 16.5 -14t10.5 -15v-61q55 -2 74 -9t25.5 -20.5t-1.5 -26t-27 -17.5q-35 -8 -71 -10q-3 -180 5 -180
q1 0 6 8q8 25 21 51q21 45 31 63q11 20 14 31q10 45 58 45q42 0 68 -43q12 -19 22 -65z" />
    <glyph glyph-name="Imacron" unicode="&#x12a;" horiz-adv-x="383" 
d="M255 801q-9 -2 -35 1q-40 6 -43 6q-33 2 -54 14q-16 10 -15 30q1 9 7 16q8 11 27 16q8 2 42 0.5t47 -3.5q27 -4 47 -15.5t22 -22.5q3 -15 -10 -27t-35 -15zM264 -21q-77 0 -90 3q-24 6 -31 6q-46 0 -69 14q-9 5 -4 10q3 2 1 7.5t1.5 12.5t10.5 13.5t29 11t56 4.5
q6 0 26 2l-6 25q-16 69 -19.5 94.5t-5.5 99.5l-2 92l-34 146v96q-44 1 -58 9q-29 17 -29 42q0 48 79 56q8 1 17.5 2t15.5 2t7 1q79 0 111 -8q26 -6 31 -6q15 0 34.5 -9.5t31.5 -21.5t7 -18q-1 -1 -2.5 -6.5t-6 -10.5t-13.5 -11t-28.5 -10.5t-47.5 -5.5v-12q0 -29 3 -74
q3 -25 -2 -73q-14 -124 -4 -185q9 -48 -6 -122q-6 -24 -15 -89h13q74 -1 89 -9q29 -16 29 -42q0 -10 -2.5 -15.5t-10 -8t-14 -3.5t-23.5 -2t-29 -2q-8 -1 -17.5 -2t-15.5 -2t-7 -1z" />
    <glyph glyph-name="imacron" unicode="&#x12b;" horiz-adv-x="198" 
d="M138 562q-9 -2 -35 1q-40 6 -43 6q-33 2 -54 14q-16 10 -15 30q1 9 7 16q8 11 27 16q8 2 42 0.5t47 -3.5q27 -4 47 -15.5t22 -22.5q3 -15 -10 -27t-35 -15zM134 -19q-10 0 -29 11q-21 12 -26 12t-17.5 14.5t-17.5 27.5q-13 32 -16 184q-1 68 -9 110q-13 73 4 107
q13 26 41 35q22 7 44 -4q21 -11 32 -36q22 -51 9 -158q-5 -40 -10 -105q-6 -73 -6 -80q-2 -27 0 -36t10 -16q5 -4 12 0q12 6 23.5 2.5t16.5 -14.5q8 -17 -6 -29q-7 -7 -27.5 -16t-27.5 -9z" />
    <glyph glyph-name="Iogonek" unicode="&#x12e;" horiz-adv-x="383" 
d="M288 -18v-1l-1 -1q-8 -12 -8 -22t1 -12q6 -8 36 -8q12 0 17 -1q8 -1 10 -7q7 -16 -9 -31.5t-44 -21.5q-48 -10 -73 29q-14 21 -14 49q0 17 2 24q-21 0 -31 3q-24 6 -31 6q-46 0 -69 14q-9 5 -4 10q3 2 1 7.5t1.5 12.5t10.5 13.5t29 11t56 4.5q6 0 26 2l-6 25
q-16 69 -19.5 94.5t-5.5 99.5l-2 92l-34 146v96q-44 1 -58 9q-29 17 -29 42q0 48 79 56q8 1 17.5 2t15.5 2t7 1q79 0 111 -8q26 -6 31 -6q15 0 34.5 -9.5t31.5 -21.5t7 -18q-1 -1 -2.5 -6.5t-6 -10.5t-13.5 -11t-28.5 -10.5t-47.5 -5.5v-12q0 -29 3 -74q3 -25 -2 -73
q-14 -124 -4 -185q9 -48 -6 -122q-6 -24 -15 -89h13q74 -1 89 -9q29 -16 29 -42q0 -10 -2.5 -15.5t-10 -8t-14 -3.5t-23.5 -2t-29 -2q-2 0 -8 -1t-8 -1z" />
    <glyph glyph-name="iogonek" unicode="&#x12f;" horiz-adv-x="198" 
d="M119 576q-15 -22 -38 -19t-28 28q-3 17 3 31q2 5 12 13t17 9q7 2 15 1q12 -1 16 -5q26 -23 3 -58zM196 -97q7 -16 -9 -31.5t-44 -21.5q-48 -10 -73 29q-14 21 -14 49q0 21 4 31q9 25 30 41q-10 4 -11 4q-5 0 -17.5 14.5t-17.5 27.5q-13 32 -16 184q-1 68 -9 110
q-13 73 4 107q13 26 41 35q22 7 44 -4q21 -11 32 -36q22 -51 9 -158q-5 -40 -10 -105q-6 -73 -6 -80q-2 -27 0 -36t10 -16q5 -4 12 0q12 6 23.5 2.5t16.5 -14.5q8 -17 -6 -29q-13 -11 -38 -20q3 -10 -11 -33q-8 -12 -8 -22t1 -12q6 -8 36 -8q12 0 17 -1q8 -1 10 -7z" />
    <glyph glyph-name="Idotaccent" unicode="&#x130;" horiz-adv-x="383" 
d="M234 825q-15 -22 -38 -19t-28 28q-3 17 3 31q2 5 12 13t17 9q7 2 15 1q12 -1 16 -5q26 -23 3 -58zM264 -21q-77 0 -90 3q-24 6 -31 6q-46 0 -69 14q-9 5 -4 10q3 2 1 7.5t1.5 12.5t10.5 13.5t29 11t56 4.5q6 0 26 2l-6 25q-16 69 -19.5 94.5t-5.5 99.5l-2 92l-34 146v96
q-44 1 -58 9q-29 17 -29 42q0 48 79 56q8 1 17.5 2t15.5 2t7 1q79 0 111 -8q26 -6 31 -6q15 0 34.5 -9.5t31.5 -21.5t7 -18q-1 -1 -2.5 -6.5t-6 -10.5t-13.5 -11t-28.5 -10.5t-47.5 -5.5v-12q0 -29 3 -74q3 -25 -2 -73q-14 -124 -4 -185q9 -48 -6 -122q-6 -24 -15 -89h13
q74 -1 89 -9q29 -16 29 -42q0 -10 -2.5 -15.5t-10 -8t-14 -3.5t-23.5 -2t-29 -2q-8 -1 -17.5 -2t-15.5 -2t-7 -1z" />
    <glyph glyph-name="dotlessi" unicode="&#x131;" horiz-adv-x="198" 
d="M134 -19q-10 0 -29 11q-21 12 -26 12t-17.5 14.5t-17.5 27.5q-13 32 -16 184q-1 68 -9 110q-13 73 4 107q13 26 41 35q22 7 44 -4q21 -11 32 -36q22 -51 9 -158q-5 -40 -10 -105q-6 -73 -6 -80q-2 -27 0 -36t10 -16q5 -4 12 0q12 6 23.5 2.5t16.5 -14.5q8 -17 -6 -29
q-7 -7 -27.5 -16t-27.5 -9z" />
    <glyph glyph-name="Kcommaaccent" unicode="&#x136;" horiz-adv-x="496" 
d="M429 -22q-30 -16 -38 32q-4 30 -28 70q-17 30 -53 60l-44 37q-12 11 -34 24t-39.5 21t-18.5 5t-5 -53q-9 -120 -16 -150q-8 -39 -40 -33q-42 7 -33 155q4 57 5 60t5 32q2 35 -21 42q-23 8 -37.5 31t-10.5 45q4 36 51 64q5 3 0 54q-5 50 -3 69q3 27 3 68q0 51 6 67
q16 44 56 52q31 6 54 -12t32 -54q5 -20 0.5 -94t-12.5 -106q-2 -8 5 -8q6 0 26 7q44 15 71 35q43 36 80 108q40 79 55 101.5t27 22.5q7 0 16 -7q11 -8 8 -22.5t-24 -56.5l-12.5 -25t-11.5 -24l-6 -11q-39 -100 -154 -212q-30 -26 -30 -31q0 -3 19 -16q25 -16 58.5 -54.5
t52.5 -71.5q24 -45 42 -154q4 -22 8 -28q7 -10 4 -22t-13 -17zM186 -264q0 5 0.5 23t0.5 29.5t-2 25t-6 20.5q-15 5 -22.5 16.5t-3.5 25.5q2 7 13.5 21.5t18.5 17.5q5 3 16 3t18 -3q17 -8 21 -33.5t-3 -46.5q-2 -6 -8.5 -40.5t-15.5 -51.5q-12 -23 -23 -17q-4 2 -4 10z" />
    <glyph glyph-name="kcommaaccent" unicode="&#x137;" horiz-adv-x="404" 
d="M316 -54q-37 -17 -64.5 14t-35.5 97q-3 32 -14.5 50t-40.5 38q-27 17 -28 16q-4 -3 -9 -112q-1 -56 -8 -65q-10 -13 -27 -13t-27 13q-6 10 -6 53q-1 52 -11 102q-6 31 -15 40q-8 8 -22 12q-17 4 -24.5 19t0.5 30q7 12 34 19q8 1 7 8q-3 12 -5 73t-1 95q2 46 -2 133
q-7 144 19 179q14 17 31 20q28 7 44 -16q4 -7 6 -29.5t10 -149.5q1 -23 4 -142q0 -86 2 -88q3 -2 74 52q2 1 47 39q44 39 60 48.5t32 5.5q20 -5 26 -22.5t-5 -38.5q-6 -13 -42 -53t-51 -50q-30 -24 -103 -61q-21 -11 -30 -16.5t-8 -8.5q2 -4 7 -5q15 -2 51.5 -16t51.5 -23
q11 -7 32 -29t33 -40q11 -16 18 -36q2 -8 12 -31q18 -36 12 -67.5t-34 -43.5zM140 -264q0 5 0.5 23t0.5 29.5t-2 25t-6 20.5q-15 5 -22.5 16.5t-3.5 25.5q2 7 13.5 21.5t18.5 17.5q5 3 16 3t18 -3q17 -8 21 -33.5t-3 -46.5q-2 -6 -8.5 -40.5t-15.5 -51.5q-12 -23 -23 -17
q-4 2 -4 10z" />
    <glyph glyph-name="Lacute" unicode="&#x139;" horiz-adv-x="474" 
d="M117 761q-9 13 0 29q1 2 2.5 6t3.5 10t4 10q19 46 29 61q7 9 20 13q12 4 27 -5q30 -18 13 -58q-9 -18 -40 -43q-23 -17 -26 -22q-8 -8 -17.5 -8t-15.5 7zM171 1q-96 0 -122 38q-14 22 -6 47.5t33 36.5q13 6 13 10l6 46q8 74 -2 177q-4 32 -4 64q0 31 -4 81
q-19 188 34 203q24 7 48.5 -10t35.5 -48q13 -36 2 -167q-5 -45 -7 -99q-4 -49 -9 -67q-26 -93 -26 -156v-24l63 -2q80 -3 151 -18q15 -2 35 -12q20 -8 37 -12q25 -4 25 -23q0 -16 -14 -21.5t-48 -3.5q-45 4 -120 -20q-63 -21 -121 -20z" />
    <glyph glyph-name="lacute" unicode="&#x13a;" horiz-adv-x="216" 
d="M57 825q-9 13 0 29q1 2 2.5 6t3.5 10t4 10q19 46 29 61q7 9 20 13q12 4 27 -5q30 -18 13 -58q-9 -18 -40 -43q-23 -17 -26 -22q-8 -8 -17.5 -8t-15.5 7zM115 1q-21 0 -44 10q-27 11 -49 44q-5 7 -6 62q-2 57 -4.5 88t-5 34.5t-4.5 18t-2.5 40.5t0.5 101q0 10 0.5 62.5
t0.5 81.5q0 120 6 165t25 58q8 7 19 11q16 5 34.5 -2.5t28.5 -23.5q26 -47 11 -181q-6 -60 -6 -78q0 -9 -3 -42l-9 -62q-10 -58 -12 -67q-13 -71 -13.5 -141.5t12.5 -83.5q5 -5 13 -8q10 -4 23 3q24 12 39 -7q14 -18 -3 -50q-10 -21 -19.5 -27t-31.5 -6z" />
    <glyph glyph-name="Lcommaaccent" unicode="&#x13b;" horiz-adv-x="474" 
d="M171 1q-96 0 -122 38q-14 22 -6 47.5t33 36.5q13 6 13 10l6 46q8 74 -2 177q-4 32 -4 64q0 31 -4 81q-19 188 34 203q24 7 48.5 -10t35.5 -48q13 -36 2 -167q-5 -45 -7 -99q-4 -49 -9 -67q-26 -93 -26 -156v-24l63 -2q80 -3 151 -18q15 -2 35 -12q20 -8 37 -12
q25 -4 25 -23q0 -16 -14 -21.5t-48 -3.5q-45 4 -120 -20q-63 -21 -121 -20zM175 -264q0 5 0.5 23t0.5 29.5t-2 25t-6 20.5q-15 5 -22.5 16.5t-3.5 25.5q2 7 13.5 21.5t18.5 17.5q5 3 16 3t18 -3q17 -8 21 -33.5t-3 -46.5q-2 -6 -8.5 -40.5t-15.5 -51.5q-12 -23 -23 -17
q-4 2 -4 10z" />
    <glyph glyph-name="lcommaaccent" unicode="&#x13c;" horiz-adv-x="216" 
d="M115 1q-21 0 -44 10q-27 11 -49 44q-5 7 -6 62q-2 57 -4.5 88t-5 34.5t-4.5 18t-2.5 40.5t0.5 101q0 10 0.5 62.5t0.5 81.5q0 120 6 165t25 58q8 7 19 11q16 5 34.5 -2.5t28.5 -23.5q26 -47 11 -181q-6 -60 -6 -78q0 -9 -3 -42l-9 -62q-10 -58 -12 -67
q-13 -71 -13.5 -141.5t12.5 -83.5q5 -5 13 -8q10 -4 23 3q24 12 39 -7q14 -18 -3 -50q-10 -21 -19.5 -27t-31.5 -6zM46 -264q0 5 0.5 23t0.5 29.5t-2 25t-6 20.5q-15 5 -22.5 16.5t-3.5 25.5q2 7 13.5 21.5t18.5 17.5q5 3 16 3t18 -3q17 -8 21 -33.5t-3 -46.5
q-2 -6 -8.5 -40.5t-15.5 -51.5q-12 -23 -23 -17q-4 3 -4 10z" />
    <glyph glyph-name="Lcaron" unicode="&#x13d;" horiz-adv-x="474" 
d="M145 742q-23 12 -44 63q-15 41 -9 51q6 12 21 10q11 0 29 -22l13 -18l4 -5l15 15q14 13 21 24q10 17 26 17q11 0 18 -7.5t7 -19.5q0 -8 -7 -20q-8 -12 -16 -28t-22 -36q-11 -16 -23 -23q-17 -9 -33 -1zM171 1q-96 0 -122 38q-14 22 -6 47.5t33 36.5q13 6 13 10l6 46
q8 74 -2 177q-4 32 -4 64q0 31 -4 81q-19 188 34 203q24 7 48.5 -10t35.5 -48q13 -36 2 -167q-5 -45 -7 -99q-4 -49 -9 -67q-26 -93 -26 -156v-24l63 -2q80 -3 151 -18q15 -2 35 -12q20 -8 37 -12q25 -4 25 -23q0 -16 -14 -21.5t-48 -3.5q-45 4 -120 -20q-63 -21 -121 -20z
" />
    <glyph glyph-name="lcaron" unicode="&#x13e;" horiz-adv-x="216" 
d="M115 1q-21 0 -44 10q-27 11 -49 44q-5 7 -6 62q-2 57 -4.5 88t-5 34.5t-4.5 18t-2.5 40.5t0.5 101q0 10 0.5 62.5t0.5 81.5q0 120 6 165t25 58q8 7 19 11q16 5 34.5 -2.5t28.5 -23.5q26 -47 11 -181q-6 -60 -6 -78q0 -9 -3 -42l-9 -62q-10 -58 -12 -67
q-13 -71 -13.5 -141.5t12.5 -83.5q5 -5 13 -8q10 -4 23 3q24 12 39 -7q14 -18 -3 -50q-10 -21 -19.5 -27t-31.5 -6zM183 606q-17 8 -14 24q1 6 -3 29q-10 50 -4 67q4 14 11 21q9 9 27 9q15 0 25.5 -13t12.5 -32q1 -20 -14 -57l-13 -32q-9 -25 -28 -16z" />
    <glyph glyph-name="Lslash" unicode="&#x141;" horiz-adv-x="474" 
d="M449 89q25 -4 25 -23q0 -16 -14 -21.5t-48 -3.5q-45 4 -120 -20q-63 -21 -121 -20q-96 0 -122 38q-14 22 -6 47.5t33 36.5q13 6 13 10l6 46v4l-3 -3q-18 -14 -45 -2q-13 6 -18.5 23t-0.5 35q8 32 30 82q1 2 5.5 11.5t12 25.5t14.5 31q0 6 -0.5 17.5t-0.5 16.5q0 31 -4 81
q-19 188 34 203q24 7 48.5 -10t35.5 -48q3 -12 3 -18q5 3 21 3q37 0 34 -43q-1 -18 -23 -64q-20 -42 -33 -76l-4 -10l-3 -58q-4 -49 -9 -67q-26 -93 -26 -156v-24l63 -2q80 -3 151 -18q15 -2 35 -12q20 -8 37 -12z" />
    <glyph glyph-name="lslash" unicode="&#x142;" horiz-adv-x="216" 
d="M107 388q-10 -58 -12 -67q-13 -71 -13.5 -141.5t12.5 -83.5q5 -5 13 -8q10 -4 23 3q24 12 39 -7q14 -18 -3 -50q-10 -21 -19.5 -27t-31.5 -6q-21 0 -44 10q-27 11 -49 44q-5 7 -6 62q-1 54 -5 88q-18 -13 -44 -1q-13 6 -18.5 23t-0.5 35q8 32 30 82q11 22 22 46v9
q0 10 0.5 62.5t0.5 81.5q0 120 6 165t25 58q8 7 19 11q16 5 34.5 -2.5t28.5 -23.5q15 -28 15 -95q3 1 18 1q37 0 34 -43q-1 -18 -23 -64q-20 -42 -33 -76l-9 -24z" />
    <glyph glyph-name="Nacute" unicode="&#x143;" horiz-adv-x="460" 
d="M179 787q-9 13 0 29q1 2 2.5 6t3.5 10t4 10q19 46 29 61q7 9 20 13q12 4 27 -5q30 -18 13 -58q-9 -18 -40 -43q-23 -17 -26 -22q-8 -8 -17.5 -8t-15.5 7zM375 -39q-22 -1 -38 6.5t-26 25.5t-15.5 32t-13.5 42.5t-12 41.5q-7 19 -10 23q-16 37 -23 75q-1 10 -10 55
q-24 132 -48 187q-3 12 -3 14q0 5 -2 6t-4 -4l-2 -4q-2 -7 2 -58q4 -47 2 -134.5t-8 -126.5q-5 -50 -5 -82v-46l-9 -8q-11 -8 -19 -6q-17 3 -24.5 24.5t-8.5 70.5q0 48 -11 93q-2 10 -19 111q-4 25 -1 70q4 65 -7 114q-5 31 -8 62q-1 27 -7 62q-12 49 4.5 87.5t55.5 51.5
q45 16 79 -18q21 -23 21 -37q0 -4 10 -18q12 -19 23 -66q1 -4 6.5 -23.5t8.5 -30.5l16 -62q16 -72 16 -122q0 -11 3 -13q1 -1 1.5 22.5t-0.5 72.5q-2 91 3 145q8 58 18 97q3 10 5 25q5 28 31 28q13 0 22 -9q7 -8 7 -32q2 -27 5 -36q5 -11 6 -122q3 -111 8 -145
q9 -64 10 -192q0 -80 1 -97t7 -32q18 -50 1 -81q-23 -38 -38 -39z" />
    <glyph glyph-name="nacute" unicode="&#x144;" horiz-adv-x="510" 
d="M204 533q-9 13 0 29q1 2 2.5 6t3.5 10t4 10q19 46 29 61q7 9 20 13q12 4 27 -5q30 -18 13 -58q-9 -18 -40 -43q-23 -17 -26 -22q-8 -8 -17.5 -8t-15.5 7zM74 3q-20 0 -31 10q-22 22 -33 64q-4 22 -6 61q-1 46 7 105q15 104 25 143t27 59q21 24 48 23t46 -25
q10 -12 11 -41q0 -28 3 -28l29 25q28 25 44.5 35.5t45.5 22.5q34 14 50 22q16 9 33 16q44 19 81 -15t23 -82q-8 -29 -55 -94q-38 -51 -56 -104q-6 -16 -8 -51q-2 -29 -0.5 -42.5t11.5 -55.5q11 -47 -25 -47q-15 0 -25 8t-20 29q-25 52 -32 115q-6 62 2.5 104t34.5 88
q10 20 10 22q0 10 -50 -17l-5 -3q-33 -18 -74 -62q-45 -47 -45 -52q0 -2 -1.5 -9.5t-3.5 -20.5t-4 -25q-4 -38 -12 -71q-5 -29 -3 -43q7 -34 -13 -54q-9 -10 -29 -10z" />
    <glyph glyph-name="Ncommaaccent" unicode="&#x145;" horiz-adv-x="460" 
d="M375 -39q-22 -1 -38 6.5t-26 25.5t-15.5 32t-13.5 42.5t-12 41.5q-7 19 -10 23q-16 37 -23 75q-1 10 -10 55q-24 132 -48 187q-3 12 -3 14q0 5 -2 6t-4 -4l-2 -4q-2 -7 2 -58q4 -47 2 -134.5t-8 -126.5q-5 -50 -5 -82v-46l-9 -8q-11 -8 -19 -6q-17 3 -24.5 24.5
t-8.5 70.5q0 48 -11 93q-2 10 -19 111q-4 25 -1 70q4 65 -7 114q-5 31 -8 62q-1 27 -7 62q-12 49 4.5 87.5t55.5 51.5q45 16 79 -18q21 -23 21 -37q0 -4 10 -18q12 -19 23 -66q1 -4 6.5 -23.5t8.5 -30.5l16 -62q16 -72 16 -122q0 -11 3 -13q1 -1 1.5 22.5t-0.5 72.5
q-2 91 3 145q8 58 18 97q3 10 5 25q5 28 31 28q13 0 22 -9q7 -8 7 -32q2 -27 5 -36q5 -11 6 -122q3 -111 8 -145q9 -64 10 -192q0 -80 1 -97t7 -32q18 -50 1 -81q-23 -38 -38 -39zM168 -264q0 5 0.5 23t0.5 29.5t-2 25t-6 20.5q-15 5 -22.5 16.5t-3.5 25.5q2 7 13.5 21.5
t18.5 17.5q5 3 16 3t18 -3q17 -8 21 -33.5t-3 -46.5q-2 -6 -8.5 -40.5t-15.5 -51.5q-12 -23 -23 -17q-4 2 -4 10z" />
    <glyph glyph-name="ncommaaccent" unicode="&#x146;" horiz-adv-x="510" 
d="M74 3q-20 0 -31 10q-22 22 -33 64q-4 22 -6 61q-1 46 7 105q15 104 25 143t27 59q21 24 48 23t46 -25q10 -12 11 -41q0 -28 3 -28l29 25q28 25 44.5 35.5t45.5 22.5q34 14 50 22q16 9 33 16q44 19 81 -15t23 -82q-8 -29 -55 -94q-38 -51 -56 -104q-6 -16 -8 -51
q-2 -29 -0.5 -42.5t11.5 -55.5q11 -47 -25 -47q-15 0 -25 8t-20 29q-25 52 -32 115q-6 62 2.5 104t34.5 88q10 20 10 22q0 10 -50 -17l-5 -3q-33 -18 -74 -62q-45 -47 -45 -52q0 -2 -1.5 -9.5t-3.5 -20.5t-4 -25q-4 -38 -12 -71q-5 -29 -3 -43q7 -34 -13 -54q-9 -10 -29 -10
zM193 -264q0 5 0.5 23t0.5 29.5t-2 25t-6 20.5q-15 5 -22.5 16.5t-3.5 25.5q2 7 13.5 21.5t18.5 17.5q5 3 16 3t18 -3q17 -8 21 -33.5t-3 -46.5q-2 -6 -8.5 -40.5t-15.5 -51.5q-12 -23 -23 -17q-4 2 -4 10z" />
    <glyph glyph-name="Ncaron" unicode="&#x147;" horiz-adv-x="460" 
d="M207 768q-23 12 -44 63q-15 41 -9 51q6 12 21 10q11 0 29 -22l13 -18l4 -5l15 15q14 13 21 24q10 17 26 17q11 0 18 -7.5t7 -19.5q0 -8 -7 -20q-8 -12 -16 -28t-22 -36q-11 -16 -23 -23q-17 -9 -33 -1zM375 -39q-22 -1 -38 6.5t-26 25.5t-15.5 32t-13.5 42.5t-12 41.5
q-7 19 -10 23q-16 37 -23 75q-1 10 -10 55q-24 132 -48 187q-3 12 -3 14q0 5 -2 6t-4 -4l-2 -4q-2 -7 2 -58q4 -47 2 -134.5t-8 -126.5q-5 -50 -5 -82v-46l-9 -8q-11 -8 -19 -6q-17 3 -24.5 24.5t-8.5 70.5q0 48 -11 93q-2 10 -19 111q-4 25 -1 70q4 65 -7 114q-5 31 -8 62
q-1 27 -7 62q-12 49 4.5 87.5t55.5 51.5q45 16 79 -18q21 -23 21 -37q0 -4 10 -18q12 -19 23 -66q1 -4 6.5 -23.5t8.5 -30.5l16 -62q16 -72 16 -122q0 -11 3 -13q1 -1 1.5 22.5t-0.5 72.5q-2 91 3 145q8 58 18 97q3 10 5 25q5 28 31 28q13 0 22 -9q7 -8 7 -32q2 -27 5 -36
q5 -11 6 -122q3 -111 8 -145q9 -64 10 -192q0 -80 1 -97t7 -32q18 -50 1 -81q-23 -38 -38 -39z" />
    <glyph glyph-name="ncaron" unicode="&#x148;" horiz-adv-x="510" 
d="M232 514q-23 12 -44 63q-15 41 -9 51q6 12 21 10q11 0 29 -22l13 -18l4 -5l15 15q14 13 21 24q10 17 26 17q11 0 18 -7.5t7 -19.5q0 -8 -7 -20q-8 -12 -16 -28t-22 -36q-11 -16 -23 -23q-17 -9 -33 -1zM74 3q-20 0 -31 10q-22 22 -33 64q-4 22 -6 61q-1 46 7 105
q15 104 25 143t27 59q21 24 48 23t46 -25q10 -12 11 -41q0 -28 3 -28l29 25q28 25 44.5 35.5t45.5 22.5q34 14 50 22q16 9 33 16q44 19 81 -15t23 -82q-8 -29 -55 -94q-38 -51 -56 -104q-6 -16 -8 -51q-2 -29 -0.5 -42.5t11.5 -55.5q11 -47 -25 -47q-15 0 -25 8t-20 29
q-25 52 -32 115q-6 62 2.5 104t34.5 88q10 20 10 22q0 10 -50 -17l-5 -3q-33 -18 -74 -62q-45 -47 -45 -52q0 -2 -1.5 -9.5t-3.5 -20.5t-4 -25q-4 -38 -12 -71q-5 -29 -3 -43q7 -34 -13 -54q-9 -10 -29 -10z" />
    <glyph glyph-name="Eng" unicode="&#x14a;" horiz-adv-x="545" 
d="M273 -118q-19 -2 -30 5q-11 9 -17 19q-5 10 -27 35q-21 21 -23 29q-4 16 5 29t26 13q24 0 43 -33q13 -25 16 -27t17 7q18 11 24.5 24t8.5 44q2 17 1 21t-5 5q-1 1 -4 2.5t-6.5 4t-6.5 4.5q-11 7 -29 42q-16 33 -20 51l-13 54q-3 11 -8 30.5t-6 23.5l-14 49q-10 27 -18 66
q-4 25 -9 41q-2 4 -3 -54t0.5 -128t3.5 -96q4 -47 -2 -67.5t-27 -31.5q-9 -5 -24 -4t-25 7q-16 9 -24 25.5t-21 64.5l-11 37l-2 220q-3 182 -3 249q-1 27 7 42q10 16 22 23t35 8q22 1 37 4q24 4 41 -24q3 -5 13.5 -19t14.5 -20q27 -37 45 -89q10 -25 24 -65q16 -41 22 -65
q9 -28 10 -28q2 0 2 68q0 70 5 103q5 37 9 77q5 44 15.5 62.5t37.5 26.5q22 7 44.5 -6.5t30.5 -38.5q10 -32 0 -112q-4 -31 -3 -110q3 -100 -4 -234t-19 -212q-15 -105 -71 -132q-32 -16 -85 -20z" />
    <glyph glyph-name="eng" unicode="&#x14b;" horiz-adv-x="451" 
d="M244 -130q-64 -14 -99 13q-22 20 -21.5 44.5t22 39t48.5 1.5q12 -6 17 -11q11 -9 23 -3t23.5 25.5t15.5 44.5q8 43 -13 100q-15 41 -18.5 64t-0.5 52q3 24 12 54q11 41 0 38q-6 -2 -49.5 -34.5t-53.5 -42.5q-11 -11 -17 -38q-6 -29 -7 -79t4 -66q8 -23 -7 -47
q-11 -19 -39 -23t-48 10q-16 11 -22 27t-11 59q-8 78 0 159q2 20 8 108q4 50 12.5 74t27.5 31t39 -2q24 -11 37 -62q7 -29 9 -29q4 -4 78 64q34 31 61 31q39 0 84 -57q29 -37 34.5 -64t-3.5 -102q-4 -32 -2 -74q3 -67 -20 -123q-10 -25 -16 -47q-11 -41 -21 -62
q-18 -37 -34.5 -51.5t-52.5 -21.5z" />
    <glyph glyph-name="Omacron" unicode="&#x14c;" horiz-adv-x="548" 
d="M343 777q-9 -2 -35 1q-40 6 -43 6q-33 2 -54 14q-16 10 -15 30q1 9 7 16q8 11 27 16q8 2 42 0.5t47 -3.5q27 -4 47 -15.5t22 -22.5q3 -15 -10 -27t-35 -15zM250 -46q-61 0 -100 42q-34 35 -61 102q-32 79 -42 132q-7 34 -7 124q0 126 14 182q15 62 43 97q62 77 106 28
q18 -19 18 -53q0 -21 -14 -56q-36 -90 -37 -264q-1 -71 1.5 -96.5t13.5 -51.5q22 -54 77 -42q21 4 32 19q26 34 56.5 85.5t45.5 86.5q2 5 29 100q10 34 6 112q-3 73 -23 92q-24 22 -55 29t-54 -5q-22 -11 -36 -3q-25 15 -9 58q15 43 55 58q9 3 33 1t40 -7q16 -4 40 -19.5
t38 -29.5q25 -25 39 -81l9 -36l-1 -126q-1 -131 -5 -155q-7 -56 -8 -62q-5 -33 -13 -56q-19 -53 -67 -101q-63 -63 -74 -69l-28 -16q-34 -19 -62 -19z" />
    <glyph glyph-name="omacron" unicode="&#x14d;" horiz-adv-x="407" 
d="M237 567q-9 -2 -35 1q-40 6 -43 6q-33 2 -54 14q-16 10 -15 30q1 9 7 16q8 11 27 16q8 2 42 0.5t47 -3.5q27 -4 47 -15.5t22 -22.5q3 -15 -10 -27t-35 -15zM113 29l-27 16q-62 37 -78.5 110t6.5 196q10 58 19.5 81.5t28.5 38.5q22 19 48 16t39 -27q16 -29 -2 -73
q-5 -12 -10 -39t-10 -58t-6 -38q-5 -23 -0.5 -65.5t16.5 -70.5q5 -13 21 -19t29 1q14 8 48 48.5t47 65.5q11 23 19.5 106.5t0.5 95.5q-6 11 -34.5 19t-62.5 -2q-16 -7 -25.5 4t-9.5 26q0 11 10 20q5 4 13.5 3t21.5 4q52 24 106 -22q19 -17 23 -27.5t4 -44.5
q0 -27 -7.5 -101.5t-10.5 -89.5q-1 -3 -22 -48q-25 -51 -45 -77t-46 -40q-12 -7 -20.5 -8t-40.5 -1h-43z" />
    <glyph glyph-name="Ohungarumlaut" unicode="&#x150;" horiz-adv-x="548" 
d="M204 759q-9 13 0 29q1 2 2.5 6t3.5 10t4 10q19 46 29 61q7 9 20 13q12 4 27 -5q7 -4 8 -10.5t-6 -22t-18.5 -34t-36.5 -56.5q-7 -10 -17 -9.5t-16 8.5zM291 759q-9 13 0 29q1 2 2.5 6t3.5 10t4 10q19 46 29 61q7 9 20 13q12 4 27 -5q10 -10 4 -24.5t-38 -67.5
q-6 -9 -10 -16t-9 -15q-7 -10 -17 -9.5t-16 8.5zM250 -46q-61 0 -100 42q-34 35 -61 102q-32 79 -42 132q-7 34 -7 124q0 126 14 182q15 62 43 97q62 77 106 28q18 -19 18 -53q0 -21 -14 -56q-36 -90 -37 -264q-1 -71 1.5 -96.5t13.5 -51.5q22 -54 77 -42q21 4 32 19
q26 34 56.5 85.5t45.5 86.5q2 5 29 100q10 34 6 112q-3 73 -23 92q-24 22 -55 29t-54 -5q-22 -11 -36 -3q-25 15 -9 58q15 43 55 58q9 3 33 1t40 -7q16 -4 40 -19.5t38 -29.5q25 -25 39 -81l9 -36l-1 -126q-1 -131 -5 -155q-7 -56 -8 -62q-5 -33 -13 -56q-19 -53 -67 -101
q-63 -63 -74 -69l-28 -16q-34 -19 -62 -19z" />
    <glyph glyph-name="ohungarumlaut" unicode="&#x151;" horiz-adv-x="407" 
d="M98 549q-9 13 0 29q1 2 2.5 6t3.5 10t4 10q19 46 29 61q7 9 20 13q12 4 27 -5q7 -4 8 -10.5t-6 -22t-18.5 -34t-36.5 -56.5q-7 -10 -17 -9.5t-16 8.5zM185 549q-9 13 0 29q1 2 2.5 6t3.5 10t4 10q19 46 29 61q7 9 20 13q12 4 27 -5q10 -10 4 -24.5t-38 -67.5
q-6 -9 -10 -16t-9 -15q-7 -10 -17 -9.5t-16 8.5zM113 29l-27 16q-62 37 -78.5 110t6.5 196q10 58 19.5 81.5t28.5 38.5q22 19 48 16t39 -27q16 -29 -2 -73q-5 -12 -10 -39t-10 -58t-6 -38q-5 -23 -0.5 -65.5t16.5 -70.5q5 -13 21 -19t29 1q14 8 48 48.5t47 65.5
q11 23 19.5 106.5t0.5 95.5q-6 11 -34.5 19t-62.5 -2q-16 -7 -25.5 4t-9.5 26q0 11 10 20q5 4 13.5 3t21.5 4q52 24 106 -22q19 -17 23 -27.5t4 -44.5q0 -27 -7.5 -101.5t-10.5 -89.5q-1 -3 -22 -48q-25 -51 -45 -77t-46 -40q-12 -7 -20.5 -8t-40.5 -1h-43z" />
    <glyph glyph-name="OE" unicode="&#x152;" horiz-adv-x="880" 
d="M281 -56q-42 -3 -87 19t-87.5 67.5t-56.5 84.5q-8 23 -9.5 49t1.5 112q3 85 7.5 117.5t21.5 83.5q24 71 49.5 113.5t71.5 91.5q60 63 112 77q15 4 47 4q31 -1 45 -10q14 -8 24 -22q9 -14 9 -36q0 -23 -5 -28q-4 -5 -2 -9.5t8 -2.5q12 3 21 34q11 36 31 55q35 32 77 10
q13 -7 19 -7.5t25 1.5q23 3 81 3t77 -3q50 -9 66 -43q10 -21 4.5 -44.5t-23.5 -37.5q-24 -17 -106 -22q-41 -1 -93 -7q-32 -5 -55 -5q-19 0 -25 -4q-2 -4 2 -34q4 -38 6 -81q2 -49 4 -53q6 -6 97 -11q41 -2 66 5q64 19 100 -1q38 -19 36 -58t-42 -55q-17 -8 -53 -13
q-31 -6 -49.5 -5t-58.5 12q-88 23 -91 20q-1 -1 -2 -59t-1 -108t1 -58q2 -2 26 2q16 4 70 8q45 2 76 12q38 12 50.5 14t26.5 -1q28 -7 37.5 -33.5t-10.5 -45.5q-14 -12 -96 -37q-21 -7 -74 -11q-41 -2 -88 -6q-38 -4 -55 -15q-23 -16 -47.5 -13t-40.5 23q-8 12 -8 14
q0 10 -41 -17q-33 -22 -48.5 -28.5t-40.5 -7.5zM332 85q16 3 24 8q8 7 29.5 56t37.5 100q5 16 6 117q2 100 -0.5 120.5t-18.5 38.5q-43 45 -33 93q2 10 0 11t-13 -4q-19 -7 -48 -44t-51 -81q-26 -51 -38 -121q-3 -19 -3 -113l1 -92l14 -20q38 -56 62 -67q13 -7 31 -2z" />
    <glyph glyph-name="oe" unicode="&#x153;" horiz-adv-x="619" 
d="M177 39q-65 0 -109 63q-19 28 -29 41q-30 39 -37 74q-8 57 1 107q8 52 38 98q16 25 55 58.5t62 42.5q25 12 45 4q2 -1 10 -3.5t12 -3.5q40 -10 40 -41q0 -13 -8 -22l-7 -8h7q8 0 20 12q19 19 49.5 35t47.5 16q16 1 58.5 -2.5t55.5 -7.5q53 -13 67 -65q7 -26 3.5 -73
t-12.5 -64q-29 -52 -134 -62l-25 -2l-1 -19q-1 -13 0.5 -17t9.5 -13q12 -12 30 -25q18 -12 34 -15.5t52 -3.5h33l3 -8q3 -10 0.5 -27t-9.5 -26q-17 -22 -68 -25q-50 -2 -87 15q-54 28 -72 48q-9 9 -10 9t-14 -22q-37 -68 -111 -68zM201 158q7 6 18 28.5t14 34.5q5 22 6 26
q1 5 8 47l7 35l-9 12q-25 31 -25 61q0 12 10 28q7 11 5 12.5t-16 -4.5q-12 -4 -31 -26q-31 -38 -42.5 -62t-13.5 -59q-2 -30 -0.5 -42t11.5 -28q7 -10 23 -38q15 -25 21 -29t14 4zM406 338q16 3 32 7q18 6 23 18q4 13 5.5 34t-2.5 24q-5 3 -21.5 3.5t-24.5 -2.5
q-11 -5 -14 -12q-4 -10 -8 -32.5t-3 -30.5q0 -5 0.5 -6.5t3.5 -2.5t9 0z" />
    <glyph glyph-name="Racute" unicode="&#x154;" horiz-adv-x="501" 
d="M200 789q-9 13 0 29q1 2 2.5 6t3.5 10t4 10q19 46 29 61q7 9 20 13q12 4 27 -5q30 -18 13 -58q-9 -18 -40 -43q-23 -17 -26 -22q-8 -8 -17.5 -8t-15.5 7zM338 -30q-64 1 -95 83q-15 37 -21 73q-1 7 -25 44.5t-38 53.5q-6 7 -7 -7q-2 -21 5 -137q2 -41 0.5 -56.5
t-10.5 -25.5q-14 -19 -39 -12q-24 6 -30 46q-9 45 0 114q3 48 3 75q1 46 -10 85q-15 65 -22 168l-7 85q-5 46 2 88t23 60q17 20 43.5 20.5t44.5 -19.5q7 -7 14 -24t7 -26q0 -18 15 -1q51 61 106 77q37 10 71 -6q15 -6 38 -27.5t32 -36.5q31 -49 21 -119q-7 -48 -27 -99
t-43 -77q-16 -17 -61.5 -51t-64.5 -43q-20 -9 -20 -12t25 -39q23 -36 41 -45q27 -13 63 -61q28 -37 34.5 -55.5t-0.5 -40.5q-15 -52 -68 -52zM185 382q1 -5 28.5 18t58.5 53.5t41 44.5q37 57 15 96q-12 18 -14 19q-14 11 -38 3q-13 -5 -42.5 -24t-43.5 -32l-12 -12l3 -37
q3 -30 3 -82q1 -24 1 -47z" />
    <glyph glyph-name="racute" unicode="&#x155;" horiz-adv-x="386" 
d="M111 583q-9 13 0 29q1 2 2.5 6t3.5 10t4 10q19 46 29 61q7 9 20 13q12 4 27 -5q30 -18 13 -58q-9 -18 -40 -43q-23 -17 -26 -22q-8 -8 -17.5 -8t-15.5 7zM91 61q-51 0 -55 98q0 -3 -7 73.5l-14 153t-7 74.5q-12 47 11 66q14 12 30 12q25 0 37.5 -16.5t19.5 -56.5
q2 -12 4 -22.5t4 -18t3.5 -12.5t2.5 -7t2 -2q4 2 11 30q11 42 32 75q25 40 50 48q31 11 56 -6q11 -8 31 -7q21 1 31 -5q8 -5 15.5 -18.5t7.5 -23.5q0 -16 -17 -38t-36 -30q-38 -17 -68 13l-8 8l-33 -21l-14 -43q-17 -51 -24 -65q-11 -23 -12 -67q-3 -117 -4 -132t-8 -30
q-14 -30 -41 -30z" />
    <glyph glyph-name="Rcommaaccent" unicode="&#x156;" horiz-adv-x="501" 
d="M338 -30q-64 1 -95 83q-15 37 -21 73q-1 7 -25 44.5t-38 53.5q-6 7 -7 -7q-2 -21 5 -137q2 -41 0.5 -56.5t-10.5 -25.5q-14 -19 -39 -12q-24 6 -30 46q-9 45 0 114q3 48 3 75q1 46 -10 85q-15 65 -22 168l-7 85q-5 46 2 88t23 60q17 20 43.5 20.5t44.5 -19.5q7 -7 14 -24
t7 -26q0 -18 15 -1q51 61 106 77q37 10 71 -6q15 -6 38 -27.5t32 -36.5q31 -49 21 -119q-7 -48 -27 -99t-43 -77q-16 -17 -61.5 -51t-64.5 -43q-20 -9 -20 -12t25 -39q23 -36 41 -45q27 -13 63 -61q28 -37 34.5 -55.5t-0.5 -40.5q-15 -52 -68 -52zM185 382q1 -5 28.5 18
t58.5 53.5t41 44.5q37 57 15 96q-12 18 -14 19q-14 11 -38 3q-13 -5 -42.5 -24t-43.5 -32l-12 -12l3 -37q3 -30 3 -82q1 -24 1 -47zM189 -264q0 5 0.5 23t0.5 29.5t-2 25t-6 20.5q-15 5 -22.5 16.5t-3.5 25.5q2 7 13.5 21.5t18.5 17.5q5 3 16 3t18 -3q17 -8 21 -33.5
t-3 -46.5q-2 -6 -8.5 -40.5t-15.5 -51.5q-12 -23 -23 -17q-4 2 -4 10z" />
    <glyph glyph-name="rcommaaccent" unicode="&#x157;" horiz-adv-x="386" 
d="M91 61q-51 0 -55 98q0 -3 -7 73.5l-14 153t-7 74.5q-12 47 11 66q14 12 30 12q25 0 37.5 -16.5t19.5 -56.5q2 -12 4 -22.5t4 -18t3.5 -12.5t2.5 -7t2 -2q4 2 11 30q11 42 32 75q25 40 50 48q31 11 56 -6q11 -8 31 -7q21 1 31 -5q8 -5 15.5 -18.5t7.5 -23.5q0 -16 -17 -38
t-36 -30q-38 -17 -68 13l-8 8l-33 -21l-14 -43q-17 -51 -24 -65q-11 -23 -12 -67q-3 -117 -4 -132t-8 -30q-14 -30 -41 -30zM131 -153q0 5 0.5 23t0.5 29.5t-2 25t-6 20.5q-15 5 -22.5 16.5t-3.5 25.5q2 7 13.5 21.5t18.5 17.5q15 8 34 0q17 -8 21 -33.5t-3 -46.5
q-2 -6 -8.5 -40.5t-15.5 -51.5q-12 -23 -23 -17q-4 2 -4 10z" />
    <glyph glyph-name="Rcaron" unicode="&#x158;" horiz-adv-x="501" 
d="M228 770q-23 12 -44 63q-15 41 -9 51q6 12 21 10q11 0 29 -22l13 -18l4 -5l15 15q14 13 21 24q10 17 26 17q11 0 18 -7.5t7 -19.5q0 -8 -7 -20q-8 -12 -16 -28t-22 -36q-11 -16 -23 -23q-17 -9 -33 -1zM338 -30q-64 1 -95 83q-15 37 -21 73q-1 7 -25 44.5t-38 53.5
q-6 7 -7 -7q-2 -21 5 -137q2 -41 0.5 -56.5t-10.5 -25.5q-14 -19 -39 -12q-24 6 -30 46q-9 45 0 114q3 48 3 75q1 46 -10 85q-15 65 -22 168l-7 85q-5 46 2 88t23 60q17 20 43.5 20.5t44.5 -19.5q7 -7 14 -24t7 -26q0 -18 15 -1q51 61 106 77q37 10 71 -6q15 -6 38 -27.5
t32 -36.5q31 -49 21 -119q-7 -48 -27 -99t-43 -77q-16 -17 -61.5 -51t-64.5 -43q-20 -9 -20 -12t25 -39q23 -36 41 -45q27 -13 63 -61q28 -37 34.5 -55.5t-0.5 -40.5q-15 -52 -68 -52zM185 382q1 -5 28.5 18t58.5 53.5t41 44.5q37 57 15 96q-12 18 -14 19q-14 11 -38 3
q-13 -5 -42.5 -24t-43.5 -32l-12 -12l3 -37q3 -30 3 -82q1 -24 1 -47z" />
    <glyph glyph-name="rcaron" unicode="&#x159;" horiz-adv-x="386" 
d="M139 564q-23 12 -44 63q-15 41 -9 51q6 12 21 10q11 0 29 -22l13 -18l4 -5l15 15q14 13 21 24q10 17 26 17q11 0 18 -7.5t7 -19.5q0 -8 -7 -20q-8 -12 -16 -28t-22 -36q-11 -16 -23 -23q-17 -9 -33 -1zM91 61q-51 0 -55 98q0 -3 -7 73.5l-14 153t-7 74.5q-12 47 11 66
q14 12 30 12q25 0 37.5 -16.5t19.5 -56.5q2 -12 4 -22.5t4 -18t3.5 -12.5t2.5 -7t2 -2q4 2 11 30q11 42 32 75q25 40 50 48q31 11 56 -6q11 -8 31 -7q21 1 31 -5q8 -5 15.5 -18.5t7.5 -23.5q0 -16 -17 -38t-36 -30q-38 -17 -68 13l-8 8l-33 -21l-14 -43q-17 -51 -24 -65
q-11 -23 -12 -67q-3 -117 -4 -132t-8 -30q-14 -30 -41 -30z" />
    <glyph glyph-name="Sacute" unicode="&#x15a;" horiz-adv-x="525" 
d="M224 811q-9 13 0 29q1 2 2.5 6t3.5 10t4 10q19 46 29 61q7 9 20 13q12 4 27 -5q30 -18 13 -58q-9 -18 -40 -43q-23 -17 -26 -22q-8 -8 -17.5 -8t-15.5 7zM387 -62q-39 -3 -118 28q-32 12 -56 12q-17 0 -23 2t-24 14q-19 12 -45 39.5t-33 42.5q-5 11 -5.5 46.5t4.5 54.5
q5 23 21 31.5t32 -3.5q14 -10 20 -53q4 -28 12 -53q6 -23 29 -42q10 -7 68 -8q60 0 63 5q7 7 19.5 42.5t12.5 46.5q0 19 -15.5 54t-34.5 61q-11 14 -14.5 16.5t-11.5 1.5q-61 -11 -85.5 -10.5t-58.5 11.5q-28 9 -38 11q-20 4 -39 21t-30 40q-17 37 -17 98.5t16 116.5
q12 41 39 95q20 37 53 67t65 41q31 11 91 1q69 -9 104 -30q24 -15 52 -49t39 -60q12 -31 2 -93t-29 -76q-7 -5 -22 -5q-20 0 -31 21q-3 7 -3.5 27t2.5 32q3 10 7 34q4 23 -3 37q-17 36 -51 52q-18 8 -48 8q-39 -1 -52.5 -6.5t-36.5 -28.5q-28 -30 -34 -42q-15 -33 -15 -94
q0 -47 20 -92l9 -20l28 -2q75 -5 104 -20q25 -13 42 -41q13 -21 56 -100q32 -60 35 -65q36 -65 20 -127q-22 -85 -92 -90z" />
    <glyph glyph-name="sacute" unicode="&#x15b;" horiz-adv-x="354" 
d="M141 609q-9 13 0 29q1 2 2.5 6t3.5 10t4 10q19 46 29 61q7 9 20 13q12 4 27 -5q30 -18 13 -58q-9 -18 -40 -43q-23 -17 -26 -22q-8 -8 -17.5 -8t-15.5 7zM115 30q-29 9 -40 39q-20 54 -20 74q0 23 19.5 32t38.5 -4q8 -5 24 -61q3 -10 10 -12.5t39 -1.5q35 1 44 2.5t9 8.5
q0 6 -17.5 31t-24.5 31q-1 0 -8.5 6t-11.5 7q-19 7 -31 21q-19 22 -37 22q-19 0 -54 14q-15 6 -29.5 21.5t-17.5 29.5q-5 21 -6 49q-3 59 16 100q12 25 44 52.5t56 35.5q13 4 97 -1q55 -3 68 -11q41 -25 41 -69q0 -17 -10.5 -41.5t-19.5 -32.5q-7 -5 -19 -5t-19 5
q-8 6 -17 23.5t-11 31.5q-6 40 -48 42l-25 1l-10 -9q-24 -21 -16 -42q3 -9 3 -56q1 -37 7 -61l5 -19l19 -4q6 -1 15 -6t10 -5q3 -1 14 -5t17 -6q28 -9 56 -35q35 -34 32 -106q-1 -36 -19 -54q-25 -25 -52 -32q-15 -4 -62.5 -3.5t-58.5 3.5z" />
    <glyph glyph-name="Scedilla" unicode="&#x15e;" horiz-adv-x="525" 
d="M424 220q32 -60 35 -65q36 -65 20 -127q-22 -85 -92 -90q-26 -2 -72 12q16 -14 19 -42q1 -29 -25 -51q-13 -12 -28 -17q-16 -5 -43 0q-25 5 -34 14q-10 8 -10 21.5t10 21.5q17 14 42 -8q10 -10 16 -12q8 -2 18 10q8 9 5 18q-1 11 -12 11q-17 0 -22 11q-4 10 -2 46
q-16 5 -36 5q-17 0 -23 2t-24 14q-19 12 -45 39.5t-33 42.5q-5 11 -5.5 46.5t4.5 54.5q5 23 21 31.5t32 -3.5q14 -10 20 -53q4 -28 12 -53q6 -23 29 -42q10 -7 68 -8q60 0 63 5q7 7 19.5 42.5t12.5 46.5q0 19 -15.5 54t-34.5 61q-11 14 -14.5 16.5t-11.5 1.5
q-61 -11 -85.5 -10.5t-58.5 11.5q-28 9 -38 11q-20 4 -39 21t-30 40q-17 37 -17 98.5t16 116.5q12 41 39 95q20 37 53 67t65 41q31 11 91 1q69 -9 104 -30q24 -15 52 -49t39 -60q12 -31 2 -93t-29 -76q-7 -5 -22 -5q-20 0 -31 21q-3 7 -3.5 27t2.5 32q3 10 7 34q4 23 -3 37
q-17 36 -51 52q-18 8 -48 8q-39 -1 -52.5 -6.5t-36.5 -28.5q-28 -30 -34 -42q-15 -33 -15 -94q0 -47 20 -92l9 -20l28 -2q75 -5 104 -20q25 -13 42 -41q13 -21 56 -100z" />
    <glyph glyph-name="scedilla" unicode="&#x15f;" horiz-adv-x="354" 
d="M275 222q35 -34 32 -106q-1 -36 -19 -54q-25 -25 -52 -32q-9 -3 -33 -3l-2 -9q2 -2 9 -4q34 -7 39 -52q1 -29 -25 -51q-13 -12 -28 -17q-16 -5 -43 0q-25 5 -34 14q-10 8 -10 21.5t10 21.5q17 14 42 -8q10 -10 16 -12q8 -2 18 10q8 9 5 18q-1 11 -12 11q-16 0 -22 11
q-4 10 -2 46q-40 0 -49 3q-29 9 -40 39q-20 54 -20 74q0 23 19.5 32t38.5 -4q8 -5 24 -61q3 -10 10 -12.5t39 -1.5q35 1 44 2.5t9 8.5q0 6 -17.5 31t-24.5 31q-1 0 -8.5 6t-11.5 7q-19 7 -31 21q-19 22 -37 22q-19 0 -54 14q-15 6 -29.5 21.5t-17.5 29.5q-5 21 -6 49
q-3 59 16 100q12 25 44 52.5t56 35.5q13 4 97 -1q55 -3 68 -11q41 -25 41 -69q0 -17 -10.5 -41.5t-19.5 -32.5q-7 -5 -19 -5t-19 5q-8 6 -17 23.5t-11 31.5q-6 40 -48 42l-25 1l-10 -9q-24 -21 -16 -42q3 -9 3 -56q1 -37 7 -61l5 -19l19 -4q6 -1 15 -6t10 -5q3 -1 14 -5
t17 -6q28 -9 56 -35z" />
    <glyph glyph-name="Scaron" unicode="&#x160;" horiz-adv-x="525" 
d="M252 792q-23 12 -44 63q-15 41 -9 51q6 12 21 10q11 0 29 -22l13 -18l4 -5l15 15q14 13 21 24q10 17 26 17q11 0 18 -7.5t7 -19.5q0 -8 -7 -20q-8 -12 -16 -28t-22 -36q-11 -16 -23 -23q-17 -9 -33 -1zM387 -62q-39 -3 -118 28q-32 12 -56 12q-17 0 -23 2t-24 14
q-19 12 -45 39.5t-33 42.5q-5 11 -5.5 46.5t4.5 54.5q5 23 21 31.5t32 -3.5q14 -10 20 -53q4 -28 12 -53q6 -23 29 -42q10 -7 68 -8q60 0 63 5q7 7 19.5 42.5t12.5 46.5q0 19 -15.5 54t-34.5 61q-11 14 -14.5 16.5t-11.5 1.5q-61 -11 -85.5 -10.5t-58.5 11.5q-28 9 -38 11
q-20 4 -39 21t-30 40q-17 37 -17 98.5t16 116.5q12 41 39 95q20 37 53 67t65 41q31 11 91 1q69 -9 104 -30q24 -15 52 -49t39 -60q12 -31 2 -93t-29 -76q-7 -5 -22 -5q-20 0 -31 21q-3 7 -3.5 27t2.5 32q3 10 7 34q4 23 -3 37q-17 36 -51 52q-18 8 -48 8q-39 -1 -52.5 -6.5
t-36.5 -28.5q-28 -30 -34 -42q-15 -33 -15 -94q0 -47 20 -92l9 -20l28 -2q75 -5 104 -20q25 -13 42 -41q13 -21 56 -100q32 -60 35 -65q36 -65 20 -127q-22 -85 -92 -90z" />
    <glyph glyph-name="scaron" unicode="&#x161;" horiz-adv-x="354" 
d="M169 590q-23 12 -44 63q-15 41 -9 51q6 12 21 10q11 0 29 -22l13 -18l4 -5l15 15q14 13 21 24q10 17 26 17q11 0 18 -7.5t7 -19.5q0 -8 -7 -20q-8 -12 -16 -28t-22 -36q-11 -16 -23 -23q-17 -9 -33 -1zM115 30q-29 9 -40 39q-20 54 -20 74q0 23 19.5 32t38.5 -4
q8 -5 24 -61q3 -10 10 -12.5t39 -1.5q35 1 44 2.5t9 8.5q0 6 -17.5 31t-24.5 31q-1 0 -8.5 6t-11.5 7q-19 7 -31 21q-19 22 -37 22q-19 0 -54 14q-15 6 -29.5 21.5t-17.5 29.5q-5 21 -6 49q-3 59 16 100q12 25 44 52.5t56 35.5q13 4 97 -1q55 -3 68 -11q41 -25 41 -69
q0 -17 -10.5 -41.5t-19.5 -32.5q-7 -5 -19 -5t-19 5q-8 6 -17 23.5t-11 31.5q-6 40 -48 42l-25 1l-10 -9q-24 -21 -16 -42q3 -9 3 -56q1 -37 7 -61l5 -19l19 -4q6 -1 15 -6t10 -5q3 -1 14 -5t17 -6q28 -9 56 -35q35 -34 32 -106q-1 -36 -19 -54q-25 -25 -52 -32
q-15 -4 -62.5 -3.5t-58.5 3.5z" />
    <glyph glyph-name="uni0162" unicode="&#x162;" horiz-adv-x="540" 
d="M562 668q19 -19 -3 -44q-20 -23 -60 -23q-17 0 -53 -6l-33 -5l-7 -35q-7 -33 -15 -55q-7 -20 -6 -93q2 -74 -4 -118q-5 -41 -7 -76q-2 -27 -4 -43q-3 -12 -7 -52q-2 -25 -8 -65l-11 -57q-4 -26 -9 -34t-18 -9q-4 -8 -4 -14q2 -2 9 -4q34 -7 39 -52q1 -29 -25 -51
q-13 -12 -28 -17q-16 -5 -43 0q-25 5 -34 14q-10 8 -10 21.5t10 21.5q17 14 42 -8q10 -10 16 -12q8 -2 18 10q8 9 5 18q-1 11 -12 11q-16 0 -22 11q-2 5 -2 31.5t2 33.5q1 2 2.5 5.5t2.5 5.5q-1 3 -1.5 9.5t-0.5 9.5q-4 27 0 67q5 55 -11 133t-19.5 132t2.5 132q4 53 -3 81
q-8 32 -8 35q0 9 -5 11t-23 0q-25 -3 -66.5 -1.5t-52.5 6.5q-31 13 -46 42.5t-6 58.5q13 43 55 59q27 10 95 -9q81 -24 150 -32q37 -4 97 -24q24 -9 68 -10q45 -2 54 -10z" />
    <glyph glyph-name="uni0163" unicode="&#x163;" horiz-adv-x="376" 
d="M302 232q23 0 36.5 -25t2.5 -47q-6 -10 -11 -27q-19 -60 -43 -77q-29 -20 -59 -25l4 -1q34 -6 39 -52q1 -29 -25 -51q-13 -12 -28 -17q-16 -5 -43 0q-25 5 -34 14q-10 8 -10 21.5t10 21.5q17 14 42 -8q10 -10 16 -12q8 -2 18 10q8 9 5 18q-1 11 -12 11q-16 0 -22 11
q-2 4 -2 35q-33 5 -59 24t-33 40q-19 54 -20 181q-1 101 -5 102q-6 3 -14 3q-32 0 -55 16q-26 18 -29 48t19 51q23 21 68 19q36 -1 39 3q3 5 6 32q14 108 77 122q5 4 11 1t6.5 -3t5 -7t7.5 -11q13 -17 15.5 -45.5t-3.5 -98.5l-2 -23l11 -4q1 0 8 -2t13.5 -4t13 -5t8.5 -5
q11 -12 11 -29t-11 -28q-3 -3 -50 -17q-18 -6 -20 -8q-4 -2 -6 -27q-1 -11 -6 -58q-10 -83 11 -156q4 -16 6.5 -19t9.5 -3q11 0 29 8.5t25 21.5q5 10 5 13.5t-4 15.5q-7 22 0.5 37t27.5 15z" />
    <glyph glyph-name="Tcaron" unicode="&#x164;" horiz-adv-x="540" 
d="M315 752q-23 12 -44 63q-15 41 -9 51q6 12 21 10q11 0 29 -22l13 -18l4 -5l15 15q14 13 21 24q10 17 26 17q11 0 18 -7.5t7 -19.5q0 -8 -7 -20q-8 -12 -16 -28t-22 -36q-11 -16 -23 -23q-17 -9 -33 -1zM310 -47q-15 1 -21 10t-8 34q-4 27 0 67q5 55 -11 133t-19.5 132
t2.5 132q4 53 -3 81q-8 32 -8 35q0 9 -5 11t-23 0q-25 -3 -66.5 -1.5t-52.5 6.5q-31 13 -46 42.5t-6 58.5q13 43 55 59q27 10 95 -9q81 -24 150 -32q37 -4 97 -24q24 -9 68 -10q45 -2 54 -10q19 -19 -3 -44q-20 -23 -60 -23q-17 0 -53 -6l-33 -5l-7 -35q-7 -33 -15 -55
q-7 -20 -6 -93q2 -74 -4 -118q-5 -41 -7 -76q-2 -27 -4 -43q-3 -12 -7 -52q-2 -25 -8 -65l-11 -57q-4 -28 -10.5 -36t-23.5 -7z" />
    <glyph glyph-name="tcaron" unicode="&#x165;" horiz-adv-x="376" 
d="M267 586q-17 8 -14 24q1 6 -3 29q-10 50 -4 67q4 14 11 21q9 9 27 9q15 0 25.5 -13t12.5 -32q1 -20 -14 -57l-13 -32q-9 -25 -28 -16zM287 56q-44 -29 -84.5 -26t-70.5 22.5t-38 43.5q-19 54 -20 181q-1 101 -5 102q-6 3 -14 3q-32 0 -55 16q-26 18 -29 48t19 51
q23 21 68 19q36 -1 39 3q3 5 6 32q14 108 77 122q5 4 11 1t6.5 -3t5 -7t7.5 -11q13 -17 15.5 -45.5t-3.5 -98.5l-2 -23l11 -4q1 0 8 -2t13.5 -4t13 -5t8.5 -5q11 -12 11 -29t-11 -28q-3 -3 -50 -17q-18 -6 -20 -8q-4 -2 -6 -27q-1 -11 -6 -58q-10 -83 11 -156q4 -16 6.5 -19
t9.5 -3q11 0 29 8.5t25 21.5q5 10 5 13.5t-4 15.5q-7 22 0.5 37t27.5 15q23 0 36.5 -25t2.5 -47q-6 -10 -11 -27q-19 -60 -43 -77z" />
    <glyph glyph-name="Tbar" unicode="&#x166;" horiz-adv-x="540" 
d="M562 668q19 -19 -3 -44q-20 -23 -60 -23q-17 0 -53 -6l-33 -5l-7 -35q-7 -33 -15 -55q-2 -6 -4 -14q21 -2 33 -6q19 -7 25.5 -20.5t-1.5 -26t-27 -17.5t-32 -6v-3q2 -74 -4 -118q-5 -41 -7 -76q-2 -27 -4 -43q-3 -12 -7 -52q-2 -25 -8 -65l-11 -57q-4 -28 -10.5 -36
t-23.5 -7q-15 1 -21 10t-8 34q-4 27 0 67q5 55 -11 133q-24 115 -20 207q-20 0 -49 11q-26 10 -33 26q-9 21 6 36q10 14 42 17q5 1 39 -1q2 20 -5 49q-8 32 -8 35q0 9 -5 11t-23 0q-25 -3 -66.5 -1.5t-52.5 6.5q-31 13 -46 42.5t-6 58.5q13 43 55 59q27 10 95 -9
q81 -24 150 -32q37 -4 97 -24q24 -9 68 -10q45 -2 54 -10z" />
    <glyph glyph-name="tbar" unicode="&#x167;" horiz-adv-x="376" 
d="M302 232q23 0 36.5 -25t2.5 -47q-6 -10 -11 -27q-19 -60 -43 -77q-44 -29 -84.5 -26t-70.5 22.5t-38 43.5q-16 46 -19 136q-23 0 -50 11q-26 10 -33 26q-9 21 6 36q10 14 42 17q5 1 33 -1q-1 57 -4 58q-6 3 -14 3q-32 0 -55 16q-26 18 -29 48t19 51q23 21 68 19
q36 -1 39 3q3 5 6 32q14 108 77 122q5 4 11 1t6.5 -3t5 -7t7.5 -11q13 -17 15.5 -45.5t-3.5 -98.5l-2 -23l11 -4q1 0 8 -2t13.5 -4t13 -5t8.5 -5q11 -12 11 -29t-11 -28q-3 -3 -50 -17q-18 -6 -20 -8q-4 -2 -6 -27q0 -3 -1 -11t-1.5 -15.5t-1.5 -14.5q36 -3 50 -8
q19 -7 25.5 -20.5t-1.5 -26t-27 -17.5q-32 -7 -53 -9q1 -45 15 -92q4 -16 6.5 -19t9.5 -3q11 0 29 8.5t25 21.5q5 10 5 13.5t-4 15.5q-7 22 0.5 37t27.5 15z" />
    <glyph glyph-name="Umacron" unicode="&#x16a;" horiz-adv-x="430" 
d="M314 779q-9 -2 -35 1q-40 6 -43 6q-33 2 -54 14q-16 10 -15 30q1 9 7 16q8 11 27 16q8 2 42 0.5t47 -3.5q27 -4 47 -15.5t22 -22.5q3 -15 -10 -27t-35 -15zM279 -17q-75 -28 -149 51q-33 36 -48 73.5t-25 108.5q-7 48 -13 123.5t-4 97.5q2 12 6 89q4 93 16 133
q16 54 60 68q8 3 23 0.5t24 -8.5q11 -5 18 -20q6 -10 7 -22.5t3 -74.5q2 -82 -2 -131q-13 -194 -10 -236q11 -127 42 -148q8 -6 27 -11q27 -7 40 4t27 54q19 60 23 189q4 93 7 124q8 86 -3 119q-2 5 -4 13t-5 18t-4 15q-5 25 -11 37q-6 11 -5 26t8 25q16 20 39 19.5
t38 -22.5q6 -8 6 -17t-5 -60q-2 -29 1 -51q3 -40 0 -92q-3 -103 -4 -177q-3 -106 -9.5 -149t-26.5 -82q-10 -22 -39.5 -50.5t-47.5 -35.5z" />
    <glyph glyph-name="umacron" unicode="&#x16b;" horiz-adv-x="433" 
d="M286 559q-9 -2 -35 1q-40 6 -43 6q-33 2 -54 14q-16 10 -15 30q1 9 7 16q8 11 27 16q8 2 42 0.5t47 -3.5q27 -4 47 -15.5t22 -22.5q3 -15 -10 -27t-35 -15zM371 49q-13 -1 -21 3.5t-24 20.5q-11 11 -20.5 26t-9.5 21q0 9 -11 -11q-1 -1 -2 -3q-13 -22 -31 -40
q-29 -29 -80 -35.5t-113 19.5q-20 9 -29.5 27.5t-16.5 56.5q-7 39 -8 45q-5 49 0 102q5 55 2 100q-2 41 4 58q16 43 57 56q20 6 44 -1q20 -6 32 -24t12 -41q0 -51 -27 -190q-6 -32 -5 -68.5t6 -45.5q2 -4 21.5 -14t23.5 -10q3 0 16 -8q11 -8 15 -5.5t17 25.5q24 43 40 97
q20 69 25 131q10 110 19 123q11 17 28.5 19t30.5 -11q17 -19 4 -65q-3 -11 -7 -29t-4 -19q-1 -3 -3 -13t-3 -13q-13 -40 -13 -115q0 -45 6 -64.5t23 -28.5q42 -23 32 -52q-8 -23 -30 -24z" />
    <glyph glyph-name="Uring" unicode="&#x16e;" horiz-adv-x="430" 
d="M249 750q-31 9 -46 32t-4 46q11 22 30 34q16 11 24 4q3 -2 6 1q9 9 17 11q11 3 27 -4q12 -5 18 -16t12 -36q4 -26 -19 -54q-27 -28 -65 -18zM286 798q10 8 3 21q-6 10 -15 14l-12 4q-5 0 -11 -18q-2 -6 0 -11q4 -10 15.5 -13t19.5 3zM279 -17q-75 -28 -149 51
q-33 36 -48 73.5t-25 108.5q-7 48 -13 123.5t-4 97.5q2 12 6 89q4 93 16 133q16 54 60 68q8 3 23 0.5t24 -8.5q11 -5 18 -20q6 -10 7 -22.5t3 -74.5q2 -82 -2 -131q-13 -194 -10 -236q11 -127 42 -148q8 -6 27 -11q27 -7 40 4t27 54q19 60 23 189q4 93 7 124q8 86 -3 119
q-2 5 -4 13t-5 18t-4 15q-5 25 -11 37q-6 11 -5 26t8 25q16 20 39 19.5t38 -22.5q6 -8 6 -17t-5 -60q-2 -29 1 -51q3 -40 0 -92q-3 -103 -4 -177q-3 -106 -9.5 -149t-26.5 -82q-10 -22 -39.5 -50.5t-47.5 -35.5z" />
    <glyph glyph-name="uring" unicode="&#x16f;" horiz-adv-x="433" 
d="M221 530q-31 9 -46 32t-4 46q11 22 30 34q16 11 24 4q3 -2 6 1q9 9 17 11q11 3 27 -4q12 -5 18 -16t12 -36q4 -26 -19 -54q-27 -28 -65 -18zM258 578q10 8 3 21q-6 10 -15 14l-12 4q-5 0 -11 -18q-2 -6 0 -11q4 -10 15.5 -13t19.5 3zM371 49q-13 -1 -21 3.5t-24 20.5
q-11 11 -20.5 26t-9.5 21q0 9 -11 -11q-1 -1 -2 -3q-13 -22 -31 -40q-29 -29 -80 -35.5t-113 19.5q-20 9 -29.5 27.5t-16.5 56.5q-7 39 -8 45q-5 49 0 102q5 55 2 100q-2 41 4 58q16 43 57 56q20 6 44 -1q20 -6 32 -24t12 -41q0 -51 -27 -190q-6 -32 -5 -68.5t6 -45.5
q2 -4 21.5 -14t23.5 -10q3 0 16 -8q11 -8 15 -5.5t17 25.5q24 43 40 97q20 69 25 131q10 110 19 123q11 17 28.5 19t30.5 -11q17 -19 4 -65q-3 -11 -7 -29t-4 -19q-1 -3 -3 -13t-3 -13q-13 -40 -13 -115q0 -45 6 -64.5t23 -28.5q42 -23 32 -52q-8 -23 -30 -24z" />
    <glyph glyph-name="Uhungarumlaut" unicode="&#x170;" horiz-adv-x="430" 
d="M175 761q-9 13 0 29q1 2 2.5 6t3.5 10t4 10q19 46 29 61q7 9 20 13q12 4 27 -5q7 -4 8 -10.5t-6 -22t-18.5 -34t-36.5 -56.5q-7 -10 -17 -9.5t-16 8.5zM262 761q-9 13 0 29q1 2 2.5 6t3.5 10t4 10q19 46 29 61q7 9 20 13q12 4 27 -5q10 -10 4 -24.5t-38 -67.5
q-6 -9 -10 -16t-9 -15q-7 -10 -17 -9.5t-16 8.5zM279 -17q-75 -28 -149 51q-33 36 -48 73.5t-25 108.5q-7 48 -13 123.5t-4 97.5q2 12 6 89q4 93 16 133q16 54 60 68q8 3 23 0.5t24 -8.5q11 -5 18 -20q6 -10 7 -22.5t3 -74.5q2 -82 -2 -131q-13 -194 -10 -236
q11 -127 42 -148q8 -6 27 -11q27 -7 40 4t27 54q19 60 23 189q4 93 7 124q8 86 -3 119q-2 5 -4 13t-5 18t-4 15q-5 25 -11 37q-6 11 -5 26t8 25q16 20 39 19.5t38 -22.5q6 -8 6 -17t-5 -60q-2 -29 1 -51q3 -40 0 -92q-3 -103 -4 -177q-3 -106 -9.5 -149t-26.5 -82
q-10 -22 -39.5 -50.5t-47.5 -35.5z" />
    <glyph glyph-name="uhungarumlaut" unicode="&#x171;" horiz-adv-x="433" 
d="M147 541q-9 13 0 29q1 2 2.5 6t3.5 10t4 10q19 46 29 61q7 9 20 13q12 4 27 -5q7 -4 8 -10.5t-6 -22t-18.5 -34t-36.5 -56.5q-7 -10 -17 -9.5t-16 8.5zM234 541q-9 13 0 29q1 2 2.5 6t3.5 10t4 10q19 46 29 61q7 9 20 13q12 4 27 -5q10 -10 4 -24.5t-38 -67.5
q-6 -9 -10 -16t-9 -15q-7 -10 -17 -9.5t-16 8.5zM371 49q-13 -1 -21 3.5t-24 20.5q-11 11 -20.5 26t-9.5 21q0 9 -11 -11q-1 -1 -2 -3q-13 -22 -31 -40q-29 -29 -80 -35.5t-113 19.5q-20 9 -29.5 27.5t-16.5 56.5q-7 39 -8 45q-5 49 0 102q5 55 2 100q-2 41 4 58
q16 43 57 56q20 6 44 -1q20 -6 32 -24t12 -41q0 -51 -27 -190q-6 -32 -5 -68.5t6 -45.5q2 -4 21.5 -14t23.5 -10q3 0 16 -8q11 -8 15 -5.5t17 25.5q24 43 40 97q20 69 25 131q10 110 19 123q11 17 28.5 19t30.5 -11q17 -19 4 -65q-3 -11 -7 -29t-4 -19q-1 -3 -3 -13t-3 -13
q-13 -40 -13 -115q0 -45 6 -64.5t23 -28.5q42 -23 32 -52q-8 -23 -30 -24z" />
    <glyph glyph-name="Uogonek" unicode="&#x172;" horiz-adv-x="430" 
d="M405 620q-2 -29 1 -51q3 -40 0 -92q-3 -103 -4 -177q-3 -106 -9.5 -149t-26.5 -82q-10 -21 -38 -49t-47 -36q1 -10 -11 -31q-8 -12 -8 -22t1 -12q6 -8 36 -8q12 0 17 -1q8 -1 10 -7q7 -16 -9 -31.5t-44 -21.5q-48 -10 -73 29q-14 21 -14 49q0 21 4 31q4 11 13 24
q-39 14 -73 51q-33 36 -48 73.5t-25 108.5q-7 48 -13 123.5t-4 97.5q2 12 6 89q4 93 16 133q16 54 60 68q8 3 23 0.5t24 -8.5q11 -5 18 -20q6 -10 7 -22.5t3 -74.5q2 -82 -2 -131q-13 -194 -10 -236q11 -127 42 -148q8 -6 27 -11q27 -7 40 4t27 54q19 60 23 189q4 93 7 124
q8 86 -3 119q-2 5 -4 13t-5 18t-4 15q-5 25 -11 37q-6 11 -5 26t8 25q16 20 39 19.5t38 -22.5q6 -8 6 -17t-5 -60z" />
    <glyph glyph-name="uogonek" unicode="&#x173;" horiz-adv-x="433" 
d="M446 19q7 -16 -9 -31.5t-44 -21.5q-48 -10 -73 29q-14 21 -14 49q0 21 4 31q0 2 5 11q-19 25 -19 34t-11 -11q-1 -1 -2 -3q-13 -22 -31 -40q-29 -29 -80 -35.5t-113 19.5q-20 9 -29.5 27.5t-16.5 56.5q-7 39 -8 45q-5 49 0 102q5 55 2 100q-2 41 4 58q16 43 57 56
q20 6 44 -1q20 -6 32 -24t12 -41q0 -51 -27 -190q-6 -32 -5 -68.5t6 -45.5q2 -4 21.5 -14t23.5 -10q3 0 16 -8q11 -8 15 -5.5t17 25.5q24 43 40 97q20 69 25 131q10 110 19 123q11 17 28.5 19t30.5 -11q17 -19 4 -65q-3 -11 -7 -29t-4 -19q-1 -3 -3 -13t-3 -13
q-13 -40 -13 -115q0 -45 6 -64.5t23 -28.5q8 0 14 -3q11 -6 18 -20q2 -3 0 -8q4 -13 0 -21q-7 -16 -19 -22v-4q0 -10 1 -12q6 -8 36 -8q12 0 17 -1q8 -1 10 -7z" />
    <glyph glyph-name="Wcircumflex" unicode="&#x174;" horiz-adv-x="718" 
d="M427 780q-15 0 -26 16q-7 11 -21 24l-15 15l-4 -4l-13 -18q-18 -22 -29 -23q-15 -2 -21 10q-6 11 9 51q22 53 44 63q16 8 33 -1q12 -7 23 -23q14 -20 22 -36q13 -24 16 -28q7 -12 7 -20q0 -11 -7 -18.5t-18 -7.5zM456 -24q-22 9 -43.5 36.5t-34.5 61.5q-4 12 -11 56
q-5 38 -8 38t-12 -21q-10 -22 -13 -31q-2 -3 -19 -48q-20 -54 -37 -72q-15 -16 -39 -17.5t-46 12.5q-32 19 -56 58q-30 49 -47 104q-27 90 -37 164q-12 92 -12.5 136.5t13.5 103.5q15 57 51 114t65 70q37 16 69 -2.5t32 -55.5q0 -18 -12 -43q-13 -27 -21.5 -63t-11.5 -58.5
t-11 -84.5q-6 -51 -12 -93q-11 -77 3 -147q7 -33 24 -69q17 -33 20 -35q2 -1 6.5 4.5t16.5 26.5q2 3 3.5 6t3.5 6q21 35 33 75q15 49 17.5 67t1.5 74q-2 72 1 85q9 46 39 57q22 8 42.5 -2t32.5 -33q7 -14 7 -79q0 -63 5 -98q5 -30 7 -66q4 -62 19 -98q5 -12 9 -15t9 2t13 21
q22 42 28 81q8 52 12 138.5t1 119.5q-3 30 -8 47t-19 49q-18 40 -21 49q-8 25 -30 56q-42 61 0 98q16 14 24 17q11 4 28 2.5t27 -6.5q21 -11 42.5 -43.5t29.5 -66.5l16 -69l12 -48v-67q0 -166 -12 -278q-6 -56 -32 -117q-63 -145 -158 -109z" />
    <glyph glyph-name="wcircumflex" unicode="&#x175;" horiz-adv-x="681" 
d="M376 552q-15 0 -26 16q-7 11 -21 24l-15 15l-4 -4l-13 -18q-18 -22 -29 -23q-15 -2 -21 10q-6 11 9 51q22 53 44 63q16 8 33 -1q12 -7 23 -23q14 -20 22 -36q13 -24 16 -28q7 -12 7 -20q0 -11 -7 -18.5t-18 -7.5zM210 38q-21 -6 -44.5 3.5t-39.5 33.5q-4 5 -13.5 17
t-13.5 17q-13 17 -20 34q-6 17 -24 39q-38 48 -46 87q-8 37 5.5 131.5t31.5 127.5q4 8 17.5 19t20.5 13q20 5 39 -4t27 -27q10 -22 0 -54q-14 -48 -14 -122q0 -61 12 -137q5 -33 6 -42q1 -17 15 -38q13 -19 17 -17q7 4 26 50q33 77 33 90q0 22 20 84q7 20 8 83
q1 47 2.5 57.5t8.5 19.5q25 34 62 17q15 -7 22 -22q7 -16 7 -55t-6 -61t-3 -30q16 -48 19 -92q1 -9 6 -36q2 -10 11 -32.5t11 -24.5t17 12.5t31 32.5t20 27q17 35 27 81q5 26 2 71.5t-13 72.5q-13 34 3 63t49 34q29 4 53 -17q21 -18 25 -44.5t-5 -84.5q-11 -79 -14.5 -95
t-17.5 -58q-19 -54 -30.5 -76t-44.5 -61q-26 -31 -29 -42q-11 -41 -54 -40q-41 2 -65 31q-14 18 -56 108q-9 19 -10 19q-5 0 -24 -39q-16 -33 -29 -53q-9 -13 -10 -30q-3 -34 -28 -41z" />
    <glyph glyph-name="Ycircumflex" unicode="&#x176;" horiz-adv-x="466" 
d="M273 762q-15 0 -26 16q-7 11 -21 24l-15 15l-4 -4l-13 -18q-18 -22 -29 -23q-15 -2 -21 10q-6 11 9 51q22 53 44 63q16 8 33 -1q12 -7 23 -23q14 -20 22 -36q13 -24 16 -28q7 -12 7 -20q0 -11 -7 -18.5t-18 -7.5zM195 -83q-25 -3 -37 12q-13 16 -6.5 34.5t36.5 54.5
q55 65 88 180q12 42 20 107q8 54 4 54q-1 0 -3 -1q-25 -11 -85 -19q-44 -6 -72 -6q-39 2 -70 30.5t-45 74.5q-6 22 -4 62q8 125 20 174.5t39 65.5q16 10 36.5 7t33.5 -17q11 -11 14 -34q3 -24 -5 -56q-12 -46 -14 -67t2 -58q5 -37 14 -53.5t33 -27.5q15 -7 39 -4l25 3l12 17
q9 14 21.5 47.5t13.5 47.5q2 9 -6 32q-7 22 -11 63.5t-2 58.5t10 34q7 14 22 25t29 12q13 1 30.5 -5t26.5 -15q18 -18 27 -54t4 -70q-4 -26 -4 -49q-1 -50 -14 -97q-23 -89 -25 -195q-2 -58 -11.5 -96.5t-37.5 -94.5q-22 -44 -41 -71t-62 -74q-27 -29 -45 -32z" />
    <glyph glyph-name="ycircumflex" unicode="&#x177;" horiz-adv-x="450" 
d="M303 572q-15 0 -26 16q-7 11 -21 24l-15 15l-4 -4l-13 -18q-18 -22 -29 -23q-15 -2 -21 10q-6 11 9 51q22 53 44 63q16 8 33 -1q12 -7 23 -23q14 -20 22 -36q13 -24 16 -28q7 -12 7 -20q0 -11 -7 -18.5t-18 -7.5zM73 -370q-42 1 -64 42q-9 17 -9 68q0 46 8 69q6 19 24 42
q4 5 14 20.5t15 20.5q4 5 62.5 71.5t86.5 96.5q16 17 26 17t18.5 -7t8.5 -15l-43 -50q-77 -90 -107 -132q-4 -5 -16 -37q-14 -37 -17 -46q-12 -42 -5 -45q4 -1 23 9.5t28 19.5q7 6 34.5 46t46.5 72q48 81 64 180q3 18 7 59.5t1 41.5q-1 0 -36 -35q-39 -39 -57 -46t-57 3
q-74 20 -97 74q-22 50 -13 125q7 64 18.5 99.5t36.5 75.5t33.5 51.5t18.5 15.5q18 6 35.5 -2t23.5 -26q8 -24 -14 -99q-11 -37 -23 -121t-8 -97q2 -8 12.5 -13.5t18.5 -2.5q6 2 50 45.5t53 57.5l9 13l-7 22q-7 21 -10.5 38.5t-3.5 32.5t0.5 23t2.5 21.5t3 17.5q7 45 23 61
q25 25 57 25q31 0 44 -28q6 -13 8 -50q1 -20 -5 -51q-24 -130 -27 -136q-1 -1 -9 -64q-1 -7 -3.5 -26.5t-3.5 -25.5t-3 -22t-3.5 -23t-3.5 -20.5t-4.5 -22t-5.5 -21.5t-7 -25t-8 -25q-9 -26 -18 -61q-18 -65 -26 -86q-42 -107 -127 -183q-38 -34 -73 -32z" />
    <glyph glyph-name="Ydieresis" unicode="&#x178;" horiz-adv-x="466" 
d="M299 827q-15 -22 -38 -19t-28 28q-3 17 3 31q2 5 12 13t17 9q7 2 15 1q12 -1 16 -5q26 -23 3 -58zM169 809q-16 0 -26 11q-12 11 -12 28t13 27q9 7 11 7q4 0 6 2h3q3 -1 5 -1q15 0 25.5 -12t10.5 -27t-9 -24q-11 -11 -27 -11zM195 -83q-25 -3 -37 12q-13 16 -6.5 34.5
t36.5 54.5q55 65 88 180q12 42 20 107q8 54 4 54q-1 0 -3 -1q-25 -11 -85 -19q-44 -6 -72 -6q-39 2 -70 30.5t-45 74.5q-6 22 -4 62q8 125 20 174.5t39 65.5q16 10 36.5 7t33.5 -17q11 -11 14 -34q3 -24 -5 -56q-12 -46 -14 -67t2 -58q5 -37 14 -53.5t33 -27.5q15 -7 39 -4
l25 3l12 17q9 14 21.5 47.5t13.5 47.5q2 9 -6 32q-7 22 -11 63.5t-2 58.5t10 34q7 14 22 25t29 12q13 1 30.5 -5t26.5 -15q18 -18 27 -54t4 -70q-4 -26 -4 -49q-1 -50 -14 -97q-23 -89 -25 -195q-2 -58 -11.5 -96.5t-37.5 -94.5q-22 -44 -41 -71t-62 -74q-27 -29 -45 -32z
" />
    <glyph glyph-name="Zacute" unicode="&#x179;" horiz-adv-x="478" 
d="M231 765q-9 13 0 29q1 2 2.5 6t3.5 10t4 10q19 46 29 61q7 9 20 13q12 4 27 -5q30 -18 13 -58q-9 -18 -40 -43q-23 -17 -26 -22q-8 -8 -17.5 -8t-15.5 7zM373 -35q-17 0 -29.5 5.5t-38.5 24.5q-35 28 -54 18q-9 -6 -127 -6q-23 -1 -41 18q-40 42 5 133q0 1 4 11.5
t11.5 29t18 44.5t26.5 61.5t35 76t45.5 92t55.5 104.5q9 17 9 22q0 1 -40 3q-42 2 -61 7t-40 0q-21 -6 -47 -3q-41 2 -63 20t-22 49q0 56 71 68q26 4 32 4q33 2 63 -19q17 -12 34 -15t64 -4q53 0 65 -4q12 -5 31 -3q23 2 35 -6.5t18 -32.5q8 -30 -17 -92
q-18 -43 -32.5 -72.5t-28 -52t-48 -87.5t-80.5 -157q-12 -24 -14.5 -47t0.5 -33.5t6 -13.5q2 -2 17 3q44 11 115 -1q32 -6 44 -11.5t22 -17.5q32 -35 16.5 -76t-60.5 -40z" />
    <glyph glyph-name="zacute" unicode="&#x17a;" horiz-adv-x="461" 
d="M197 593q-9 13 0 29q1 2 2.5 6t3.5 10t4 10q19 46 29 61q7 9 20 13q12 4 27 -5q30 -18 13 -58q-9 -18 -40 -43q-23 -17 -26 -22q-8 -8 -17.5 -8t-15.5 7zM57 79q-23 0 -32 8q-42 28 -15 83q9 22 9 26q0 16 100.5 108t147.5 116q5 3 9 7t5.5 7t0.5 4q-4 6 -91 8
q-44 1 -67 9q-22 7 -39 11q-36 9 -45 25q-14 23 -3 45q12 24 43 27q9 1 25 1q6 0 22 -2q10 -1 48 -14l33 -11l43 4q76 8 92 -4q19 -13 22 -33q2 -14 7 -19q6 -6 5 -32q-1 -28 -12 -45q-22 -33 -32.5 -45t-43.5 -39q-35 -29 -80 -51t-56 -41q-4 -6 -13 -22.5t-13 -22.5
q-13 -22 -11 -24q4 -4 27 1.5t37 11.5q14 8 44 7q45 0 96 1q36 0 50 -8q23 -13 29 -36t-8 -43q-31 -45 -106 -17q-36 13 -46.5 14.5t-50.5 -0.5q-50 -2 -67 0q-20 1 -31 -7q-10 -8 -33 -8z" />
    <glyph glyph-name="Zdotaccent" unicode="&#x17b;" horiz-adv-x="478" 
d="M311 807q-15 -22 -38 -19t-28 28q-3 17 3 31q2 5 12 13t17 9q7 2 15 1q12 -1 16 -5q26 -23 3 -58zM373 -35q-17 0 -29.5 5.5t-38.5 24.5q-35 28 -54 18q-9 -6 -127 -6q-23 -1 -41 18q-40 42 5 133q0 1 4 11.5t11.5 29t18 44.5t26.5 61.5t35 76t45.5 92t55.5 104.5
q9 17 9 22q0 1 -40 3q-42 2 -61 7t-40 0q-21 -6 -47 -3q-41 2 -63 20t-22 49q0 56 71 68q26 4 32 4q33 2 63 -19q17 -12 34 -15t64 -4q53 0 65 -4q12 -5 31 -3q23 2 35 -6.5t18 -32.5q8 -30 -17 -92q-18 -43 -32.5 -72.5t-28 -52t-48 -87.5t-80.5 -157q-12 -24 -14.5 -47
t0.5 -33.5t6 -13.5q2 -2 17 3q44 11 115 -1q32 -6 44 -11.5t22 -17.5q32 -35 16.5 -76t-60.5 -40z" />
    <glyph glyph-name="zdotaccent" unicode="&#x17c;" horiz-adv-x="461" 
d="M277 635q-15 -22 -38 -19t-28 28q-3 17 3 31q2 5 12 13t17 9q7 2 15 1q12 -1 16 -5q26 -23 3 -58zM57 79q-23 0 -32 8q-42 28 -15 83q9 22 9 26q0 16 100.5 108t147.5 116q5 3 9 7t5.5 7t0.5 4q-4 6 -91 8q-44 1 -67 9q-22 7 -39 11q-36 9 -45 25q-14 23 -3 45
q12 24 43 27q9 1 25 1q6 0 22 -2q10 -1 48 -14l33 -11l43 4q76 8 92 -4q19 -13 22 -33q2 -14 7 -19q6 -6 5 -32q-1 -28 -12 -45q-22 -33 -32.5 -45t-43.5 -39q-35 -29 -80 -51t-56 -41q-4 -6 -13 -22.5t-13 -22.5q-13 -22 -11 -24q4 -4 27 1.5t37 11.5q14 8 44 7q45 0 96 1
q36 0 50 -8q23 -13 29 -36t-8 -43q-31 -45 -106 -17q-36 13 -46.5 14.5t-50.5 -0.5q-50 -2 -67 0q-20 1 -31 -7q-10 -8 -33 -8z" />
    <glyph glyph-name="Zcaron" unicode="&#x17d;" horiz-adv-x="478" 
d="M259 746q-23 12 -44 63q-15 41 -9 51q6 12 21 10q11 0 29 -22l13 -18l4 -5l15 15q14 13 21 24q10 17 26 17q11 0 18 -7.5t7 -19.5q0 -8 -7 -20q-8 -12 -16 -28t-22 -36q-11 -16 -23 -23q-17 -9 -33 -1zM373 -35q-17 0 -29.5 5.5t-38.5 24.5q-35 28 -54 18q-9 -6 -127 -6
q-23 -1 -41 18q-40 42 5 133q0 1 4 11.5t11.5 29t18 44.5t26.5 61.5t35 76t45.5 92t55.5 104.5q9 17 9 22q0 1 -40 3q-42 2 -61 7t-40 0q-21 -6 -47 -3q-41 2 -63 20t-22 49q0 56 71 68q26 4 32 4q33 2 63 -19q17 -12 34 -15t64 -4q53 0 65 -4q12 -5 31 -3q23 2 35 -6.5
t18 -32.5q8 -30 -17 -92q-18 -43 -32.5 -72.5t-28 -52t-48 -87.5t-80.5 -157q-12 -24 -14.5 -47t0.5 -33.5t6 -13.5q2 -2 17 3q44 11 115 -1q32 -6 44 -11.5t22 -17.5q32 -35 16.5 -76t-60.5 -40z" />
    <glyph glyph-name="zcaron" unicode="&#x17e;" horiz-adv-x="461" 
d="M225 574q-23 12 -44 63q-15 41 -9 51q6 12 21 10q11 0 29 -22l13 -18l4 -5l15 15q14 13 21 24q10 17 26 17q11 0 18 -7.5t7 -19.5q0 -8 -7 -20q-8 -12 -16 -28t-22 -36q-11 -16 -23 -23q-17 -9 -33 -1zM57 79q-23 0 -32 8q-42 28 -15 83q9 22 9 26q0 16 100.5 108
t147.5 116q5 3 9 7t5.5 7t0.5 4q-4 6 -91 8q-44 1 -67 9q-22 7 -39 11q-36 9 -45 25q-14 23 -3 45q12 24 43 27q9 1 25 1q6 0 22 -2q10 -1 48 -14l33 -11l43 4q76 8 92 -4q19 -13 22 -33q2 -14 7 -19q6 -6 5 -32q-1 -28 -12 -45q-22 -33 -32.5 -45t-43.5 -39
q-35 -29 -80 -51t-56 -41q-4 -6 -13 -22.5t-13 -22.5q-13 -22 -11 -24q4 -4 27 1.5t37 11.5q14 8 44 7q45 0 96 1q36 0 50 -8q23 -13 29 -36t-8 -43q-31 -45 -106 -17q-36 13 -46.5 14.5t-50.5 -0.5q-50 -2 -67 0q-20 1 -31 -7q-10 -8 -33 -8z" />
    <glyph glyph-name="Scommaaccent" unicode="&#x218;" horiz-adv-x="525" 
d="M387 -62q-39 -3 -118 28q-32 12 -56 12q-17 0 -23 2t-24 14q-19 12 -45 39.5t-33 42.5q-5 11 -5.5 46.5t4.5 54.5q5 23 21 31.5t32 -3.5q14 -10 20 -53q4 -28 12 -53q6 -23 29 -42q10 -7 68 -8q60 0 63 5q7 7 19.5 42.5t12.5 46.5q0 19 -15.5 54t-34.5 61
q-11 14 -14.5 16.5t-11.5 1.5q-61 -11 -85.5 -10.5t-58.5 11.5q-28 9 -38 11q-20 4 -39 21t-30 40q-17 37 -17 98.5t16 116.5q12 41 39 95q20 37 53 67t65 41q31 11 91 1q69 -9 104 -30q24 -15 52 -49t39 -60q12 -31 2 -93t-29 -76q-7 -5 -22 -5q-20 0 -31 21q-3 7 -3.5 27
t2.5 32q3 10 7 34q4 23 -3 37q-17 36 -51 52q-18 8 -48 8q-39 -1 -52.5 -6.5t-36.5 -28.5q-28 -30 -34 -42q-15 -33 -15 -94q0 -47 20 -92l9 -20l28 -2q75 -5 104 -20q25 -13 42 -41q13 -21 56 -100q32 -60 35 -65q36 -65 20 -127q-22 -85 -92 -90zM201 -285q0 5 0.5 23
t0.5 29.5t-2 25t-6 20.5q-15 5 -22.5 16.5t-3.5 25.5q2 7 13.5 21.5t18.5 17.5q15 8 34 0q17 -8 21 -33.5t-3 -46.5q-2 -6 -8.5 -40.5t-15.5 -51.5q-12 -23 -23 -17q-4 2 -4 10z" />
    <glyph glyph-name="scommaaccent" unicode="&#x219;" horiz-adv-x="354" 
d="M115 30q-29 9 -40 39q-20 54 -20 74q0 23 19.5 32t38.5 -4q8 -5 24 -61q3 -10 10 -12.5t39 -1.5q35 1 44 2.5t9 8.5q0 6 -17.5 31t-24.5 31q-1 0 -8.5 6t-11.5 7q-19 7 -31 21q-19 22 -37 22q-19 0 -54 14q-15 6 -29.5 21.5t-17.5 29.5q-5 21 -6 49q-3 59 16 100
q12 25 44 52.5t56 35.5q13 4 97 -1q55 -3 68 -11q41 -25 41 -69q0 -17 -10.5 -41.5t-19.5 -32.5q-7 -5 -19 -5t-19 5q-8 6 -17 23.5t-11 31.5q-6 40 -48 42l-25 1l-10 -9q-24 -21 -16 -42q3 -9 3 -56q1 -37 7 -61l5 -19l19 -4q6 -1 15 -6t10 -5q3 -1 14 -5t17 -6
q28 -9 56 -35q35 -34 32 -106q-1 -36 -19 -54q-25 -25 -52 -32q-15 -4 -62.5 -3.5t-58.5 3.5zM116 -231q0 5 0.5 23t0.5 29.5t-2 25t-6 20.5q-15 5 -22.5 16.5t-3.5 25.5q2 7 13.5 21.5t18.5 17.5q15 8 34 0q17 -8 21 -33.5t-3 -46.5q-2 -6 -8.5 -40.5t-15.5 -51.5
q-12 -23 -23 -17q-4 2 -4 10z" />
    <glyph glyph-name="uni021A" unicode="&#x21a;" horiz-adv-x="540" 
d="M310 -47q-15 1 -21 10t-8 34q-4 27 0 67q5 55 -11 133t-19.5 132t2.5 132q4 53 -3 81q-8 32 -8 35q0 9 -5 11t-23 0q-25 -3 -66.5 -1.5t-52.5 6.5q-31 13 -46 42.5t-6 58.5q13 43 55 59q27 10 95 -9q81 -24 150 -32q37 -4 97 -24q24 -9 68 -10q45 -2 54 -10
q19 -19 -3 -44q-20 -23 -60 -23q-17 0 -53 -6l-33 -5l-7 -35q-7 -33 -15 -55q-7 -20 -6 -93q2 -74 -4 -118q-5 -41 -7 -76q-2 -27 -4 -43q-3 -12 -7 -52q-2 -25 -8 -65l-11 -57q-4 -28 -10.5 -36t-23.5 -7zM228 -310q0 5 0.5 23t0.5 29.5t-2 25t-6 20.5q-15 5 -22.5 16.5
t-3.5 25.5q2 7 13.5 21.5t18.5 17.5q5 3 16 3t18 -3q17 -8 21 -33.5t-3 -46.5q-2 -6 -8.5 -40.5t-15.5 -51.5q-12 -23 -23 -17q-4 2 -4 10z" />
    <glyph glyph-name="uni021B" unicode="&#x21b;" horiz-adv-x="376" 
d="M287 56q-44 -29 -84.5 -26t-70.5 22.5t-38 43.5q-19 54 -20 181q-1 101 -5 102q-6 3 -14 3q-32 0 -55 16q-26 18 -29 48t19 51q23 21 68 19q36 -1 39 3q3 5 6 32q14 108 77 122q5 4 11 1t6.5 -3t5 -7t7.5 -11q13 -17 15.5 -45.5t-3.5 -98.5l-2 -23l11 -4q1 0 8 -2
t13.5 -4t13 -5t8.5 -5q11 -12 11 -29t-11 -28q-3 -3 -50 -17q-18 -6 -20 -8q-4 -2 -6 -27q-1 -11 -6 -58q-10 -83 11 -156q4 -16 6.5 -19t9.5 -3q11 0 29 8.5t25 21.5q5 10 5 13.5t-4 15.5q-7 22 0.5 37t27.5 15q23 0 36.5 -25t2.5 -47q-6 -10 -11 -27q-19 -60 -43 -77z
M138 -215q0 5 0.5 23t0.5 29.5t-2 25t-6 20.5q-15 5 -22.5 16.5t-3.5 25.5q2 7 13.5 21.5t18.5 17.5q15 8 34 0q17 -8 21 -33.5t-3 -46.5q-2 -6 -8.5 -40.5t-15.5 -51.5q-12 -23 -23 -17q-4 2 -4 10z" />
    <glyph glyph-name="circumflex" unicode="&#x2c6;" horiz-adv-x="600" 
d="M344 639q-19 0 -32 21q-8 12 -27 31l-19 19l-5 -6l-17 -23q-22 -28 -37 -29q-20 -2 -27 13q-7 14 12 65q25 66 56 81q21 10 42 -2q14 -8 29 -29q20 -29 28 -46q6 -12 21 -36q9 -15 9 -25q0 -15 -9.5 -24.5t-23.5 -9.5z" />
    <glyph glyph-name="caron" unicode="&#x2c7;" horiz-adv-x="600" 
d="M248 643q-31 15 -56 81q-19 51 -12 65q7 15 27 13q15 -1 37 -29l17 -23l5 -6l19 19q19 19 27 31q13 21 32 21q14 0 23.5 -9.5t9.5 -24.5q0 -10 -9 -25q-15 -24 -21 -36q-8 -17 -28 -46q-15 -21 -29 -29q-21 -12 -42 -2z" />
    <glyph glyph-name="breve" unicode="&#x2d8;" horiz-adv-x="600" 
d="M232 664q-40 -1 -64 10q-32 16 -49 54q-10 22 -0.5 39t30.5 17q12 0 18 -3.5t17 -17.5q14 -18 18 -19q12 -3 27 -3q21 0 31.5 5t22.5 22q21 28 36 33q20 7 37 -5t17 -33q0 -20 -32 -50q-6 -6 -12 -10.5t-9.5 -7.5t-10.5 -6.5t-9.5 -5t-12.5 -6t-14 -6.5q-13 -6 -41 -7z
" />
    <glyph glyph-name="dotaccent" unicode="&#x2d9;" horiz-adv-x="600" 
d="M320 722q-19 -28 -48 -23.5t-36 35.5q-4 21 4 39q3 7 15.5 17t21.5 12t19 1q13 -1 20 -7q16 -13 17 -33.5t-13 -40.5z" />
    <glyph glyph-name="ring" unicode="&#x2da;" horiz-adv-x="600" 
d="M261 654q-40 11 -59 40t-5 59q13 28 38 44q19 12 31 4q3 -2 7 2q12 12 22 14q15 3 34 -5q15 -7 23 -21t15 -46q8 -33 -24 -68q-34 -37 -82 -23zM308 715q13 9 3 27q-7 12 -19 17q-14 6 -15 6q-2 0 -7.5 -9t-6.5 -14q-2 -8 0 -15q4 -13 19 -16.5t26 4.5z" />
    <glyph glyph-name="ogonek" unicode="&#x2db;" horiz-adv-x="600" 
d="M311 -159q-61 -13 -93 36q-18 28 -18 63q0 24 5 39q13 38 48 58q22 13 46 2q15 -7 22 -25q5 -14 -13 -42q-11 -17 -11 -28q0 -13 2 -16q10 -10 45 -10q16 0 22 -1q10 -1 13 -9q8 -20 -12 -39.5t-56 -27.5z" />
    <glyph glyph-name="tilde" unicode="&#x2dc;" horiz-adv-x="600" 
d="M283 670q-43 7 -76 49l-10 12q-1 0 -6 -11q-5 -12 -11 -18t-19 -6t-21 8q-6 6 -11 18q-7 17 0 46q5 21 26.5 35.5t48.5 16.5q13 1 27 -6q18 -9 34 -38q5 -10 16.5 -22.5t14.5 -12.5q1 0 6.5 8.5t11 18.5t5.5 11q5 13 20 19q24 10 42 -11q8 -9 -17 -56t-40 -56
q-16 -10 -41 -5z" />
    <glyph glyph-name="hungarumlaut" unicode="&#x2dd;" horiz-adv-x="600" 
d="M198 668q-12 17 0 36q1 2 3 7.5t5 13.5t5 13q23 61 37 78q9 10 25 16q15 6 35 -6q9 -5 10.5 -13t-8.5 -28.5t-24 -43t-46 -72.5q-9 -13 -21.5 -12.5t-20.5 11.5zM309 668q-12 17 0 36q1 2 3 7.5t5 13.5t5 13q23 61 37 78q9 10 25 16q15 6 35 -6q8 -5 9 -12t-5 -21
t-18 -35t-33 -55q-14 -22 -21 -34q-9 -13 -21.5 -12.5t-20.5 11.5z" />
    </font>
</defs>
</svg>
